%TF.GenerationSoftware,KiCad,Pcbnew,(6.0.7)*%
%TF.CreationDate,2023-03-11T00:51:03-05:00*%
%TF.ProjectId,GNERAL,474e4552-414c-42e6-9b69-6361645f7063,rev?*%
%TF.SameCoordinates,Original*%
%TF.FileFunction,Copper,L2,Bot*%
%TF.FilePolarity,Positive*%
%FSLAX46Y46*%
G04 Gerber Fmt 4.6, Leading zero omitted, Abs format (unit mm)*
G04 Created by KiCad (PCBNEW (6.0.7)) date 2023-03-11 00:51:03*
%MOMM*%
%LPD*%
G01*
G04 APERTURE LIST*
G04 Aperture macros list*
%AMRoundRect*
0 Rectangle with rounded corners*
0 $1 Rounding radius*
0 $2 $3 $4 $5 $6 $7 $8 $9 X,Y pos of 4 corners*
0 Add a 4 corners polygon primitive as box body*
4,1,4,$2,$3,$4,$5,$6,$7,$8,$9,$2,$3,0*
0 Add four circle primitives for the rounded corners*
1,1,$1+$1,$2,$3*
1,1,$1+$1,$4,$5*
1,1,$1+$1,$6,$7*
1,1,$1+$1,$8,$9*
0 Add four rect primitives between the rounded corners*
20,1,$1+$1,$2,$3,$4,$5,0*
20,1,$1+$1,$4,$5,$6,$7,0*
20,1,$1+$1,$6,$7,$8,$9,0*
20,1,$1+$1,$8,$9,$2,$3,0*%
G04 Aperture macros list end*
%TA.AperFunction,ComponentPad*%
%ADD10R,1.600000X1.600000*%
%TD*%
%TA.AperFunction,ComponentPad*%
%ADD11O,1.600000X1.600000*%
%TD*%
%TA.AperFunction,ComponentPad*%
%ADD12R,1.700000X1.700000*%
%TD*%
%TA.AperFunction,ComponentPad*%
%ADD13O,1.700000X1.700000*%
%TD*%
%TA.AperFunction,ComponentPad*%
%ADD14RoundRect,0.250000X0.725000X-0.600000X0.725000X0.600000X-0.725000X0.600000X-0.725000X-0.600000X0*%
%TD*%
%TA.AperFunction,ComponentPad*%
%ADD15O,1.950000X1.700000*%
%TD*%
%TA.AperFunction,Conductor*%
%ADD16C,0.250000*%
%TD*%
G04 APERTURE END LIST*
D10*
%TO.P,A1,1,D1/TX*%
%TO.N,unconnected-(A1-Pad1)*%
X146810000Y-114380000D03*
D11*
%TO.P,A1,2,D0/RX*%
%TO.N,unconnected-(A1-Pad2)*%
X146810000Y-111840000D03*
%TO.P,A1,3,~{RESET}*%
%TO.N,unconnected-(A1-Pad3)*%
X146810000Y-109300000D03*
%TO.P,A1,4,GND*%
%TO.N,unconnected-(A1-Pad4)*%
X146810000Y-106760000D03*
%TO.P,A1,5,D2*%
%TO.N,unconnected-(A1-Pad5)*%
X146810000Y-104220000D03*
%TO.P,A1,6,D3*%
%TO.N,unconnected-(A1-Pad6)*%
X146810000Y-101680000D03*
%TO.P,A1,7,D4*%
%TO.N,unconnected-(A1-Pad7)*%
X146810000Y-99140000D03*
%TO.P,A1,8,D5*%
%TO.N,unconnected-(A1-Pad8)*%
X146810000Y-96600000D03*
%TO.P,A1,9,D6*%
%TO.N,unconnected-(A1-Pad9)*%
X146810000Y-94060000D03*
%TO.P,A1,10,D7*%
%TO.N,unconnected-(A1-Pad10)*%
X146810000Y-91520000D03*
%TO.P,A1,11,D8*%
%TO.N,unconnected-(A1-Pad11)*%
X146810000Y-88980000D03*
%TO.P,A1,12,D9*%
%TO.N,unconnected-(A1-Pad12)*%
X146810000Y-86440000D03*
%TO.P,A1,13,D10*%
%TO.N,unconnected-(A1-Pad13)*%
X146810000Y-83900000D03*
%TO.P,A1,14,D11*%
%TO.N,unconnected-(A1-Pad14)*%
X146810000Y-81360000D03*
%TO.P,A1,15,D12*%
%TO.N,unconnected-(A1-Pad15)*%
X146810000Y-78820000D03*
%TO.P,A1,16,D13*%
%TO.N,unconnected-(A1-Pad16)*%
X131570000Y-78820000D03*
%TO.P,A1,17,3V3*%
%TO.N,Net-(A1-Pad17)*%
X131570000Y-81360000D03*
%TO.P,A1,18,AREF*%
%TO.N,unconnected-(A1-Pad18)*%
X131570000Y-83900000D03*
%TO.P,A1,19,A0*%
%TO.N,Net-(A1-Pad19)*%
X131570000Y-86440000D03*
%TO.P,A1,20,A1*%
%TO.N,Net-(A1-Pad20)*%
X131570000Y-88980000D03*
%TO.P,A1,21,A2*%
%TO.N,Net-(A1-Pad21)*%
X131570000Y-91520000D03*
%TO.P,A1,22,A3*%
%TO.N,Net-(A1-Pad22)*%
X131570000Y-94060000D03*
%TO.P,A1,23,A4*%
%TO.N,Net-(A1-Pad23)*%
X131570000Y-96600000D03*
%TO.P,A1,24,A5*%
%TO.N,Net-(A1-Pad24)*%
X131570000Y-99140000D03*
%TO.P,A1,25,A6*%
%TO.N,Net-(A1-Pad25)*%
X131570000Y-101680000D03*
%TO.P,A1,26,A7*%
%TO.N,unconnected-(A1-Pad26)*%
X131570000Y-104220000D03*
%TO.P,A1,27,+5V*%
%TO.N,Net-(A1-Pad27)*%
X131570000Y-106760000D03*
%TO.P,A1,28,~{RESET}*%
%TO.N,unconnected-(A1-Pad28)*%
X131570000Y-109300000D03*
%TO.P,A1,29,GND*%
%TO.N,GND*%
X131570000Y-111840000D03*
%TO.P,A1,30,VIN*%
%TO.N,unconnected-(A1-Pad30)*%
X131570000Y-114380000D03*
%TD*%
D12*
%TO.P,J1,1,Pin_1*%
%TO.N,Net-(A1-Pad17)*%
X170450000Y-111490000D03*
D13*
%TO.P,J1,2,Pin_2*%
%TO.N,GND*%
X167910000Y-111490000D03*
%TO.P,J1,3,Pin_3*%
%TO.N,Net-(A1-Pad24)*%
X165370000Y-111490000D03*
%TO.P,J1,4,Pin_4*%
%TO.N,Net-(A1-Pad25)*%
X162830000Y-111490000D03*
%TO.P,J1,5,Pin_5*%
%TO.N,unconnected-(J1-Pad5)*%
X160290000Y-111490000D03*
%TO.P,J1,6,Pin_6*%
%TO.N,unconnected-(J1-Pad6)*%
X157750000Y-111490000D03*
%TO.P,J1,7,Pin_7*%
%TO.N,unconnected-(J1-Pad7)*%
X155210000Y-111490000D03*
%TO.P,J1,8,Pin_8*%
%TO.N,unconnected-(J1-Pad8)*%
X152670000Y-111490000D03*
%TD*%
D14*
%TO.P,VDD1,1,Pin_1*%
%TO.N,Net-(A1-Pad27)*%
X164060000Y-85730000D03*
D15*
%TO.P,VDD1,2,Pin_2*%
X164060000Y-83230000D03*
%TO.P,VDD1,3,Pin_3*%
X164060000Y-80730000D03*
%TO.P,VDD1,4,Pin_4*%
X164060000Y-78230000D03*
%TO.P,VDD1,5,Pin_5*%
X164060000Y-75730000D03*
%TD*%
D14*
%TO.P,Data1,1,Pin_1*%
%TO.N,Net-(A1-Pad19)*%
X164190000Y-102100000D03*
D15*
%TO.P,Data1,2,Pin_2*%
%TO.N,Net-(A1-Pad20)*%
X164190000Y-99600000D03*
%TO.P,Data1,3,Pin_3*%
%TO.N,Net-(A1-Pad21)*%
X164190000Y-97100000D03*
%TO.P,Data1,4,Pin_4*%
%TO.N,Net-(A1-Pad22)*%
X164190000Y-94600000D03*
%TO.P,Data1,5,Pin_5*%
%TO.N,Net-(A1-Pad23)*%
X164190000Y-92100000D03*
%TD*%
D16*
%TO.N,Net-(A1-Pad25)*%
X162830000Y-111490000D02*
X161654700Y-111490000D01*
X131570000Y-101680000D02*
X132695300Y-101680000D01*
X161654700Y-111122700D02*
X161654700Y-111490000D01*
X153337300Y-102805300D02*
X161654700Y-111122700D01*
X133820600Y-102805300D02*
X153337300Y-102805300D01*
X132695300Y-101680000D02*
X133820600Y-102805300D01*
%TO.N,Net-(A1-Pad24)*%
X133820600Y-100265300D02*
X132695300Y-99140000D01*
X153337300Y-100265300D02*
X133820600Y-100265300D01*
X164194700Y-111122700D02*
X153337300Y-100265300D01*
X164194700Y-111490000D02*
X164194700Y-111122700D01*
X165370000Y-111490000D02*
X164194700Y-111490000D01*
X131570000Y-99140000D02*
X132695300Y-99140000D01*
%TO.N,Net-(A1-Pad22)*%
X133820600Y-95185300D02*
X132695300Y-94060000D01*
X162304400Y-95185300D02*
X133820600Y-95185300D01*
X162889700Y-94600000D02*
X162304400Y-95185300D01*
X164190000Y-94600000D02*
X162889700Y-94600000D01*
X131570000Y-94060000D02*
X132695300Y-94060000D01*
%TO.N,Net-(A1-Pad20)*%
X133820600Y-90105300D02*
X132695300Y-88980000D01*
X154871500Y-90105300D02*
X133820600Y-90105300D01*
X158116200Y-93350000D02*
X154871500Y-90105300D01*
X164742600Y-93350000D02*
X158116200Y-93350000D01*
X165499500Y-94106900D02*
X164742600Y-93350000D01*
X165499500Y-97629400D02*
X165499500Y-94106900D01*
X164704200Y-98424700D02*
X165499500Y-97629400D01*
X164190000Y-98424700D02*
X164704200Y-98424700D01*
X164190000Y-99600000D02*
X164190000Y-98424700D01*
X131570000Y-88980000D02*
X132695300Y-88980000D01*
%TO.N,Net-(A1-Pad19)*%
X131288600Y-87565300D02*
X131570000Y-87565300D01*
X130444700Y-88409200D02*
X131288600Y-87565300D01*
X130444700Y-94605800D02*
X130444700Y-88409200D01*
X131168900Y-95330000D02*
X130444700Y-94605800D01*
X132100200Y-95330000D02*
X131168900Y-95330000D01*
X134724100Y-97953900D02*
X132100200Y-95330000D01*
X160043900Y-97953900D02*
X134724100Y-97953900D01*
X164190000Y-102100000D02*
X160043900Y-97953900D01*
X131570000Y-86440000D02*
X131570000Y-87565300D01*
%TO.N,Net-(A1-Pad17)*%
X170450000Y-96568500D02*
X170450000Y-111490000D01*
X156366800Y-82485300D02*
X170450000Y-96568500D01*
X133820600Y-82485300D02*
X156366800Y-82485300D01*
X132695300Y-81360000D02*
X133820600Y-82485300D01*
X131570000Y-81360000D02*
X132695300Y-81360000D01*
%TD*%
%TA.AperFunction,NonConductor*%
G36*
X132653979Y-82230685D02*
G01*
X132699042Y-82259646D01*
X133316943Y-82877547D01*
X133324487Y-82885837D01*
X133328600Y-82892318D01*
X133334377Y-82897743D01*
X133378267Y-82938958D01*
X133381109Y-82941713D01*
X133400831Y-82961435D01*
X133403955Y-82963858D01*
X133403959Y-82963862D01*
X133404024Y-82963912D01*
X133413045Y-82971617D01*
X133445279Y-83001886D01*
X133452227Y-83005705D01*
X133452229Y-83005707D01*
X133463032Y-83011646D01*
X133479559Y-83022502D01*
X133489298Y-83030057D01*
X133489300Y-83030058D01*
X133495560Y-83034914D01*
X133536140Y-83052474D01*
X133546788Y-83057691D01*
X133567674Y-83069173D01*
X133585540Y-83078995D01*
X133593216Y-83080966D01*
X133593219Y-83080967D01*
X133605162Y-83084033D01*
X133623867Y-83090437D01*
X133642455Y-83098481D01*
X133650278Y-83099720D01*
X133650288Y-83099723D01*
X133686124Y-83105399D01*
X133697744Y-83107805D01*
X133732889Y-83116828D01*
X133740570Y-83118800D01*
X133760824Y-83118800D01*
X133780534Y-83120351D01*
X133800543Y-83123520D01*
X133808435Y-83122774D01*
X133844561Y-83119359D01*
X133856419Y-83118800D01*
X145532729Y-83118800D01*
X145600850Y-83138802D01*
X145647343Y-83192458D01*
X145657447Y-83262732D01*
X145646924Y-83298050D01*
X145575716Y-83450757D01*
X145516457Y-83671913D01*
X145496502Y-83900000D01*
X145516457Y-84128087D01*
X145517881Y-84133400D01*
X145517881Y-84133402D01*
X145545552Y-84236669D01*
X145575716Y-84349243D01*
X145578039Y-84354224D01*
X145578039Y-84354225D01*
X145670151Y-84551762D01*
X145670154Y-84551767D01*
X145672477Y-84556749D01*
X145803802Y-84744300D01*
X145965700Y-84906198D01*
X145970208Y-84909355D01*
X145970211Y-84909357D01*
X146048389Y-84964098D01*
X146153251Y-85037523D01*
X146158233Y-85039846D01*
X146158238Y-85039849D01*
X146192457Y-85055805D01*
X146245742Y-85102722D01*
X146265203Y-85170999D01*
X146244661Y-85238959D01*
X146192457Y-85284195D01*
X146158238Y-85300151D01*
X146158233Y-85300154D01*
X146153251Y-85302477D01*
X146048389Y-85375902D01*
X145970211Y-85430643D01*
X145970208Y-85430645D01*
X145965700Y-85433802D01*
X145803802Y-85595700D01*
X145672477Y-85783251D01*
X145670154Y-85788233D01*
X145670151Y-85788238D01*
X145578039Y-85985775D01*
X145575716Y-85990757D01*
X145516457Y-86211913D01*
X145496502Y-86440000D01*
X145516457Y-86668087D01*
X145575716Y-86889243D01*
X145578039Y-86894224D01*
X145578039Y-86894225D01*
X145670151Y-87091762D01*
X145670154Y-87091767D01*
X145672477Y-87096749D01*
X145675634Y-87101257D01*
X145788418Y-87262329D01*
X145803802Y-87284300D01*
X145965700Y-87446198D01*
X145970208Y-87449355D01*
X145970211Y-87449357D01*
X146048389Y-87504098D01*
X146153251Y-87577523D01*
X146158233Y-87579846D01*
X146158238Y-87579849D01*
X146192457Y-87595805D01*
X146245742Y-87642722D01*
X146265203Y-87710999D01*
X146244661Y-87778959D01*
X146192457Y-87824195D01*
X146158238Y-87840151D01*
X146158233Y-87840154D01*
X146153251Y-87842477D01*
X146143557Y-87849265D01*
X145970211Y-87970643D01*
X145970208Y-87970645D01*
X145965700Y-87973802D01*
X145803802Y-88135700D01*
X145672477Y-88323251D01*
X145670154Y-88328233D01*
X145670151Y-88328238D01*
X145589409Y-88501392D01*
X145575716Y-88530757D01*
X145516457Y-88751913D01*
X145496502Y-88980000D01*
X145516457Y-89208087D01*
X145517881Y-89213400D01*
X145517881Y-89213402D01*
X145544619Y-89313189D01*
X145542929Y-89384165D01*
X145503135Y-89442961D01*
X145437871Y-89470909D01*
X145422912Y-89471800D01*
X134135195Y-89471800D01*
X134067074Y-89451798D01*
X134046099Y-89434895D01*
X133198947Y-88587742D01*
X133191413Y-88579463D01*
X133187300Y-88572982D01*
X133137648Y-88526356D01*
X133134807Y-88523602D01*
X133115070Y-88503865D01*
X133111873Y-88501385D01*
X133102851Y-88493680D01*
X133076400Y-88468841D01*
X133070621Y-88463414D01*
X133063675Y-88459595D01*
X133063672Y-88459593D01*
X133052866Y-88453652D01*
X133036347Y-88442801D01*
X133031543Y-88439075D01*
X133020341Y-88430386D01*
X133013072Y-88427241D01*
X133013068Y-88427238D01*
X132979763Y-88412826D01*
X132969113Y-88407609D01*
X132930360Y-88386305D01*
X132910737Y-88381267D01*
X132892034Y-88374863D01*
X132880720Y-88369967D01*
X132880719Y-88369967D01*
X132873445Y-88366819D01*
X132865622Y-88365580D01*
X132865612Y-88365577D01*
X132829776Y-88359901D01*
X132818156Y-88357495D01*
X132783011Y-88348472D01*
X132783010Y-88348472D01*
X132775330Y-88346500D01*
X132772777Y-88346500D01*
X132709892Y-88319075D01*
X132687545Y-88294720D01*
X132677651Y-88280589D01*
X132576198Y-88135700D01*
X132414300Y-87973802D01*
X132409792Y-87970645D01*
X132409789Y-87970643D01*
X132236444Y-87849265D01*
X132192116Y-87793808D01*
X132184945Y-87722449D01*
X132187812Y-87707424D01*
X132189532Y-87699729D01*
X132203500Y-87645330D01*
X132203500Y-87642773D01*
X132230928Y-87579887D01*
X132255280Y-87557545D01*
X132409789Y-87449357D01*
X132409792Y-87449355D01*
X132414300Y-87446198D01*
X132576198Y-87284300D01*
X132591583Y-87262329D01*
X132704366Y-87101257D01*
X132707523Y-87096749D01*
X132709846Y-87091767D01*
X132709849Y-87091762D01*
X132801961Y-86894225D01*
X132801961Y-86894224D01*
X132804284Y-86889243D01*
X132863543Y-86668087D01*
X132883498Y-86440000D01*
X132863543Y-86211913D01*
X132804284Y-85990757D01*
X132801961Y-85985775D01*
X132709849Y-85788238D01*
X132709846Y-85788233D01*
X132707523Y-85783251D01*
X132576198Y-85595700D01*
X132414300Y-85433802D01*
X132409792Y-85430645D01*
X132409789Y-85430643D01*
X132331611Y-85375902D01*
X132226749Y-85302477D01*
X132221767Y-85300154D01*
X132221762Y-85300151D01*
X132187543Y-85284195D01*
X132134258Y-85237278D01*
X132114797Y-85169001D01*
X132135339Y-85101041D01*
X132187543Y-85055805D01*
X132221762Y-85039849D01*
X132221767Y-85039846D01*
X132226749Y-85037523D01*
X132331611Y-84964098D01*
X132409789Y-84909357D01*
X132409792Y-84909355D01*
X132414300Y-84906198D01*
X132576198Y-84744300D01*
X132707523Y-84556749D01*
X132709846Y-84551767D01*
X132709849Y-84551762D01*
X132801961Y-84354225D01*
X132801961Y-84354224D01*
X132804284Y-84349243D01*
X132834449Y-84236669D01*
X132862119Y-84133402D01*
X132862119Y-84133400D01*
X132863543Y-84128087D01*
X132883498Y-83900000D01*
X132863543Y-83671913D01*
X132804284Y-83450757D01*
X132778824Y-83396158D01*
X132709849Y-83248238D01*
X132709846Y-83248233D01*
X132707523Y-83243251D01*
X132620381Y-83118800D01*
X132579357Y-83060211D01*
X132579355Y-83060208D01*
X132576198Y-83055700D01*
X132414300Y-82893802D01*
X132409792Y-82890645D01*
X132409789Y-82890643D01*
X132327820Y-82833248D01*
X132226749Y-82762477D01*
X132221767Y-82760154D01*
X132221762Y-82760151D01*
X132187543Y-82744195D01*
X132134258Y-82697278D01*
X132114797Y-82629001D01*
X132135339Y-82561041D01*
X132187543Y-82515805D01*
X132221762Y-82499849D01*
X132221767Y-82499846D01*
X132226749Y-82497523D01*
X132333674Y-82422653D01*
X132409789Y-82369357D01*
X132409792Y-82369355D01*
X132414300Y-82366198D01*
X132520852Y-82259646D01*
X132583164Y-82225620D01*
X132653979Y-82230685D01*
G37*
%TD.AperFunction*%
%TA.AperFunction,NonConductor*%
G36*
X156120327Y-83138802D02*
G01*
X156141301Y-83155705D01*
X163612344Y-90626748D01*
X163646370Y-90689060D01*
X163641305Y-90759875D01*
X163598758Y-90816711D01*
X163575004Y-90830722D01*
X163401925Y-90908688D01*
X163210681Y-91037441D01*
X163206824Y-91041120D01*
X163206822Y-91041122D01*
X163137464Y-91107287D01*
X163043865Y-91196576D01*
X162906246Y-91381542D01*
X162801760Y-91587051D01*
X162733393Y-91807227D01*
X162732692Y-91812516D01*
X162711260Y-91974225D01*
X162703102Y-92035774D01*
X162711751Y-92266158D01*
X162759093Y-92491791D01*
X162779798Y-92544220D01*
X162786216Y-92614923D01*
X162753389Y-92677875D01*
X162691739Y-92713086D01*
X162662606Y-92716500D01*
X158430794Y-92716500D01*
X158362673Y-92696498D01*
X158341699Y-92679595D01*
X156862959Y-91200854D01*
X155375152Y-89713047D01*
X155367612Y-89704761D01*
X155363500Y-89698282D01*
X155313848Y-89651656D01*
X155311007Y-89648902D01*
X155291270Y-89629165D01*
X155288073Y-89626685D01*
X155279051Y-89618980D01*
X155252600Y-89594141D01*
X155246821Y-89588714D01*
X155239875Y-89584895D01*
X155239872Y-89584893D01*
X155229066Y-89578952D01*
X155212547Y-89568101D01*
X155212083Y-89567741D01*
X155196541Y-89555686D01*
X155189272Y-89552541D01*
X155189268Y-89552538D01*
X155155963Y-89538126D01*
X155145313Y-89532909D01*
X155106560Y-89511605D01*
X155086937Y-89506567D01*
X155068234Y-89500163D01*
X155056920Y-89495267D01*
X155056919Y-89495267D01*
X155049645Y-89492119D01*
X155041822Y-89490880D01*
X155041812Y-89490877D01*
X155005976Y-89485201D01*
X154994356Y-89482795D01*
X154959211Y-89473772D01*
X154959210Y-89473772D01*
X154951530Y-89471800D01*
X154931276Y-89471800D01*
X154911565Y-89470249D01*
X154899386Y-89468320D01*
X154891557Y-89467080D01*
X154883665Y-89467826D01*
X154847539Y-89471241D01*
X154835681Y-89471800D01*
X148197088Y-89471800D01*
X148128967Y-89451798D01*
X148082474Y-89398142D01*
X148072370Y-89327868D01*
X148075381Y-89313189D01*
X148102119Y-89213402D01*
X148102119Y-89213400D01*
X148103543Y-89208087D01*
X148123498Y-88980000D01*
X148103543Y-88751913D01*
X148044284Y-88530757D01*
X148030591Y-88501392D01*
X147949849Y-88328238D01*
X147949846Y-88328233D01*
X147947523Y-88323251D01*
X147816198Y-88135700D01*
X147654300Y-87973802D01*
X147649792Y-87970645D01*
X147649789Y-87970643D01*
X147476443Y-87849265D01*
X147466749Y-87842477D01*
X147461767Y-87840154D01*
X147461762Y-87840151D01*
X147427543Y-87824195D01*
X147374258Y-87777278D01*
X147354797Y-87709001D01*
X147375339Y-87641041D01*
X147427543Y-87595805D01*
X147461762Y-87579849D01*
X147461767Y-87579846D01*
X147466749Y-87577523D01*
X147571611Y-87504098D01*
X147649789Y-87449357D01*
X147649792Y-87449355D01*
X147654300Y-87446198D01*
X147816198Y-87284300D01*
X147831583Y-87262329D01*
X147944366Y-87101257D01*
X147947523Y-87096749D01*
X147949846Y-87091767D01*
X147949849Y-87091762D01*
X148041961Y-86894225D01*
X148041961Y-86894224D01*
X148044284Y-86889243D01*
X148103543Y-86668087D01*
X148123498Y-86440000D01*
X148103543Y-86211913D01*
X148044284Y-85990757D01*
X148041961Y-85985775D01*
X147949849Y-85788238D01*
X147949846Y-85788233D01*
X147947523Y-85783251D01*
X147816198Y-85595700D01*
X147654300Y-85433802D01*
X147649792Y-85430645D01*
X147649789Y-85430643D01*
X147571611Y-85375902D01*
X147466749Y-85302477D01*
X147461767Y-85300154D01*
X147461762Y-85300151D01*
X147427543Y-85284195D01*
X147374258Y-85237278D01*
X147354797Y-85169001D01*
X147375339Y-85101041D01*
X147427543Y-85055805D01*
X147461762Y-85039849D01*
X147461767Y-85039846D01*
X147466749Y-85037523D01*
X147571611Y-84964098D01*
X147649789Y-84909357D01*
X147649792Y-84909355D01*
X147654300Y-84906198D01*
X147816198Y-84744300D01*
X147947523Y-84556749D01*
X147949846Y-84551767D01*
X147949849Y-84551762D01*
X148041961Y-84354225D01*
X148041961Y-84354224D01*
X148044284Y-84349243D01*
X148074449Y-84236669D01*
X148102119Y-84133402D01*
X148102119Y-84133400D01*
X148103543Y-84128087D01*
X148123498Y-83900000D01*
X148103543Y-83671913D01*
X148044284Y-83450757D01*
X147973076Y-83298050D01*
X147962415Y-83227858D01*
X147991395Y-83163045D01*
X148050815Y-83124189D01*
X148087271Y-83118800D01*
X156052206Y-83118800D01*
X156120327Y-83138802D01*
G37*
%TD.AperFunction*%
%TA.AperFunction,NonConductor*%
G36*
X132653979Y-89850685D02*
G01*
X132699042Y-89879646D01*
X133316943Y-90497547D01*
X133324487Y-90505837D01*
X133328600Y-90512318D01*
X133334377Y-90517743D01*
X133378267Y-90558958D01*
X133381109Y-90561713D01*
X133400831Y-90581435D01*
X133403955Y-90583858D01*
X133403959Y-90583862D01*
X133404024Y-90583912D01*
X133413045Y-90591617D01*
X133445279Y-90621886D01*
X133452227Y-90625705D01*
X133452229Y-90625707D01*
X133463032Y-90631646D01*
X133479559Y-90642502D01*
X133489298Y-90650057D01*
X133489300Y-90650058D01*
X133495560Y-90654914D01*
X133536140Y-90672474D01*
X133546788Y-90677691D01*
X133585540Y-90698995D01*
X133593216Y-90700966D01*
X133593219Y-90700967D01*
X133605162Y-90704033D01*
X133623867Y-90710437D01*
X133642455Y-90718481D01*
X133650278Y-90719720D01*
X133650288Y-90719723D01*
X133686124Y-90725399D01*
X133697744Y-90727805D01*
X133732889Y-90736828D01*
X133740570Y-90738800D01*
X133760824Y-90738800D01*
X133780534Y-90740351D01*
X133800543Y-90743520D01*
X133808435Y-90742774D01*
X133844561Y-90739359D01*
X133856419Y-90738800D01*
X145532729Y-90738800D01*
X145600850Y-90758802D01*
X145647343Y-90812458D01*
X145657447Y-90882732D01*
X145646924Y-90918050D01*
X145575716Y-91070757D01*
X145574294Y-91076065D01*
X145574293Y-91076067D01*
X145540856Y-91200854D01*
X145516457Y-91291913D01*
X145496502Y-91520000D01*
X145516457Y-91748087D01*
X145517881Y-91753400D01*
X145517881Y-91753402D01*
X145532304Y-91807227D01*
X145575716Y-91969243D01*
X145578039Y-91974224D01*
X145578039Y-91974225D01*
X145670151Y-92171762D01*
X145670154Y-92171767D01*
X145672477Y-92176749D01*
X145803802Y-92364300D01*
X145965700Y-92526198D01*
X145970208Y-92529355D01*
X145970211Y-92529357D01*
X146048389Y-92584098D01*
X146153251Y-92657523D01*
X146158233Y-92659846D01*
X146158238Y-92659849D01*
X146192457Y-92675805D01*
X146245742Y-92722722D01*
X146265203Y-92790999D01*
X146244661Y-92858959D01*
X146192457Y-92904195D01*
X146158238Y-92920151D01*
X146158233Y-92920154D01*
X146153251Y-92922477D01*
X146126175Y-92941436D01*
X145970211Y-93050643D01*
X145970208Y-93050645D01*
X145965700Y-93053802D01*
X145803802Y-93215700D01*
X145672477Y-93403251D01*
X145670154Y-93408233D01*
X145670151Y-93408238D01*
X145589409Y-93581392D01*
X145575716Y-93610757D01*
X145574294Y-93616065D01*
X145574293Y-93616067D01*
X145518005Y-93826135D01*
X145516457Y-93831913D01*
X145496502Y-94060000D01*
X145516457Y-94288087D01*
X145517881Y-94293400D01*
X145517881Y-94293402D01*
X145544619Y-94393189D01*
X145542929Y-94464165D01*
X145503135Y-94522961D01*
X145437871Y-94550909D01*
X145422912Y-94551800D01*
X134135195Y-94551800D01*
X134067074Y-94531798D01*
X134046099Y-94514895D01*
X133630119Y-94098914D01*
X133198947Y-93667742D01*
X133191413Y-93659463D01*
X133187300Y-93652982D01*
X133137648Y-93606356D01*
X133134807Y-93603602D01*
X133115070Y-93583865D01*
X133111873Y-93581385D01*
X133102851Y-93573680D01*
X133076400Y-93548841D01*
X133070621Y-93543414D01*
X133063675Y-93539595D01*
X133063672Y-93539593D01*
X133052866Y-93533652D01*
X133036347Y-93522801D01*
X133035883Y-93522441D01*
X133020341Y-93510386D01*
X133013072Y-93507241D01*
X133013068Y-93507238D01*
X132979763Y-93492826D01*
X132969113Y-93487609D01*
X132930360Y-93466305D01*
X132910737Y-93461267D01*
X132892034Y-93454863D01*
X132880720Y-93449967D01*
X132880719Y-93449967D01*
X132873445Y-93446819D01*
X132865622Y-93445580D01*
X132865612Y-93445577D01*
X132829776Y-93439901D01*
X132818156Y-93437495D01*
X132783011Y-93428472D01*
X132783010Y-93428472D01*
X132775330Y-93426500D01*
X132772777Y-93426500D01*
X132709892Y-93399075D01*
X132687545Y-93374720D01*
X132579357Y-93220211D01*
X132579355Y-93220208D01*
X132576198Y-93215700D01*
X132414300Y-93053802D01*
X132409792Y-93050645D01*
X132409789Y-93050643D01*
X132253825Y-92941436D01*
X132226749Y-92922477D01*
X132221767Y-92920154D01*
X132221762Y-92920151D01*
X132187543Y-92904195D01*
X132134258Y-92857278D01*
X132114797Y-92789001D01*
X132135339Y-92721041D01*
X132187543Y-92675805D01*
X132221762Y-92659849D01*
X132221767Y-92659846D01*
X132226749Y-92657523D01*
X132331611Y-92584098D01*
X132409789Y-92529357D01*
X132409792Y-92529355D01*
X132414300Y-92526198D01*
X132576198Y-92364300D01*
X132707523Y-92176749D01*
X132709846Y-92171767D01*
X132709849Y-92171762D01*
X132801961Y-91974225D01*
X132801961Y-91974224D01*
X132804284Y-91969243D01*
X132847697Y-91807227D01*
X132862119Y-91753402D01*
X132862119Y-91753400D01*
X132863543Y-91748087D01*
X132883498Y-91520000D01*
X132863543Y-91291913D01*
X132839144Y-91200854D01*
X132805707Y-91076067D01*
X132805706Y-91076065D01*
X132804284Y-91070757D01*
X132733076Y-90918050D01*
X132709849Y-90868238D01*
X132709846Y-90868233D01*
X132707523Y-90863251D01*
X132620381Y-90738800D01*
X132579357Y-90680211D01*
X132579355Y-90680208D01*
X132576198Y-90675700D01*
X132414300Y-90513802D01*
X132409792Y-90510645D01*
X132409789Y-90510643D01*
X132331611Y-90455902D01*
X132226749Y-90382477D01*
X132221767Y-90380154D01*
X132221762Y-90380151D01*
X132187543Y-90364195D01*
X132134258Y-90317278D01*
X132114797Y-90249001D01*
X132135339Y-90181041D01*
X132187543Y-90135805D01*
X132221762Y-90119849D01*
X132221767Y-90119846D01*
X132226749Y-90117523D01*
X132331611Y-90044098D01*
X132409789Y-89989357D01*
X132409792Y-89989355D01*
X132414300Y-89986198D01*
X132520852Y-89879646D01*
X132583164Y-89845620D01*
X132653979Y-89850685D01*
G37*
%TD.AperFunction*%
%TA.AperFunction,NonConductor*%
G36*
X154625027Y-90758802D02*
G01*
X154646001Y-90775705D01*
X157612548Y-93742253D01*
X157620088Y-93750539D01*
X157624200Y-93757018D01*
X157629977Y-93762443D01*
X157673851Y-93803643D01*
X157676693Y-93806398D01*
X157696430Y-93826135D01*
X157699627Y-93828615D01*
X157708647Y-93836318D01*
X157740879Y-93866586D01*
X157747825Y-93870405D01*
X157747828Y-93870407D01*
X157758634Y-93876348D01*
X157775153Y-93887199D01*
X157791159Y-93899614D01*
X157798428Y-93902759D01*
X157798432Y-93902762D01*
X157831737Y-93917174D01*
X157842387Y-93922391D01*
X157881140Y-93943695D01*
X157888815Y-93945666D01*
X157888816Y-93945666D01*
X157900762Y-93948733D01*
X157919467Y-93955137D01*
X157938055Y-93963181D01*
X157945878Y-93964420D01*
X157945888Y-93964423D01*
X157981724Y-93970099D01*
X157993344Y-93972505D01*
X158028489Y-93981528D01*
X158036170Y-93983500D01*
X158056424Y-93983500D01*
X158076134Y-93985051D01*
X158096143Y-93988220D01*
X158104035Y-93987474D01*
X158140161Y-93984059D01*
X158152019Y-93983500D01*
X162306105Y-93983500D01*
X162374226Y-94003502D01*
X162420719Y-94057158D01*
X162430823Y-94127432D01*
X162401329Y-94192012D01*
X162395200Y-94198595D01*
X162078900Y-94514895D01*
X162016588Y-94548921D01*
X161989805Y-94551800D01*
X148197088Y-94551800D01*
X148128967Y-94531798D01*
X148082474Y-94478142D01*
X148072370Y-94407868D01*
X148075381Y-94393189D01*
X148102119Y-94293402D01*
X148102119Y-94293400D01*
X148103543Y-94288087D01*
X148123498Y-94060000D01*
X148103543Y-93831913D01*
X148101995Y-93826135D01*
X148045707Y-93616067D01*
X148045706Y-93616065D01*
X148044284Y-93610757D01*
X148030591Y-93581392D01*
X147949849Y-93408238D01*
X147949846Y-93408233D01*
X147947523Y-93403251D01*
X147816198Y-93215700D01*
X147654300Y-93053802D01*
X147649792Y-93050645D01*
X147649789Y-93050643D01*
X147493825Y-92941436D01*
X147466749Y-92922477D01*
X147461767Y-92920154D01*
X147461762Y-92920151D01*
X147427543Y-92904195D01*
X147374258Y-92857278D01*
X147354797Y-92789001D01*
X147375339Y-92721041D01*
X147427543Y-92675805D01*
X147461762Y-92659849D01*
X147461767Y-92659846D01*
X147466749Y-92657523D01*
X147571611Y-92584098D01*
X147649789Y-92529357D01*
X147649792Y-92529355D01*
X147654300Y-92526198D01*
X147816198Y-92364300D01*
X147947523Y-92176749D01*
X147949846Y-92171767D01*
X147949849Y-92171762D01*
X148041961Y-91974225D01*
X148041961Y-91974224D01*
X148044284Y-91969243D01*
X148087697Y-91807227D01*
X148102119Y-91753402D01*
X148102119Y-91753400D01*
X148103543Y-91748087D01*
X148123498Y-91520000D01*
X148103543Y-91291913D01*
X148079144Y-91200854D01*
X148045707Y-91076067D01*
X148045706Y-91076065D01*
X148044284Y-91070757D01*
X147973076Y-90918050D01*
X147962415Y-90847858D01*
X147991395Y-90783045D01*
X148050815Y-90744189D01*
X148087271Y-90738800D01*
X154556906Y-90738800D01*
X154625027Y-90758802D01*
G37*
%TD.AperFunction*%
%TA.AperFunction,NonConductor*%
G36*
X145600850Y-95838802D02*
G01*
X145647343Y-95892458D01*
X145657447Y-95962732D01*
X145646924Y-95998050D01*
X145581756Y-96137805D01*
X145575716Y-96150757D01*
X145574294Y-96156065D01*
X145574293Y-96156067D01*
X145531732Y-96314906D01*
X145516457Y-96371913D01*
X145496502Y-96600000D01*
X145516457Y-96828087D01*
X145517881Y-96833400D01*
X145517881Y-96833402D01*
X145524020Y-96856311D01*
X145575716Y-97049243D01*
X145578039Y-97054224D01*
X145578039Y-97054225D01*
X145618573Y-97141150D01*
X145629234Y-97211342D01*
X145600254Y-97276154D01*
X145540834Y-97315011D01*
X145504378Y-97320400D01*
X135038694Y-97320400D01*
X134970573Y-97300398D01*
X134949599Y-97283495D01*
X133703538Y-96037434D01*
X133669513Y-95975123D01*
X133674578Y-95904308D01*
X133717125Y-95847472D01*
X133783645Y-95822661D01*
X133793833Y-95822457D01*
X133800543Y-95823520D01*
X133844562Y-95819359D01*
X133856419Y-95818800D01*
X145532729Y-95818800D01*
X145600850Y-95838802D01*
G37*
%TD.AperFunction*%
%TA.AperFunction,NonConductor*%
G36*
X163009663Y-95480107D02*
G01*
X163060797Y-95515584D01*
X163110972Y-95573407D01*
X163110979Y-95573413D01*
X163114477Y-95577445D01*
X163132616Y-95592318D01*
X163288627Y-95720240D01*
X163288633Y-95720244D01*
X163292755Y-95723624D01*
X163324250Y-95741552D01*
X163373555Y-95792632D01*
X163387417Y-95862262D01*
X163361434Y-95928333D01*
X163332284Y-95955573D01*
X163210681Y-96037441D01*
X163043865Y-96196576D01*
X162906246Y-96381542D01*
X162801760Y-96587051D01*
X162800178Y-96592145D01*
X162800177Y-96592148D01*
X162738115Y-96792020D01*
X162733393Y-96807227D01*
X162732692Y-96812516D01*
X162726888Y-96856311D01*
X162703102Y-97035774D01*
X162703302Y-97041103D01*
X162703302Y-97041105D01*
X162704717Y-97078796D01*
X162711751Y-97266158D01*
X162759093Y-97491791D01*
X162761051Y-97496750D01*
X162761052Y-97496752D01*
X162837045Y-97689176D01*
X162843776Y-97706221D01*
X162846543Y-97710780D01*
X162846544Y-97710783D01*
X162864182Y-97739849D01*
X162963377Y-97903317D01*
X162966874Y-97907347D01*
X163087229Y-98046044D01*
X163114477Y-98077445D01*
X163118608Y-98080832D01*
X163288627Y-98220240D01*
X163288633Y-98220244D01*
X163292755Y-98223624D01*
X163324250Y-98241552D01*
X163373555Y-98292632D01*
X163387417Y-98362262D01*
X163361434Y-98428333D01*
X163332284Y-98455573D01*
X163210681Y-98537441D01*
X163206824Y-98541120D01*
X163206822Y-98541122D01*
X163169836Y-98576405D01*
X163043865Y-98696576D01*
X162906246Y-98881542D01*
X162903830Y-98886293D01*
X162903828Y-98886297D01*
X162888018Y-98917393D01*
X162801760Y-99087051D01*
X162800178Y-99092145D01*
X162800177Y-99092148D01*
X162738115Y-99292020D01*
X162733393Y-99307227D01*
X162732692Y-99312513D01*
X162732692Y-99312515D01*
X162715404Y-99442956D01*
X162686625Y-99507858D01*
X162627326Y-99546898D01*
X162556333Y-99547681D01*
X162501401Y-99515496D01*
X160547552Y-97561647D01*
X160540012Y-97553361D01*
X160535900Y-97546882D01*
X160486248Y-97500256D01*
X160483407Y-97497502D01*
X160463670Y-97477765D01*
X160460473Y-97475285D01*
X160451451Y-97467580D01*
X160425000Y-97442741D01*
X160419221Y-97437314D01*
X160412275Y-97433495D01*
X160412272Y-97433493D01*
X160401466Y-97427552D01*
X160384947Y-97416701D01*
X160384483Y-97416341D01*
X160368941Y-97404286D01*
X160361672Y-97401141D01*
X160361668Y-97401138D01*
X160328363Y-97386726D01*
X160317713Y-97381509D01*
X160278960Y-97360205D01*
X160259337Y-97355167D01*
X160240634Y-97348763D01*
X160229320Y-97343867D01*
X160229319Y-97343867D01*
X160222045Y-97340719D01*
X160214222Y-97339480D01*
X160214212Y-97339477D01*
X160178376Y-97333801D01*
X160166756Y-97331395D01*
X160131611Y-97322372D01*
X160131610Y-97322372D01*
X160123930Y-97320400D01*
X160103676Y-97320400D01*
X160083965Y-97318849D01*
X160071786Y-97316920D01*
X160063957Y-97315680D01*
X160056065Y-97316426D01*
X160019939Y-97319841D01*
X160008081Y-97320400D01*
X148115622Y-97320400D01*
X148047501Y-97300398D01*
X148001008Y-97246742D01*
X147990904Y-97176468D01*
X148001427Y-97141150D01*
X148041961Y-97054225D01*
X148041961Y-97054224D01*
X148044284Y-97049243D01*
X148095981Y-96856311D01*
X148102119Y-96833402D01*
X148102119Y-96833400D01*
X148103543Y-96828087D01*
X148123498Y-96600000D01*
X148103543Y-96371913D01*
X148088268Y-96314906D01*
X148045707Y-96156067D01*
X148045706Y-96156065D01*
X148044284Y-96150757D01*
X148038245Y-96137805D01*
X147973076Y-95998050D01*
X147962415Y-95927858D01*
X147991395Y-95863045D01*
X148050815Y-95824189D01*
X148087271Y-95818800D01*
X162225633Y-95818800D01*
X162236816Y-95819327D01*
X162244309Y-95821002D01*
X162252235Y-95820753D01*
X162252236Y-95820753D01*
X162312386Y-95818862D01*
X162316345Y-95818800D01*
X162344256Y-95818800D01*
X162348191Y-95818303D01*
X162348256Y-95818295D01*
X162360093Y-95817362D01*
X162392351Y-95816348D01*
X162396370Y-95816222D01*
X162404289Y-95815973D01*
X162423743Y-95810321D01*
X162443100Y-95806313D01*
X162455330Y-95804768D01*
X162455331Y-95804768D01*
X162463197Y-95803774D01*
X162470568Y-95800855D01*
X162470570Y-95800855D01*
X162504312Y-95787496D01*
X162515542Y-95783651D01*
X162550383Y-95773529D01*
X162550384Y-95773529D01*
X162557993Y-95771318D01*
X162564812Y-95767285D01*
X162564817Y-95767283D01*
X162575428Y-95761007D01*
X162593176Y-95752312D01*
X162612017Y-95744852D01*
X162647787Y-95718864D01*
X162657707Y-95712348D01*
X162688935Y-95693880D01*
X162688938Y-95693878D01*
X162695762Y-95689842D01*
X162710083Y-95675521D01*
X162725117Y-95662680D01*
X162735094Y-95655431D01*
X162741507Y-95650772D01*
X162769698Y-95616695D01*
X162777688Y-95607916D01*
X162876536Y-95509068D01*
X162938848Y-95475042D01*
X163009663Y-95480107D01*
G37*
%TD.AperFunction*%
%TA.AperFunction,NonConductor*%
G36*
X132949316Y-97078796D02*
G01*
X132969450Y-97095155D01*
X134220448Y-98346153D01*
X134227988Y-98354439D01*
X134232100Y-98360918D01*
X134237877Y-98366343D01*
X134281751Y-98407543D01*
X134284593Y-98410298D01*
X134304330Y-98430035D01*
X134307527Y-98432515D01*
X134316547Y-98440218D01*
X134348779Y-98470486D01*
X134355725Y-98474305D01*
X134355728Y-98474307D01*
X134366534Y-98480248D01*
X134383053Y-98491099D01*
X134399059Y-98503514D01*
X134406328Y-98506659D01*
X134406332Y-98506662D01*
X134439637Y-98521074D01*
X134450287Y-98526291D01*
X134489040Y-98547595D01*
X134496715Y-98549566D01*
X134496716Y-98549566D01*
X134508662Y-98552633D01*
X134527367Y-98559037D01*
X134545955Y-98567081D01*
X134553778Y-98568320D01*
X134553788Y-98568323D01*
X134589624Y-98573999D01*
X134601244Y-98576405D01*
X134636389Y-98585428D01*
X134644070Y-98587400D01*
X134664324Y-98587400D01*
X134684034Y-98588951D01*
X134704043Y-98592120D01*
X134711935Y-98591374D01*
X134748061Y-98587959D01*
X134759919Y-98587400D01*
X145439204Y-98587400D01*
X145507325Y-98607402D01*
X145553818Y-98661058D01*
X145563922Y-98731332D01*
X145560913Y-98746002D01*
X145516457Y-98911913D01*
X145496502Y-99140000D01*
X145516457Y-99368087D01*
X145517881Y-99373400D01*
X145517881Y-99373402D01*
X145544619Y-99473189D01*
X145542929Y-99544165D01*
X145503135Y-99602961D01*
X145437871Y-99630909D01*
X145422912Y-99631800D01*
X134135195Y-99631800D01*
X134067074Y-99611798D01*
X134046099Y-99594895D01*
X133198947Y-98747742D01*
X133191413Y-98739463D01*
X133187300Y-98732982D01*
X133137648Y-98686356D01*
X133134807Y-98683602D01*
X133115070Y-98663865D01*
X133111873Y-98661385D01*
X133102851Y-98653680D01*
X133076400Y-98628841D01*
X133070621Y-98623414D01*
X133063675Y-98619595D01*
X133063672Y-98619593D01*
X133052866Y-98613652D01*
X133036347Y-98602801D01*
X133035883Y-98602441D01*
X133020341Y-98590386D01*
X133013072Y-98587241D01*
X133013068Y-98587238D01*
X132979763Y-98572826D01*
X132969113Y-98567609D01*
X132930360Y-98546305D01*
X132910737Y-98541267D01*
X132892034Y-98534863D01*
X132880720Y-98529967D01*
X132880719Y-98529967D01*
X132873445Y-98526819D01*
X132865622Y-98525580D01*
X132865612Y-98525577D01*
X132829776Y-98519901D01*
X132818156Y-98517495D01*
X132783011Y-98508472D01*
X132783010Y-98508472D01*
X132775330Y-98506500D01*
X132772777Y-98506500D01*
X132709892Y-98479075D01*
X132687545Y-98454720D01*
X132670261Y-98430035D01*
X132617673Y-98354932D01*
X132579357Y-98300211D01*
X132579355Y-98300208D01*
X132576198Y-98295700D01*
X132414300Y-98133802D01*
X132409792Y-98130645D01*
X132409789Y-98130643D01*
X132282165Y-98041280D01*
X132226749Y-98002477D01*
X132221767Y-98000154D01*
X132221762Y-98000151D01*
X132187543Y-97984195D01*
X132134258Y-97937278D01*
X132114797Y-97869001D01*
X132135339Y-97801041D01*
X132187543Y-97755805D01*
X132221762Y-97739849D01*
X132221767Y-97739846D01*
X132226749Y-97737523D01*
X132363791Y-97641565D01*
X132409789Y-97609357D01*
X132409792Y-97609355D01*
X132414300Y-97606198D01*
X132576198Y-97444300D01*
X132606421Y-97401138D01*
X132664040Y-97318849D01*
X132707523Y-97256749D01*
X132709846Y-97251767D01*
X132709849Y-97251762D01*
X132766161Y-97131000D01*
X132813079Y-97077715D01*
X132881356Y-97058254D01*
X132949316Y-97078796D01*
G37*
%TD.AperFunction*%
%TA.AperFunction,NonConductor*%
G36*
X132653979Y-100010685D02*
G01*
X132699042Y-100039646D01*
X133316943Y-100657547D01*
X133324487Y-100665837D01*
X133328600Y-100672318D01*
X133334377Y-100677743D01*
X133378267Y-100718958D01*
X133381109Y-100721713D01*
X133400831Y-100741435D01*
X133403955Y-100743858D01*
X133403959Y-100743862D01*
X133404024Y-100743912D01*
X133413045Y-100751617D01*
X133445279Y-100781886D01*
X133452227Y-100785705D01*
X133452229Y-100785707D01*
X133463032Y-100791646D01*
X133479559Y-100802502D01*
X133489298Y-100810057D01*
X133489300Y-100810058D01*
X133495560Y-100814914D01*
X133536140Y-100832474D01*
X133546788Y-100837691D01*
X133585540Y-100858995D01*
X133593216Y-100860966D01*
X133593219Y-100860967D01*
X133605162Y-100864033D01*
X133623867Y-100870437D01*
X133642455Y-100878481D01*
X133650278Y-100879720D01*
X133650288Y-100879723D01*
X133686124Y-100885399D01*
X133697744Y-100887805D01*
X133732889Y-100896828D01*
X133740570Y-100898800D01*
X133760824Y-100898800D01*
X133780534Y-100900351D01*
X133800543Y-100903520D01*
X133808435Y-100902774D01*
X133844561Y-100899359D01*
X133856419Y-100898800D01*
X145532729Y-100898800D01*
X145600850Y-100918802D01*
X145647343Y-100972458D01*
X145657447Y-101042732D01*
X145646924Y-101078050D01*
X145575716Y-101230757D01*
X145574294Y-101236065D01*
X145574293Y-101236067D01*
X145517881Y-101446598D01*
X145516457Y-101451913D01*
X145496502Y-101680000D01*
X145516457Y-101908087D01*
X145517881Y-101913400D01*
X145517881Y-101913402D01*
X145544619Y-102013189D01*
X145542929Y-102084165D01*
X145503135Y-102142961D01*
X145437871Y-102170909D01*
X145422912Y-102171800D01*
X134135195Y-102171800D01*
X134067074Y-102151798D01*
X134046099Y-102134895D01*
X133198947Y-101287742D01*
X133191413Y-101279463D01*
X133187300Y-101272982D01*
X133137648Y-101226356D01*
X133134807Y-101223602D01*
X133115070Y-101203865D01*
X133111873Y-101201385D01*
X133102851Y-101193680D01*
X133076400Y-101168841D01*
X133070621Y-101163414D01*
X133063675Y-101159595D01*
X133063672Y-101159593D01*
X133052866Y-101153652D01*
X133036347Y-101142801D01*
X133035883Y-101142441D01*
X133020341Y-101130386D01*
X133013072Y-101127241D01*
X133013068Y-101127238D01*
X132979763Y-101112826D01*
X132969113Y-101107609D01*
X132930360Y-101086305D01*
X132910737Y-101081267D01*
X132892034Y-101074863D01*
X132880720Y-101069967D01*
X132880719Y-101069967D01*
X132873445Y-101066819D01*
X132865622Y-101065580D01*
X132865612Y-101065577D01*
X132829776Y-101059901D01*
X132818156Y-101057495D01*
X132783011Y-101048472D01*
X132783010Y-101048472D01*
X132775330Y-101046500D01*
X132772777Y-101046500D01*
X132709892Y-101019075D01*
X132687545Y-100994720D01*
X132579357Y-100840211D01*
X132579355Y-100840208D01*
X132576198Y-100835700D01*
X132414300Y-100673802D01*
X132409792Y-100670645D01*
X132409789Y-100670643D01*
X132326738Y-100612490D01*
X132226749Y-100542477D01*
X132221767Y-100540154D01*
X132221762Y-100540151D01*
X132187543Y-100524195D01*
X132134258Y-100477278D01*
X132114797Y-100409001D01*
X132135339Y-100341041D01*
X132187543Y-100295805D01*
X132221762Y-100279849D01*
X132221767Y-100279846D01*
X132226749Y-100277523D01*
X132331611Y-100204098D01*
X132409789Y-100149357D01*
X132409792Y-100149355D01*
X132414300Y-100146198D01*
X132520852Y-100039646D01*
X132583164Y-100005620D01*
X132653979Y-100010685D01*
G37*
%TD.AperFunction*%
%TA.AperFunction,NonConductor*%
G36*
X153090827Y-100918802D02*
G01*
X153111801Y-100935705D01*
X162251073Y-110074977D01*
X162285099Y-110137289D01*
X162280034Y-110208104D01*
X162237487Y-110264940D01*
X162220174Y-110275826D01*
X162103607Y-110336507D01*
X162099474Y-110339610D01*
X162099471Y-110339612D01*
X162079512Y-110354598D01*
X161997305Y-110416321D01*
X161930823Y-110441226D01*
X161861427Y-110426234D01*
X161832559Y-110404655D01*
X153840952Y-102413047D01*
X153833412Y-102404761D01*
X153829300Y-102398282D01*
X153779648Y-102351656D01*
X153776807Y-102348902D01*
X153757070Y-102329165D01*
X153753873Y-102326685D01*
X153744851Y-102318980D01*
X153718400Y-102294141D01*
X153712621Y-102288714D01*
X153705675Y-102284895D01*
X153705672Y-102284893D01*
X153694866Y-102278952D01*
X153678347Y-102268101D01*
X153677883Y-102267741D01*
X153662341Y-102255686D01*
X153655072Y-102252541D01*
X153655068Y-102252538D01*
X153621763Y-102238126D01*
X153611113Y-102232909D01*
X153572360Y-102211605D01*
X153552737Y-102206567D01*
X153534034Y-102200163D01*
X153522720Y-102195267D01*
X153522719Y-102195267D01*
X153515445Y-102192119D01*
X153507622Y-102190880D01*
X153507612Y-102190877D01*
X153471776Y-102185201D01*
X153460156Y-102182795D01*
X153425011Y-102173772D01*
X153425010Y-102173772D01*
X153417330Y-102171800D01*
X153397076Y-102171800D01*
X153377365Y-102170249D01*
X153365186Y-102168320D01*
X153357357Y-102167080D01*
X153349465Y-102167826D01*
X153313339Y-102171241D01*
X153301481Y-102171800D01*
X148197088Y-102171800D01*
X148128967Y-102151798D01*
X148082474Y-102098142D01*
X148072370Y-102027868D01*
X148075381Y-102013189D01*
X148102119Y-101913402D01*
X148102119Y-101913400D01*
X148103543Y-101908087D01*
X148123498Y-101680000D01*
X148103543Y-101451913D01*
X148102119Y-101446598D01*
X148045707Y-101236067D01*
X148045706Y-101236065D01*
X148044284Y-101230757D01*
X147973076Y-101078050D01*
X147962415Y-101007858D01*
X147991395Y-100943045D01*
X148050815Y-100904189D01*
X148087271Y-100898800D01*
X153022706Y-100898800D01*
X153090827Y-100918802D01*
G37*
%TD.AperFunction*%
%TA.AperFunction,NonConductor*%
G36*
X165691238Y-92708278D02*
G01*
X165707826Y-92722230D01*
X169779595Y-96793999D01*
X169813621Y-96856311D01*
X169816500Y-96883094D01*
X169816500Y-110005500D01*
X169796498Y-110073621D01*
X169742842Y-110120114D01*
X169690500Y-110131500D01*
X169551866Y-110131500D01*
X169489684Y-110138255D01*
X169353295Y-110189385D01*
X169236739Y-110276739D01*
X169149385Y-110393295D01*
X169146233Y-110401703D01*
X169104919Y-110511907D01*
X169062277Y-110568671D01*
X168995716Y-110593371D01*
X168926367Y-110578163D01*
X168893743Y-110552476D01*
X168843151Y-110496875D01*
X168843142Y-110496866D01*
X168839670Y-110493051D01*
X168835619Y-110489852D01*
X168835615Y-110489848D01*
X168668414Y-110357800D01*
X168668410Y-110357798D01*
X168664359Y-110354598D01*
X168468789Y-110246638D01*
X168463920Y-110244914D01*
X168463916Y-110244912D01*
X168263087Y-110173795D01*
X168263083Y-110173794D01*
X168258212Y-110172069D01*
X168253119Y-110171162D01*
X168253116Y-110171161D01*
X168043373Y-110133800D01*
X168043367Y-110133799D01*
X168038284Y-110132894D01*
X167964452Y-110131992D01*
X167820081Y-110130228D01*
X167820079Y-110130228D01*
X167814911Y-110130165D01*
X167594091Y-110163955D01*
X167381756Y-110233357D01*
X167351443Y-110249137D01*
X167235762Y-110309357D01*
X167183607Y-110336507D01*
X167179474Y-110339610D01*
X167179471Y-110339612D01*
X167009100Y-110467530D01*
X167004965Y-110470635D01*
X166975908Y-110501041D01*
X166910010Y-110570000D01*
X166850629Y-110632138D01*
X166743201Y-110789621D01*
X166688293Y-110834621D01*
X166617768Y-110842792D01*
X166554021Y-110811538D01*
X166533324Y-110787054D01*
X166452822Y-110662617D01*
X166452820Y-110662614D01*
X166450014Y-110658277D01*
X166299670Y-110493051D01*
X166295619Y-110489852D01*
X166295615Y-110489848D01*
X166128414Y-110357800D01*
X166128410Y-110357798D01*
X166124359Y-110354598D01*
X165928789Y-110246638D01*
X165923920Y-110244914D01*
X165923916Y-110244912D01*
X165723087Y-110173795D01*
X165723083Y-110173794D01*
X165718212Y-110172069D01*
X165713119Y-110171162D01*
X165713116Y-110171161D01*
X165503373Y-110133800D01*
X165503367Y-110133799D01*
X165498284Y-110132894D01*
X165424452Y-110131992D01*
X165280081Y-110130228D01*
X165280079Y-110130228D01*
X165274911Y-110130165D01*
X165054091Y-110163955D01*
X164841756Y-110233357D01*
X164811443Y-110249137D01*
X164695762Y-110309357D01*
X164643607Y-110336507D01*
X164639474Y-110339610D01*
X164639471Y-110339612D01*
X164537307Y-110416319D01*
X164470822Y-110441225D01*
X164401426Y-110426233D01*
X164372559Y-110404654D01*
X153840952Y-99873047D01*
X153833412Y-99864761D01*
X153829300Y-99858282D01*
X153779648Y-99811656D01*
X153776807Y-99808902D01*
X153757070Y-99789165D01*
X153753873Y-99786685D01*
X153744851Y-99778980D01*
X153718400Y-99754141D01*
X153712621Y-99748714D01*
X153705675Y-99744895D01*
X153705672Y-99744893D01*
X153694866Y-99738952D01*
X153678347Y-99728101D01*
X153673413Y-99724274D01*
X153662341Y-99715686D01*
X153655072Y-99712541D01*
X153655068Y-99712538D01*
X153621763Y-99698126D01*
X153611113Y-99692909D01*
X153572360Y-99671605D01*
X153564205Y-99669511D01*
X153552738Y-99666567D01*
X153534034Y-99660163D01*
X153522720Y-99655267D01*
X153522719Y-99655267D01*
X153515445Y-99652119D01*
X153507622Y-99650880D01*
X153507612Y-99650877D01*
X153471776Y-99645201D01*
X153460156Y-99642795D01*
X153425011Y-99633772D01*
X153425010Y-99633772D01*
X153417330Y-99631800D01*
X153397076Y-99631800D01*
X153377365Y-99630249D01*
X153365186Y-99628320D01*
X153357357Y-99627080D01*
X153349465Y-99627826D01*
X153313339Y-99631241D01*
X153301481Y-99631800D01*
X148197088Y-99631800D01*
X148128967Y-99611798D01*
X148082474Y-99558142D01*
X148072370Y-99487868D01*
X148075381Y-99473189D01*
X148102119Y-99373402D01*
X148102119Y-99373400D01*
X148103543Y-99368087D01*
X148123498Y-99140000D01*
X148103543Y-98911913D01*
X148059089Y-98746010D01*
X148060779Y-98675035D01*
X148100573Y-98616239D01*
X148165837Y-98588291D01*
X148180796Y-98587400D01*
X159729306Y-98587400D01*
X159797427Y-98607402D01*
X159818401Y-98624305D01*
X162669595Y-101475500D01*
X162703621Y-101537812D01*
X162706500Y-101564595D01*
X162706500Y-102750400D01*
X162706837Y-102753646D01*
X162706837Y-102753650D01*
X162713706Y-102819849D01*
X162717474Y-102856166D01*
X162773450Y-103023946D01*
X162866522Y-103174348D01*
X162991697Y-103299305D01*
X162997927Y-103303145D01*
X162997928Y-103303146D01*
X163135090Y-103387694D01*
X163142262Y-103392115D01*
X163212263Y-103415333D01*
X163303611Y-103445632D01*
X163303613Y-103445632D01*
X163310139Y-103447797D01*
X163316975Y-103448497D01*
X163316978Y-103448498D01*
X163360031Y-103452909D01*
X163414600Y-103458500D01*
X164965400Y-103458500D01*
X164968646Y-103458163D01*
X164968650Y-103458163D01*
X165064308Y-103448238D01*
X165064312Y-103448237D01*
X165071166Y-103447526D01*
X165077702Y-103445345D01*
X165077704Y-103445345D01*
X165216631Y-103398995D01*
X165238946Y-103391550D01*
X165389348Y-103298478D01*
X165514305Y-103173303D01*
X165571725Y-103080151D01*
X165603275Y-103028968D01*
X165603276Y-103028966D01*
X165607115Y-103022738D01*
X165662797Y-102854861D01*
X165664750Y-102835805D01*
X165673172Y-102753598D01*
X165673500Y-102750400D01*
X165673500Y-101449600D01*
X165662526Y-101343834D01*
X165606550Y-101176054D01*
X165513478Y-101025652D01*
X165388303Y-100900695D01*
X165363489Y-100885399D01*
X165328826Y-100864033D01*
X165242660Y-100810919D01*
X165195168Y-100758148D01*
X165183744Y-100688076D01*
X165212018Y-100622952D01*
X165221805Y-100612490D01*
X165268385Y-100568054D01*
X165336135Y-100503424D01*
X165473754Y-100318458D01*
X165485272Y-100295805D01*
X165561335Y-100146198D01*
X165578240Y-100112949D01*
X165601002Y-100039646D01*
X165645024Y-99897871D01*
X165646607Y-99892773D01*
X165667627Y-99734179D01*
X165676198Y-99669511D01*
X165676198Y-99669506D01*
X165676898Y-99664226D01*
X165676444Y-99652119D01*
X165668449Y-99439173D01*
X165668249Y-99433842D01*
X165620907Y-99208209D01*
X165536224Y-98993779D01*
X165486547Y-98911913D01*
X165419390Y-98801243D01*
X165416623Y-98796683D01*
X165405986Y-98784425D01*
X165376446Y-98719866D01*
X165386500Y-98649585D01*
X165412056Y-98612749D01*
X165891753Y-98133052D01*
X165900039Y-98125512D01*
X165906518Y-98121400D01*
X165953144Y-98071748D01*
X165955898Y-98068907D01*
X165975635Y-98049170D01*
X165978115Y-98045973D01*
X165985820Y-98036951D01*
X166010659Y-98010500D01*
X166016086Y-98004721D01*
X166019905Y-97997775D01*
X166019907Y-97997772D01*
X166025848Y-97986966D01*
X166036699Y-97970447D01*
X166044258Y-97960701D01*
X166049114Y-97954441D01*
X166052259Y-97947172D01*
X166052262Y-97947168D01*
X166066674Y-97913863D01*
X166071891Y-97903213D01*
X166093195Y-97864460D01*
X166098233Y-97844837D01*
X166104637Y-97826134D01*
X166109533Y-97814820D01*
X166109533Y-97814819D01*
X166112681Y-97807545D01*
X166113920Y-97799722D01*
X166113923Y-97799712D01*
X166119599Y-97763876D01*
X166122005Y-97752256D01*
X166131028Y-97717111D01*
X166131028Y-97717110D01*
X166133000Y-97709430D01*
X166133000Y-97689176D01*
X166134551Y-97669465D01*
X166136480Y-97657286D01*
X166137720Y-97649457D01*
X166133559Y-97605438D01*
X166133000Y-97593581D01*
X166133000Y-94185667D01*
X166133527Y-94174484D01*
X166135202Y-94166991D01*
X166133959Y-94127432D01*
X166133062Y-94098914D01*
X166133000Y-94094955D01*
X166133000Y-94067044D01*
X166132495Y-94063044D01*
X166131562Y-94051201D01*
X166130422Y-94014929D01*
X166130173Y-94007010D01*
X166124522Y-93987558D01*
X166120514Y-93968206D01*
X166118967Y-93955963D01*
X166117974Y-93948103D01*
X166114718Y-93939879D01*
X166101700Y-93906997D01*
X166097855Y-93895770D01*
X166090486Y-93870407D01*
X166085518Y-93853307D01*
X166081484Y-93846485D01*
X166081481Y-93846479D01*
X166075206Y-93835868D01*
X166066510Y-93818118D01*
X166061972Y-93806656D01*
X166061969Y-93806651D01*
X166059052Y-93799283D01*
X166033073Y-93763525D01*
X166026557Y-93753607D01*
X166008075Y-93722357D01*
X166004042Y-93715537D01*
X165989718Y-93701213D01*
X165976876Y-93686178D01*
X165964972Y-93669793D01*
X165930906Y-93641611D01*
X165922127Y-93633622D01*
X165394249Y-93105744D01*
X165360223Y-93043432D01*
X165365288Y-92972617D01*
X165382254Y-92941439D01*
X165473754Y-92818458D01*
X165506414Y-92754221D01*
X165555117Y-92702563D01*
X165624017Y-92685436D01*
X165691238Y-92708278D01*
G37*
%TD.AperFunction*%
%TA.AperFunction,NonConductor*%
G36*
X172213621Y-72068502D02*
G01*
X172260114Y-72122158D01*
X172271500Y-72174500D01*
X172271500Y-120615500D01*
X172251498Y-120683621D01*
X172197842Y-120730114D01*
X172145500Y-120741500D01*
X129754500Y-120741500D01*
X129686379Y-120721498D01*
X129639886Y-120667842D01*
X129628500Y-120615500D01*
X129628500Y-94930755D01*
X129648502Y-94862634D01*
X129702158Y-94816141D01*
X129772432Y-94806037D01*
X129837012Y-94835531D01*
X129862951Y-94866612D01*
X129868992Y-94876826D01*
X129877688Y-94894576D01*
X129885148Y-94913417D01*
X129889810Y-94919833D01*
X129889810Y-94919834D01*
X129911136Y-94949187D01*
X129917652Y-94959107D01*
X129940158Y-94997162D01*
X129954479Y-95011483D01*
X129967319Y-95026516D01*
X129979228Y-95042907D01*
X129985334Y-95047958D01*
X130013305Y-95071098D01*
X130022084Y-95079088D01*
X130544596Y-95601600D01*
X130578622Y-95663912D01*
X130573557Y-95734727D01*
X130558714Y-95762966D01*
X130435634Y-95938742D01*
X130432477Y-95943251D01*
X130430154Y-95948233D01*
X130430151Y-95948238D01*
X130338039Y-96145775D01*
X130335716Y-96150757D01*
X130334294Y-96156065D01*
X130334293Y-96156067D01*
X130291732Y-96314906D01*
X130276457Y-96371913D01*
X130256502Y-96600000D01*
X130276457Y-96828087D01*
X130277881Y-96833400D01*
X130277881Y-96833402D01*
X130284020Y-96856311D01*
X130335716Y-97049243D01*
X130338039Y-97054224D01*
X130338039Y-97054225D01*
X130430151Y-97251762D01*
X130430154Y-97251767D01*
X130432477Y-97256749D01*
X130475960Y-97318849D01*
X130533580Y-97401138D01*
X130563802Y-97444300D01*
X130725700Y-97606198D01*
X130730208Y-97609355D01*
X130730211Y-97609357D01*
X130776209Y-97641565D01*
X130913251Y-97737523D01*
X130918233Y-97739846D01*
X130918238Y-97739849D01*
X130952457Y-97755805D01*
X131005742Y-97802722D01*
X131025203Y-97870999D01*
X131004661Y-97938959D01*
X130952457Y-97984195D01*
X130918238Y-98000151D01*
X130918233Y-98000154D01*
X130913251Y-98002477D01*
X130857835Y-98041280D01*
X130730211Y-98130643D01*
X130730208Y-98130645D01*
X130725700Y-98133802D01*
X130563802Y-98295700D01*
X130560645Y-98300208D01*
X130560643Y-98300211D01*
X130522327Y-98354932D01*
X130432477Y-98483251D01*
X130430154Y-98488233D01*
X130430151Y-98488238D01*
X130349565Y-98661058D01*
X130335716Y-98690757D01*
X130334294Y-98696065D01*
X130334293Y-98696067D01*
X130308413Y-98792653D01*
X130276457Y-98911913D01*
X130256502Y-99140000D01*
X130276457Y-99368087D01*
X130277881Y-99373400D01*
X130277881Y-99373402D01*
X130324370Y-99546898D01*
X130335716Y-99589243D01*
X130338039Y-99594224D01*
X130338039Y-99594225D01*
X130430151Y-99791762D01*
X130430154Y-99791767D01*
X130432477Y-99796749D01*
X130481529Y-99866802D01*
X130536004Y-99944600D01*
X130563802Y-99984300D01*
X130725700Y-100146198D01*
X130730208Y-100149355D01*
X130730211Y-100149357D01*
X130808389Y-100204098D01*
X130913251Y-100277523D01*
X130918233Y-100279846D01*
X130918238Y-100279849D01*
X130952457Y-100295805D01*
X131005742Y-100342722D01*
X131025203Y-100410999D01*
X131004661Y-100478959D01*
X130952457Y-100524195D01*
X130918238Y-100540151D01*
X130918233Y-100540154D01*
X130913251Y-100542477D01*
X130813262Y-100612490D01*
X130730211Y-100670643D01*
X130730208Y-100670645D01*
X130725700Y-100673802D01*
X130563802Y-100835700D01*
X130560645Y-100840208D01*
X130560643Y-100840211D01*
X130520981Y-100896854D01*
X130432477Y-101023251D01*
X130430154Y-101028233D01*
X130430151Y-101028238D01*
X130349409Y-101201392D01*
X130335716Y-101230757D01*
X130334294Y-101236065D01*
X130334293Y-101236067D01*
X130277881Y-101446598D01*
X130276457Y-101451913D01*
X130256502Y-101680000D01*
X130276457Y-101908087D01*
X130335716Y-102129243D01*
X130338039Y-102134224D01*
X130338039Y-102134225D01*
X130430151Y-102331762D01*
X130430154Y-102331767D01*
X130432477Y-102336749D01*
X130481529Y-102406802D01*
X130536004Y-102484600D01*
X130563802Y-102524300D01*
X130725700Y-102686198D01*
X130730208Y-102689355D01*
X130730211Y-102689357D01*
X130808389Y-102744098D01*
X130913251Y-102817523D01*
X130918233Y-102819846D01*
X130918238Y-102819849D01*
X130952457Y-102835805D01*
X131005742Y-102882722D01*
X131025203Y-102950999D01*
X131004661Y-103018959D01*
X130952457Y-103064195D01*
X130918238Y-103080151D01*
X130918233Y-103080154D01*
X130913251Y-103082477D01*
X130808389Y-103155902D01*
X130730211Y-103210643D01*
X130730208Y-103210645D01*
X130725700Y-103213802D01*
X130563802Y-103375700D01*
X130560645Y-103380208D01*
X130560643Y-103380211D01*
X130519619Y-103438800D01*
X130432477Y-103563251D01*
X130430154Y-103568233D01*
X130430151Y-103568238D01*
X130406924Y-103618050D01*
X130335716Y-103770757D01*
X130276457Y-103991913D01*
X130256502Y-104220000D01*
X130276457Y-104448087D01*
X130335716Y-104669243D01*
X130338039Y-104674224D01*
X130338039Y-104674225D01*
X130430151Y-104871762D01*
X130430154Y-104871767D01*
X130432477Y-104876749D01*
X130563802Y-105064300D01*
X130725700Y-105226198D01*
X130730208Y-105229355D01*
X130730211Y-105229357D01*
X130808389Y-105284098D01*
X130913251Y-105357523D01*
X130918233Y-105359846D01*
X130918238Y-105359849D01*
X130952457Y-105375805D01*
X131005742Y-105422722D01*
X131025203Y-105490999D01*
X131004661Y-105558959D01*
X130952457Y-105604195D01*
X130918238Y-105620151D01*
X130918233Y-105620154D01*
X130913251Y-105622477D01*
X130808389Y-105695902D01*
X130730211Y-105750643D01*
X130730208Y-105750645D01*
X130725700Y-105753802D01*
X130563802Y-105915700D01*
X130432477Y-106103251D01*
X130430154Y-106108233D01*
X130430151Y-106108238D01*
X130338039Y-106305775D01*
X130335716Y-106310757D01*
X130276457Y-106531913D01*
X130256502Y-106760000D01*
X130276457Y-106988087D01*
X130335716Y-107209243D01*
X130338039Y-107214224D01*
X130338039Y-107214225D01*
X130430151Y-107411762D01*
X130430154Y-107411767D01*
X130432477Y-107416749D01*
X130563802Y-107604300D01*
X130725700Y-107766198D01*
X130730208Y-107769355D01*
X130730211Y-107769357D01*
X130808389Y-107824098D01*
X130913251Y-107897523D01*
X130918233Y-107899846D01*
X130918238Y-107899849D01*
X130952457Y-107915805D01*
X131005742Y-107962722D01*
X131025203Y-108030999D01*
X131004661Y-108098959D01*
X130952457Y-108144195D01*
X130918238Y-108160151D01*
X130918233Y-108160154D01*
X130913251Y-108162477D01*
X130808389Y-108235902D01*
X130730211Y-108290643D01*
X130730208Y-108290645D01*
X130725700Y-108293802D01*
X130563802Y-108455700D01*
X130432477Y-108643251D01*
X130430154Y-108648233D01*
X130430151Y-108648238D01*
X130338039Y-108845775D01*
X130335716Y-108850757D01*
X130276457Y-109071913D01*
X130256502Y-109300000D01*
X130276457Y-109528087D01*
X130335716Y-109749243D01*
X130338039Y-109754224D01*
X130338039Y-109754225D01*
X130430151Y-109951762D01*
X130430154Y-109951767D01*
X130432477Y-109956749D01*
X130435634Y-109961257D01*
X130558893Y-110137289D01*
X130563802Y-110144300D01*
X130725700Y-110306198D01*
X130730208Y-110309355D01*
X130730211Y-110309357D01*
X130773420Y-110339612D01*
X130913251Y-110437523D01*
X130918233Y-110439846D01*
X130918238Y-110439849D01*
X130952457Y-110455805D01*
X131005742Y-110502722D01*
X131025203Y-110570999D01*
X131004661Y-110638959D01*
X130952457Y-110684195D01*
X130918238Y-110700151D01*
X130918233Y-110700154D01*
X130913251Y-110702477D01*
X130808389Y-110775902D01*
X130730211Y-110830643D01*
X130730208Y-110830645D01*
X130725700Y-110833802D01*
X130563802Y-110995700D01*
X130560645Y-111000208D01*
X130560643Y-111000211D01*
X130543778Y-111024297D01*
X130432477Y-111183251D01*
X130430154Y-111188233D01*
X130430151Y-111188238D01*
X130406151Y-111239707D01*
X130335716Y-111390757D01*
X130276457Y-111611913D01*
X130256502Y-111840000D01*
X130276457Y-112068087D01*
X130277881Y-112073400D01*
X130277881Y-112073402D01*
X130302607Y-112165678D01*
X130335716Y-112289243D01*
X130338039Y-112294224D01*
X130338039Y-112294225D01*
X130430151Y-112491762D01*
X130430154Y-112491767D01*
X130432477Y-112496749D01*
X130489578Y-112578297D01*
X130549009Y-112663173D01*
X130563802Y-112684300D01*
X130725700Y-112846198D01*
X130730208Y-112849355D01*
X130730211Y-112849357D01*
X130744711Y-112859510D01*
X130913251Y-112977523D01*
X130918233Y-112979846D01*
X130918238Y-112979849D01*
X130952457Y-112995805D01*
X131005742Y-113042722D01*
X131025203Y-113110999D01*
X131004661Y-113178959D01*
X130952457Y-113224195D01*
X130918238Y-113240151D01*
X130918233Y-113240154D01*
X130913251Y-113242477D01*
X130808389Y-113315902D01*
X130730211Y-113370643D01*
X130730208Y-113370645D01*
X130725700Y-113373802D01*
X130563802Y-113535700D01*
X130432477Y-113723251D01*
X130430154Y-113728233D01*
X130430151Y-113728238D01*
X130338039Y-113925775D01*
X130335716Y-113930757D01*
X130276457Y-114151913D01*
X130256502Y-114380000D01*
X130276457Y-114608087D01*
X130335716Y-114829243D01*
X130338039Y-114834224D01*
X130338039Y-114834225D01*
X130430151Y-115031762D01*
X130430154Y-115031767D01*
X130432477Y-115036749D01*
X130563802Y-115224300D01*
X130725700Y-115386198D01*
X130730208Y-115389355D01*
X130730211Y-115389357D01*
X130771542Y-115418297D01*
X130913251Y-115517523D01*
X130918233Y-115519846D01*
X130918238Y-115519849D01*
X131115775Y-115611961D01*
X131120757Y-115614284D01*
X131126065Y-115615706D01*
X131126067Y-115615707D01*
X131336598Y-115672119D01*
X131336600Y-115672119D01*
X131341913Y-115673543D01*
X131570000Y-115693498D01*
X131798087Y-115673543D01*
X131803400Y-115672119D01*
X131803402Y-115672119D01*
X132013933Y-115615707D01*
X132013935Y-115615706D01*
X132019243Y-115614284D01*
X132024225Y-115611961D01*
X132221762Y-115519849D01*
X132221767Y-115519846D01*
X132226749Y-115517523D01*
X132368458Y-115418297D01*
X132409789Y-115389357D01*
X132409792Y-115389355D01*
X132414300Y-115386198D01*
X132576198Y-115224300D01*
X132707523Y-115036749D01*
X132709846Y-115031767D01*
X132709849Y-115031762D01*
X132801961Y-114834225D01*
X132801961Y-114834224D01*
X132804284Y-114829243D01*
X132863543Y-114608087D01*
X132883498Y-114380000D01*
X132863543Y-114151913D01*
X132804284Y-113930757D01*
X132801961Y-113925775D01*
X132709849Y-113728238D01*
X132709846Y-113728233D01*
X132707523Y-113723251D01*
X132576198Y-113535700D01*
X132414300Y-113373802D01*
X132409792Y-113370645D01*
X132409789Y-113370643D01*
X132331611Y-113315902D01*
X132226749Y-113242477D01*
X132221767Y-113240154D01*
X132221762Y-113240151D01*
X132187543Y-113224195D01*
X132134258Y-113177278D01*
X132114797Y-113109001D01*
X132135339Y-113041041D01*
X132187543Y-112995805D01*
X132221762Y-112979849D01*
X132221767Y-112979846D01*
X132226749Y-112977523D01*
X132395289Y-112859510D01*
X132409789Y-112849357D01*
X132409792Y-112849355D01*
X132414300Y-112846198D01*
X132576198Y-112684300D01*
X132590992Y-112663173D01*
X132650422Y-112578297D01*
X132707523Y-112496749D01*
X132709846Y-112491767D01*
X132709849Y-112491762D01*
X132801961Y-112294225D01*
X132801961Y-112294224D01*
X132804284Y-112289243D01*
X132837394Y-112165678D01*
X132862119Y-112073402D01*
X132862119Y-112073400D01*
X132863543Y-112068087D01*
X132883498Y-111840000D01*
X132863543Y-111611913D01*
X132804284Y-111390757D01*
X132733849Y-111239707D01*
X132709849Y-111188238D01*
X132709846Y-111188233D01*
X132707523Y-111183251D01*
X132596222Y-111024297D01*
X132579357Y-111000211D01*
X132579355Y-111000208D01*
X132576198Y-110995700D01*
X132414300Y-110833802D01*
X132409792Y-110830645D01*
X132409789Y-110830643D01*
X132331611Y-110775902D01*
X132226749Y-110702477D01*
X132221767Y-110700154D01*
X132221762Y-110700151D01*
X132187543Y-110684195D01*
X132134258Y-110637278D01*
X132114797Y-110569001D01*
X132135339Y-110501041D01*
X132187543Y-110455805D01*
X132221762Y-110439849D01*
X132221767Y-110439846D01*
X132226749Y-110437523D01*
X132366580Y-110339612D01*
X132409789Y-110309357D01*
X132409792Y-110309355D01*
X132414300Y-110306198D01*
X132576198Y-110144300D01*
X132581108Y-110137289D01*
X132704366Y-109961257D01*
X132707523Y-109956749D01*
X132709846Y-109951767D01*
X132709849Y-109951762D01*
X132801961Y-109754225D01*
X132801961Y-109754224D01*
X132804284Y-109749243D01*
X132863543Y-109528087D01*
X132883498Y-109300000D01*
X132863543Y-109071913D01*
X132804284Y-108850757D01*
X132801961Y-108845775D01*
X132709849Y-108648238D01*
X132709846Y-108648233D01*
X132707523Y-108643251D01*
X132576198Y-108455700D01*
X132414300Y-108293802D01*
X132409792Y-108290645D01*
X132409789Y-108290643D01*
X132331611Y-108235902D01*
X132226749Y-108162477D01*
X132221767Y-108160154D01*
X132221762Y-108160151D01*
X132187543Y-108144195D01*
X132134258Y-108097278D01*
X132114797Y-108029001D01*
X132135339Y-107961041D01*
X132187543Y-107915805D01*
X132221762Y-107899849D01*
X132221767Y-107899846D01*
X132226749Y-107897523D01*
X132331611Y-107824098D01*
X132409789Y-107769357D01*
X132409792Y-107769355D01*
X132414300Y-107766198D01*
X132576198Y-107604300D01*
X132707523Y-107416749D01*
X132709846Y-107411767D01*
X132709849Y-107411762D01*
X132801961Y-107214225D01*
X132801961Y-107214224D01*
X132804284Y-107209243D01*
X132863543Y-106988087D01*
X132883498Y-106760000D01*
X132863543Y-106531913D01*
X132804284Y-106310757D01*
X132801961Y-106305775D01*
X132709849Y-106108238D01*
X132709846Y-106108233D01*
X132707523Y-106103251D01*
X132576198Y-105915700D01*
X132414300Y-105753802D01*
X132409792Y-105750645D01*
X132409789Y-105750643D01*
X132331611Y-105695902D01*
X132226749Y-105622477D01*
X132221767Y-105620154D01*
X132221762Y-105620151D01*
X132187543Y-105604195D01*
X132134258Y-105557278D01*
X132114797Y-105489001D01*
X132135339Y-105421041D01*
X132187543Y-105375805D01*
X132221762Y-105359849D01*
X132221767Y-105359846D01*
X132226749Y-105357523D01*
X132331611Y-105284098D01*
X132409789Y-105229357D01*
X132409792Y-105229355D01*
X132414300Y-105226198D01*
X132576198Y-105064300D01*
X132707523Y-104876749D01*
X132709846Y-104871767D01*
X132709849Y-104871762D01*
X132801961Y-104674225D01*
X132801961Y-104674224D01*
X132804284Y-104669243D01*
X132863543Y-104448087D01*
X132883498Y-104220000D01*
X132863543Y-103991913D01*
X132804284Y-103770757D01*
X132733076Y-103618050D01*
X132709849Y-103568238D01*
X132709846Y-103568233D01*
X132707523Y-103563251D01*
X132620381Y-103438800D01*
X132579357Y-103380211D01*
X132579355Y-103380208D01*
X132576198Y-103375700D01*
X132414300Y-103213802D01*
X132409792Y-103210645D01*
X132409789Y-103210643D01*
X132331611Y-103155902D01*
X132226749Y-103082477D01*
X132221767Y-103080154D01*
X132221762Y-103080151D01*
X132187543Y-103064195D01*
X132134258Y-103017278D01*
X132114797Y-102949001D01*
X132135339Y-102881041D01*
X132187543Y-102835805D01*
X132221762Y-102819849D01*
X132221767Y-102819846D01*
X132226749Y-102817523D01*
X132331611Y-102744098D01*
X132409789Y-102689357D01*
X132409792Y-102689355D01*
X132414300Y-102686198D01*
X132520852Y-102579646D01*
X132583164Y-102545620D01*
X132653979Y-102550685D01*
X132699042Y-102579646D01*
X133316943Y-103197547D01*
X133324487Y-103205837D01*
X133328600Y-103212318D01*
X133334377Y-103217743D01*
X133378267Y-103258958D01*
X133381109Y-103261713D01*
X133400831Y-103281435D01*
X133403955Y-103283858D01*
X133403959Y-103283862D01*
X133404024Y-103283912D01*
X133413045Y-103291617D01*
X133445279Y-103321886D01*
X133452227Y-103325705D01*
X133452229Y-103325707D01*
X133463032Y-103331646D01*
X133479559Y-103342502D01*
X133489298Y-103350057D01*
X133489300Y-103350058D01*
X133495560Y-103354914D01*
X133536140Y-103372474D01*
X133546788Y-103377691D01*
X133571998Y-103391550D01*
X133585540Y-103398995D01*
X133593216Y-103400966D01*
X133593219Y-103400967D01*
X133605162Y-103404033D01*
X133623867Y-103410437D01*
X133642455Y-103418481D01*
X133650278Y-103419720D01*
X133650288Y-103419723D01*
X133686124Y-103425399D01*
X133697744Y-103427805D01*
X133732889Y-103436828D01*
X133740570Y-103438800D01*
X133760824Y-103438800D01*
X133780534Y-103440351D01*
X133800543Y-103443520D01*
X133808435Y-103442774D01*
X133844561Y-103439359D01*
X133856419Y-103438800D01*
X145532729Y-103438800D01*
X145600850Y-103458802D01*
X145647343Y-103512458D01*
X145657447Y-103582732D01*
X145646924Y-103618050D01*
X145575716Y-103770757D01*
X145516457Y-103991913D01*
X145496502Y-104220000D01*
X145516457Y-104448087D01*
X145575716Y-104669243D01*
X145578039Y-104674224D01*
X145578039Y-104674225D01*
X145670151Y-104871762D01*
X145670154Y-104871767D01*
X145672477Y-104876749D01*
X145803802Y-105064300D01*
X145965700Y-105226198D01*
X145970208Y-105229355D01*
X145970211Y-105229357D01*
X146048389Y-105284098D01*
X146153251Y-105357523D01*
X146158233Y-105359846D01*
X146158238Y-105359849D01*
X146192457Y-105375805D01*
X146245742Y-105422722D01*
X146265203Y-105490999D01*
X146244661Y-105558959D01*
X146192457Y-105604195D01*
X146158238Y-105620151D01*
X146158233Y-105620154D01*
X146153251Y-105622477D01*
X146048389Y-105695902D01*
X145970211Y-105750643D01*
X145970208Y-105750645D01*
X145965700Y-105753802D01*
X145803802Y-105915700D01*
X145672477Y-106103251D01*
X145670154Y-106108233D01*
X145670151Y-106108238D01*
X145578039Y-106305775D01*
X145575716Y-106310757D01*
X145516457Y-106531913D01*
X145496502Y-106760000D01*
X145516457Y-106988087D01*
X145575716Y-107209243D01*
X145578039Y-107214224D01*
X145578039Y-107214225D01*
X145670151Y-107411762D01*
X145670154Y-107411767D01*
X145672477Y-107416749D01*
X145803802Y-107604300D01*
X145965700Y-107766198D01*
X145970208Y-107769355D01*
X145970211Y-107769357D01*
X146048389Y-107824098D01*
X146153251Y-107897523D01*
X146158233Y-107899846D01*
X146158238Y-107899849D01*
X146192457Y-107915805D01*
X146245742Y-107962722D01*
X146265203Y-108030999D01*
X146244661Y-108098959D01*
X146192457Y-108144195D01*
X146158238Y-108160151D01*
X146158233Y-108160154D01*
X146153251Y-108162477D01*
X146048389Y-108235902D01*
X145970211Y-108290643D01*
X145970208Y-108290645D01*
X145965700Y-108293802D01*
X145803802Y-108455700D01*
X145672477Y-108643251D01*
X145670154Y-108648233D01*
X145670151Y-108648238D01*
X145578039Y-108845775D01*
X145575716Y-108850757D01*
X145516457Y-109071913D01*
X145496502Y-109300000D01*
X145516457Y-109528087D01*
X145575716Y-109749243D01*
X145578039Y-109754224D01*
X145578039Y-109754225D01*
X145670151Y-109951762D01*
X145670154Y-109951767D01*
X145672477Y-109956749D01*
X145675634Y-109961257D01*
X145798893Y-110137289D01*
X145803802Y-110144300D01*
X145965700Y-110306198D01*
X145970208Y-110309355D01*
X145970211Y-110309357D01*
X146013420Y-110339612D01*
X146153251Y-110437523D01*
X146158233Y-110439846D01*
X146158238Y-110439849D01*
X146192457Y-110455805D01*
X146245742Y-110502722D01*
X146265203Y-110570999D01*
X146244661Y-110638959D01*
X146192457Y-110684195D01*
X146158238Y-110700151D01*
X146158233Y-110700154D01*
X146153251Y-110702477D01*
X146048389Y-110775902D01*
X145970211Y-110830643D01*
X145970208Y-110830645D01*
X145965700Y-110833802D01*
X145803802Y-110995700D01*
X145800645Y-111000208D01*
X145800643Y-111000211D01*
X145783778Y-111024297D01*
X145672477Y-111183251D01*
X145670154Y-111188233D01*
X145670151Y-111188238D01*
X145646151Y-111239707D01*
X145575716Y-111390757D01*
X145516457Y-111611913D01*
X145496502Y-111840000D01*
X145516457Y-112068087D01*
X145517881Y-112073400D01*
X145517881Y-112073402D01*
X145542607Y-112165678D01*
X145575716Y-112289243D01*
X145578039Y-112294224D01*
X145578039Y-112294225D01*
X145670151Y-112491762D01*
X145670154Y-112491767D01*
X145672477Y-112496749D01*
X145729578Y-112578297D01*
X145789009Y-112663173D01*
X145803802Y-112684300D01*
X145965700Y-112846198D01*
X145970211Y-112849357D01*
X145974424Y-112852892D01*
X145973473Y-112854026D01*
X146013471Y-112904071D01*
X146020776Y-112974690D01*
X145988742Y-113038049D01*
X145927538Y-113074030D01*
X145910483Y-113077082D01*
X145899684Y-113078255D01*
X145763295Y-113129385D01*
X145646739Y-113216739D01*
X145559385Y-113333295D01*
X145508255Y-113469684D01*
X145501500Y-113531866D01*
X145501500Y-115228134D01*
X145508255Y-115290316D01*
X145559385Y-115426705D01*
X145646739Y-115543261D01*
X145763295Y-115630615D01*
X145899684Y-115681745D01*
X145961866Y-115688500D01*
X147658134Y-115688500D01*
X147720316Y-115681745D01*
X147856705Y-115630615D01*
X147973261Y-115543261D01*
X148060615Y-115426705D01*
X148111745Y-115290316D01*
X148118500Y-115228134D01*
X148118500Y-113531866D01*
X148111745Y-113469684D01*
X148060615Y-113333295D01*
X147973261Y-113216739D01*
X147856705Y-113129385D01*
X147720316Y-113078255D01*
X147709526Y-113077083D01*
X147707394Y-113076197D01*
X147704778Y-113075575D01*
X147704879Y-113075152D01*
X147643965Y-113049845D01*
X147603537Y-112991483D01*
X147601078Y-112920529D01*
X147637371Y-112859510D01*
X147646031Y-112852511D01*
X147649793Y-112849354D01*
X147654300Y-112846198D01*
X147816198Y-112684300D01*
X147830992Y-112663173D01*
X147890422Y-112578297D01*
X147947523Y-112496749D01*
X147949846Y-112491767D01*
X147949849Y-112491762D01*
X148041961Y-112294225D01*
X148041961Y-112294224D01*
X148044284Y-112289243D01*
X148077394Y-112165678D01*
X148102119Y-112073402D01*
X148102119Y-112073400D01*
X148103543Y-112068087D01*
X148123498Y-111840000D01*
X148103543Y-111611913D01*
X148044284Y-111390757D01*
X147973849Y-111239707D01*
X147949849Y-111188238D01*
X147949846Y-111188233D01*
X147947523Y-111183251D01*
X147836222Y-111024297D01*
X147819357Y-111000211D01*
X147819355Y-111000208D01*
X147816198Y-110995700D01*
X147654300Y-110833802D01*
X147649792Y-110830645D01*
X147649789Y-110830643D01*
X147571611Y-110775902D01*
X147466749Y-110702477D01*
X147461767Y-110700154D01*
X147461762Y-110700151D01*
X147427543Y-110684195D01*
X147374258Y-110637278D01*
X147354797Y-110569001D01*
X147375339Y-110501041D01*
X147427543Y-110455805D01*
X147461762Y-110439849D01*
X147461767Y-110439846D01*
X147466749Y-110437523D01*
X147606580Y-110339612D01*
X147649789Y-110309357D01*
X147649792Y-110309355D01*
X147654300Y-110306198D01*
X147816198Y-110144300D01*
X147821108Y-110137289D01*
X147944366Y-109961257D01*
X147947523Y-109956749D01*
X147949846Y-109951767D01*
X147949849Y-109951762D01*
X148041961Y-109754225D01*
X148041961Y-109754224D01*
X148044284Y-109749243D01*
X148103543Y-109528087D01*
X148123498Y-109300000D01*
X148103543Y-109071913D01*
X148044284Y-108850757D01*
X148041961Y-108845775D01*
X147949849Y-108648238D01*
X147949846Y-108648233D01*
X147947523Y-108643251D01*
X147816198Y-108455700D01*
X147654300Y-108293802D01*
X147649792Y-108290645D01*
X147649789Y-108290643D01*
X147571611Y-108235902D01*
X147466749Y-108162477D01*
X147461767Y-108160154D01*
X147461762Y-108160151D01*
X147427543Y-108144195D01*
X147374258Y-108097278D01*
X147354797Y-108029001D01*
X147375339Y-107961041D01*
X147427543Y-107915805D01*
X147461762Y-107899849D01*
X147461767Y-107899846D01*
X147466749Y-107897523D01*
X147571611Y-107824098D01*
X147649789Y-107769357D01*
X147649792Y-107769355D01*
X147654300Y-107766198D01*
X147816198Y-107604300D01*
X147947523Y-107416749D01*
X147949846Y-107411767D01*
X147949849Y-107411762D01*
X148041961Y-107214225D01*
X148041961Y-107214224D01*
X148044284Y-107209243D01*
X148103543Y-106988087D01*
X148123498Y-106760000D01*
X148103543Y-106531913D01*
X148044284Y-106310757D01*
X148041961Y-106305775D01*
X147949849Y-106108238D01*
X147949846Y-106108233D01*
X147947523Y-106103251D01*
X147816198Y-105915700D01*
X147654300Y-105753802D01*
X147649792Y-105750645D01*
X147649789Y-105750643D01*
X147571611Y-105695902D01*
X147466749Y-105622477D01*
X147461767Y-105620154D01*
X147461762Y-105620151D01*
X147427543Y-105604195D01*
X147374258Y-105557278D01*
X147354797Y-105489001D01*
X147375339Y-105421041D01*
X147427543Y-105375805D01*
X147461762Y-105359849D01*
X147461767Y-105359846D01*
X147466749Y-105357523D01*
X147571611Y-105284098D01*
X147649789Y-105229357D01*
X147649792Y-105229355D01*
X147654300Y-105226198D01*
X147816198Y-105064300D01*
X147947523Y-104876749D01*
X147949846Y-104871767D01*
X147949849Y-104871762D01*
X148041961Y-104674225D01*
X148041961Y-104674224D01*
X148044284Y-104669243D01*
X148103543Y-104448087D01*
X148123498Y-104220000D01*
X148103543Y-103991913D01*
X148044284Y-103770757D01*
X147973076Y-103618050D01*
X147962415Y-103547858D01*
X147991395Y-103483045D01*
X148050815Y-103444189D01*
X148087271Y-103438800D01*
X153022706Y-103438800D01*
X153090827Y-103458802D01*
X153111801Y-103475705D01*
X159711072Y-110074977D01*
X159745098Y-110137289D01*
X159740033Y-110208104D01*
X159697486Y-110264940D01*
X159680159Y-110275834D01*
X159563607Y-110336507D01*
X159559474Y-110339610D01*
X159559471Y-110339612D01*
X159389100Y-110467530D01*
X159384965Y-110470635D01*
X159355908Y-110501041D01*
X159290010Y-110570000D01*
X159230629Y-110632138D01*
X159123201Y-110789621D01*
X159068293Y-110834621D01*
X158997768Y-110842792D01*
X158934021Y-110811538D01*
X158913324Y-110787054D01*
X158832822Y-110662617D01*
X158832820Y-110662614D01*
X158830014Y-110658277D01*
X158679670Y-110493051D01*
X158675619Y-110489852D01*
X158675615Y-110489848D01*
X158508414Y-110357800D01*
X158508410Y-110357798D01*
X158504359Y-110354598D01*
X158308789Y-110246638D01*
X158303920Y-110244914D01*
X158303916Y-110244912D01*
X158103087Y-110173795D01*
X158103083Y-110173794D01*
X158098212Y-110172069D01*
X158093119Y-110171162D01*
X158093116Y-110171161D01*
X157883373Y-110133800D01*
X157883367Y-110133799D01*
X157878284Y-110132894D01*
X157804452Y-110131992D01*
X157660081Y-110130228D01*
X157660079Y-110130228D01*
X157654911Y-110130165D01*
X157434091Y-110163955D01*
X157221756Y-110233357D01*
X157191443Y-110249137D01*
X157075762Y-110309357D01*
X157023607Y-110336507D01*
X157019474Y-110339610D01*
X157019471Y-110339612D01*
X156849100Y-110467530D01*
X156844965Y-110470635D01*
X156815908Y-110501041D01*
X156750010Y-110570000D01*
X156690629Y-110632138D01*
X156583201Y-110789621D01*
X156528293Y-110834621D01*
X156457768Y-110842792D01*
X156394021Y-110811538D01*
X156373324Y-110787054D01*
X156292822Y-110662617D01*
X156292820Y-110662614D01*
X156290014Y-110658277D01*
X156139670Y-110493051D01*
X156135619Y-110489852D01*
X156135615Y-110489848D01*
X155968414Y-110357800D01*
X155968410Y-110357798D01*
X155964359Y-110354598D01*
X155768789Y-110246638D01*
X155763920Y-110244914D01*
X155763916Y-110244912D01*
X155563087Y-110173795D01*
X155563083Y-110173794D01*
X155558212Y-110172069D01*
X155553119Y-110171162D01*
X155553116Y-110171161D01*
X155343373Y-110133800D01*
X155343367Y-110133799D01*
X155338284Y-110132894D01*
X155264452Y-110131992D01*
X155120081Y-110130228D01*
X155120079Y-110130228D01*
X155114911Y-110130165D01*
X154894091Y-110163955D01*
X154681756Y-110233357D01*
X154651443Y-110249137D01*
X154535762Y-110309357D01*
X154483607Y-110336507D01*
X154479474Y-110339610D01*
X154479471Y-110339612D01*
X154309100Y-110467530D01*
X154304965Y-110470635D01*
X154275908Y-110501041D01*
X154210010Y-110570000D01*
X154150629Y-110632138D01*
X154043201Y-110789621D01*
X153988293Y-110834621D01*
X153917768Y-110842792D01*
X153854021Y-110811538D01*
X153833324Y-110787054D01*
X153752822Y-110662617D01*
X153752820Y-110662614D01*
X153750014Y-110658277D01*
X153599670Y-110493051D01*
X153595619Y-110489852D01*
X153595615Y-110489848D01*
X153428414Y-110357800D01*
X153428410Y-110357798D01*
X153424359Y-110354598D01*
X153228789Y-110246638D01*
X153223920Y-110244914D01*
X153223916Y-110244912D01*
X153023087Y-110173795D01*
X153023083Y-110173794D01*
X153018212Y-110172069D01*
X153013119Y-110171162D01*
X153013116Y-110171161D01*
X152803373Y-110133800D01*
X152803367Y-110133799D01*
X152798284Y-110132894D01*
X152724452Y-110131992D01*
X152580081Y-110130228D01*
X152580079Y-110130228D01*
X152574911Y-110130165D01*
X152354091Y-110163955D01*
X152141756Y-110233357D01*
X152111443Y-110249137D01*
X151995762Y-110309357D01*
X151943607Y-110336507D01*
X151939474Y-110339610D01*
X151939471Y-110339612D01*
X151769100Y-110467530D01*
X151764965Y-110470635D01*
X151735908Y-110501041D01*
X151670010Y-110570000D01*
X151610629Y-110632138D01*
X151484743Y-110816680D01*
X151390688Y-111019305D01*
X151330989Y-111234570D01*
X151307251Y-111456695D01*
X151320110Y-111679715D01*
X151321247Y-111684761D01*
X151321248Y-111684767D01*
X151345304Y-111791508D01*
X151369222Y-111897639D01*
X151453266Y-112104616D01*
X151490685Y-112165678D01*
X151567291Y-112290688D01*
X151569987Y-112295088D01*
X151716250Y-112463938D01*
X151888126Y-112606632D01*
X152081000Y-112719338D01*
X152289692Y-112799030D01*
X152294760Y-112800061D01*
X152294763Y-112800062D01*
X152402017Y-112821883D01*
X152508597Y-112843567D01*
X152513772Y-112843757D01*
X152513774Y-112843757D01*
X152726673Y-112851564D01*
X152726677Y-112851564D01*
X152731837Y-112851753D01*
X152736957Y-112851097D01*
X152736959Y-112851097D01*
X152948288Y-112824025D01*
X152948289Y-112824025D01*
X152953416Y-112823368D01*
X152958366Y-112821883D01*
X153162429Y-112760661D01*
X153162434Y-112760659D01*
X153167384Y-112759174D01*
X153367994Y-112660896D01*
X153549860Y-112531173D01*
X153708096Y-112373489D01*
X153767594Y-112290689D01*
X153838453Y-112192077D01*
X153839776Y-112193028D01*
X153886645Y-112149857D01*
X153956580Y-112137625D01*
X154022026Y-112165144D01*
X154049875Y-112196994D01*
X154109987Y-112295088D01*
X154256250Y-112463938D01*
X154428126Y-112606632D01*
X154621000Y-112719338D01*
X154829692Y-112799030D01*
X154834760Y-112800061D01*
X154834763Y-112800062D01*
X154942017Y-112821883D01*
X155048597Y-112843567D01*
X155053772Y-112843757D01*
X155053774Y-112843757D01*
X155266673Y-112851564D01*
X155266677Y-112851564D01*
X155271837Y-112851753D01*
X155276957Y-112851097D01*
X155276959Y-112851097D01*
X155488288Y-112824025D01*
X155488289Y-112824025D01*
X155493416Y-112823368D01*
X155498366Y-112821883D01*
X155702429Y-112760661D01*
X155702434Y-112760659D01*
X155707384Y-112759174D01*
X155907994Y-112660896D01*
X156089860Y-112531173D01*
X156248096Y-112373489D01*
X156307594Y-112290689D01*
X156378453Y-112192077D01*
X156379776Y-112193028D01*
X156426645Y-112149857D01*
X156496580Y-112137625D01*
X156562026Y-112165144D01*
X156589875Y-112196994D01*
X156649987Y-112295088D01*
X156796250Y-112463938D01*
X156968126Y-112606632D01*
X157161000Y-112719338D01*
X157369692Y-112799030D01*
X157374760Y-112800061D01*
X157374763Y-112800062D01*
X157482017Y-112821883D01*
X157588597Y-112843567D01*
X157593772Y-112843757D01*
X157593774Y-112843757D01*
X157806673Y-112851564D01*
X157806677Y-112851564D01*
X157811837Y-112851753D01*
X157816957Y-112851097D01*
X157816959Y-112851097D01*
X158028288Y-112824025D01*
X158028289Y-112824025D01*
X158033416Y-112823368D01*
X158038366Y-112821883D01*
X158242429Y-112760661D01*
X158242434Y-112760659D01*
X158247384Y-112759174D01*
X158447994Y-112660896D01*
X158629860Y-112531173D01*
X158788096Y-112373489D01*
X158847594Y-112290689D01*
X158918453Y-112192077D01*
X158919776Y-112193028D01*
X158966645Y-112149857D01*
X159036580Y-112137625D01*
X159102026Y-112165144D01*
X159129875Y-112196994D01*
X159189987Y-112295088D01*
X159336250Y-112463938D01*
X159508126Y-112606632D01*
X159701000Y-112719338D01*
X159909692Y-112799030D01*
X159914760Y-112800061D01*
X159914763Y-112800062D01*
X160022017Y-112821883D01*
X160128597Y-112843567D01*
X160133772Y-112843757D01*
X160133774Y-112843757D01*
X160346673Y-112851564D01*
X160346677Y-112851564D01*
X160351837Y-112851753D01*
X160356957Y-112851097D01*
X160356959Y-112851097D01*
X160568288Y-112824025D01*
X160568289Y-112824025D01*
X160573416Y-112823368D01*
X160578366Y-112821883D01*
X160782429Y-112760661D01*
X160782434Y-112760659D01*
X160787384Y-112759174D01*
X160987994Y-112660896D01*
X161169860Y-112531173D01*
X161328096Y-112373489D01*
X161387594Y-112290689D01*
X161458453Y-112192077D01*
X161459776Y-112193028D01*
X161506645Y-112149857D01*
X161576580Y-112137625D01*
X161642026Y-112165144D01*
X161669875Y-112196994D01*
X161729987Y-112295088D01*
X161876250Y-112463938D01*
X162048126Y-112606632D01*
X162241000Y-112719338D01*
X162449692Y-112799030D01*
X162454760Y-112800061D01*
X162454763Y-112800062D01*
X162562017Y-112821883D01*
X162668597Y-112843567D01*
X162673772Y-112843757D01*
X162673774Y-112843757D01*
X162886673Y-112851564D01*
X162886677Y-112851564D01*
X162891837Y-112851753D01*
X162896957Y-112851097D01*
X162896959Y-112851097D01*
X163108288Y-112824025D01*
X163108289Y-112824025D01*
X163113416Y-112823368D01*
X163118366Y-112821883D01*
X163322429Y-112760661D01*
X163322434Y-112760659D01*
X163327384Y-112759174D01*
X163527994Y-112660896D01*
X163709860Y-112531173D01*
X163868096Y-112373489D01*
X163927594Y-112290689D01*
X163998453Y-112192077D01*
X163999776Y-112193028D01*
X164046645Y-112149857D01*
X164116580Y-112137625D01*
X164182026Y-112165144D01*
X164209875Y-112196994D01*
X164269987Y-112295088D01*
X164416250Y-112463938D01*
X164588126Y-112606632D01*
X164781000Y-112719338D01*
X164989692Y-112799030D01*
X164994760Y-112800061D01*
X164994763Y-112800062D01*
X165102017Y-112821883D01*
X165208597Y-112843567D01*
X165213772Y-112843757D01*
X165213774Y-112843757D01*
X165426673Y-112851564D01*
X165426677Y-112851564D01*
X165431837Y-112851753D01*
X165436957Y-112851097D01*
X165436959Y-112851097D01*
X165648288Y-112824025D01*
X165648289Y-112824025D01*
X165653416Y-112823368D01*
X165658366Y-112821883D01*
X165862429Y-112760661D01*
X165862434Y-112760659D01*
X165867384Y-112759174D01*
X166067994Y-112660896D01*
X166249860Y-112531173D01*
X166408096Y-112373489D01*
X166467594Y-112290689D01*
X166538453Y-112192077D01*
X166539776Y-112193028D01*
X166586645Y-112149857D01*
X166656580Y-112137625D01*
X166722026Y-112165144D01*
X166749875Y-112196994D01*
X166809987Y-112295088D01*
X166956250Y-112463938D01*
X167128126Y-112606632D01*
X167321000Y-112719338D01*
X167529692Y-112799030D01*
X167534760Y-112800061D01*
X167534763Y-112800062D01*
X167642017Y-112821883D01*
X167748597Y-112843567D01*
X167753772Y-112843757D01*
X167753774Y-112843757D01*
X167966673Y-112851564D01*
X167966677Y-112851564D01*
X167971837Y-112851753D01*
X167976957Y-112851097D01*
X167976959Y-112851097D01*
X168188288Y-112824025D01*
X168188289Y-112824025D01*
X168193416Y-112823368D01*
X168198366Y-112821883D01*
X168402429Y-112760661D01*
X168402434Y-112760659D01*
X168407384Y-112759174D01*
X168607994Y-112660896D01*
X168789860Y-112531173D01*
X168898091Y-112423319D01*
X168960462Y-112389404D01*
X169031268Y-112394592D01*
X169088030Y-112437238D01*
X169105012Y-112468341D01*
X169149385Y-112586705D01*
X169236739Y-112703261D01*
X169353295Y-112790615D01*
X169489684Y-112841745D01*
X169551866Y-112848500D01*
X171348134Y-112848500D01*
X171410316Y-112841745D01*
X171546705Y-112790615D01*
X171663261Y-112703261D01*
X171750615Y-112586705D01*
X171801745Y-112450316D01*
X171808500Y-112388134D01*
X171808500Y-110591866D01*
X171801745Y-110529684D01*
X171750615Y-110393295D01*
X171663261Y-110276739D01*
X171546705Y-110189385D01*
X171410316Y-110138255D01*
X171348134Y-110131500D01*
X171209500Y-110131500D01*
X171141379Y-110111498D01*
X171094886Y-110057842D01*
X171083500Y-110005500D01*
X171083500Y-96647263D01*
X171084027Y-96636079D01*
X171085701Y-96628591D01*
X171083562Y-96560532D01*
X171083500Y-96556575D01*
X171083500Y-96528644D01*
X171082994Y-96524638D01*
X171082061Y-96512792D01*
X171080922Y-96476537D01*
X171080673Y-96468610D01*
X171075022Y-96449158D01*
X171071014Y-96429806D01*
X171069468Y-96417568D01*
X171069467Y-96417566D01*
X171068474Y-96409703D01*
X171052194Y-96368586D01*
X171048359Y-96357385D01*
X171036018Y-96314906D01*
X171031985Y-96308087D01*
X171031983Y-96308082D01*
X171025707Y-96297471D01*
X171017010Y-96279721D01*
X171009552Y-96260883D01*
X170983571Y-96225123D01*
X170977053Y-96215201D01*
X170958578Y-96183960D01*
X170958574Y-96183955D01*
X170954542Y-96177137D01*
X170940218Y-96162813D01*
X170927376Y-96147778D01*
X170925921Y-96145775D01*
X170915472Y-96131393D01*
X170881406Y-96103211D01*
X170872627Y-96095222D01*
X157943179Y-83165774D01*
X162573102Y-83165774D01*
X162581751Y-83396158D01*
X162629093Y-83621791D01*
X162713776Y-83836221D01*
X162833377Y-84033317D01*
X162836874Y-84037347D01*
X162923438Y-84137103D01*
X162984477Y-84207445D01*
X163020120Y-84236670D01*
X163060114Y-84295329D01*
X163062046Y-84366299D01*
X163025302Y-84427048D01*
X163006532Y-84441248D01*
X162875579Y-84522285D01*
X162860652Y-84531522D01*
X162735695Y-84656697D01*
X162731855Y-84662927D01*
X162731854Y-84662928D01*
X162681696Y-84744300D01*
X162642885Y-84807262D01*
X162587203Y-84975139D01*
X162576500Y-85079600D01*
X162576500Y-86380400D01*
X162587474Y-86486166D01*
X162643450Y-86653946D01*
X162736522Y-86804348D01*
X162861697Y-86929305D01*
X162867927Y-86933145D01*
X162867928Y-86933146D01*
X163005090Y-87017694D01*
X163012262Y-87022115D01*
X163092005Y-87048564D01*
X163173611Y-87075632D01*
X163173613Y-87075632D01*
X163180139Y-87077797D01*
X163186975Y-87078497D01*
X163186978Y-87078498D01*
X163230031Y-87082909D01*
X163284600Y-87088500D01*
X164835400Y-87088500D01*
X164838646Y-87088163D01*
X164838650Y-87088163D01*
X164934308Y-87078238D01*
X164934312Y-87078237D01*
X164941166Y-87077526D01*
X164947702Y-87075345D01*
X164947704Y-87075345D01*
X165079806Y-87031272D01*
X165108946Y-87021550D01*
X165259348Y-86928478D01*
X165384305Y-86803303D01*
X165388146Y-86797072D01*
X165473275Y-86658968D01*
X165473276Y-86658966D01*
X165477115Y-86652738D01*
X165532797Y-86484861D01*
X165536833Y-86445475D01*
X165543172Y-86383598D01*
X165543500Y-86380400D01*
X165543500Y-85079600D01*
X165539376Y-85039849D01*
X165533238Y-84980692D01*
X165533237Y-84980688D01*
X165532526Y-84973834D01*
X165476550Y-84806054D01*
X165383478Y-84655652D01*
X165258303Y-84530695D01*
X165112660Y-84440919D01*
X165065168Y-84388148D01*
X165053744Y-84318076D01*
X165082018Y-84252952D01*
X165091805Y-84242490D01*
X165202278Y-84137103D01*
X165206135Y-84133424D01*
X165343754Y-83948458D01*
X165368392Y-83900000D01*
X165445822Y-83747704D01*
X165448240Y-83742949D01*
X165470298Y-83671913D01*
X165515024Y-83527871D01*
X165516607Y-83522773D01*
X165526812Y-83445775D01*
X165546198Y-83299511D01*
X165546198Y-83299506D01*
X165546898Y-83294226D01*
X165538249Y-83063842D01*
X165490907Y-82838209D01*
X165435914Y-82698959D01*
X165408185Y-82628744D01*
X165408184Y-82628742D01*
X165406224Y-82623779D01*
X165286623Y-82426683D01*
X165234137Y-82366198D01*
X165139023Y-82256588D01*
X165139021Y-82256586D01*
X165135523Y-82252555D01*
X165071170Y-82199789D01*
X164961373Y-82109760D01*
X164961367Y-82109756D01*
X164957245Y-82106376D01*
X164925750Y-82088448D01*
X164876445Y-82037368D01*
X164862583Y-81967738D01*
X164888566Y-81901667D01*
X164917716Y-81874427D01*
X165014537Y-81809243D01*
X165039319Y-81792559D01*
X165069084Y-81764165D01*
X165202278Y-81637103D01*
X165206135Y-81633424D01*
X165343754Y-81448458D01*
X165448240Y-81242949D01*
X165484321Y-81126752D01*
X165515024Y-81027871D01*
X165516607Y-81022773D01*
X165530750Y-80916067D01*
X165546198Y-80799511D01*
X165546198Y-80799506D01*
X165546898Y-80794226D01*
X165546650Y-80787604D01*
X165538449Y-80569173D01*
X165538249Y-80563842D01*
X165490907Y-80338209D01*
X165445072Y-80222148D01*
X165408185Y-80128744D01*
X165408184Y-80128742D01*
X165406224Y-80123779D01*
X165385727Y-80090000D01*
X165289390Y-79931243D01*
X165286623Y-79926683D01*
X165199427Y-79826198D01*
X165139023Y-79756588D01*
X165139021Y-79756586D01*
X165135523Y-79752555D01*
X165093970Y-79718484D01*
X164961373Y-79609760D01*
X164961367Y-79609756D01*
X164957245Y-79606376D01*
X164925750Y-79588448D01*
X164876445Y-79537368D01*
X164862583Y-79467738D01*
X164888566Y-79401667D01*
X164917716Y-79374427D01*
X164953642Y-79350240D01*
X165039319Y-79292559D01*
X165063761Y-79269243D01*
X165202278Y-79137103D01*
X165206135Y-79133424D01*
X165343754Y-78948458D01*
X165448240Y-78742949D01*
X165484321Y-78626752D01*
X165515024Y-78527871D01*
X165516607Y-78522773D01*
X165517308Y-78517484D01*
X165546198Y-78299511D01*
X165546198Y-78299506D01*
X165546898Y-78294226D01*
X165538249Y-78063842D01*
X165490907Y-77838209D01*
X165406224Y-77623779D01*
X165384537Y-77588039D01*
X165289390Y-77431243D01*
X165286623Y-77426683D01*
X165199755Y-77326576D01*
X165139023Y-77256588D01*
X165139021Y-77256586D01*
X165135523Y-77252555D01*
X165093970Y-77218484D01*
X164961373Y-77109760D01*
X164961367Y-77109756D01*
X164957245Y-77106376D01*
X164925750Y-77088448D01*
X164876445Y-77037368D01*
X164862583Y-76967738D01*
X164888566Y-76901667D01*
X164917716Y-76874427D01*
X164953642Y-76850240D01*
X165039319Y-76792559D01*
X165206135Y-76633424D01*
X165343754Y-76448458D01*
X165448240Y-76242949D01*
X165484321Y-76126752D01*
X165515024Y-76027871D01*
X165516607Y-76022773D01*
X165517308Y-76017484D01*
X165546198Y-75799511D01*
X165546198Y-75799506D01*
X165546898Y-75794226D01*
X165538249Y-75563842D01*
X165490907Y-75338209D01*
X165406224Y-75123779D01*
X165286623Y-74926683D01*
X165199755Y-74826576D01*
X165139023Y-74756588D01*
X165139021Y-74756586D01*
X165135523Y-74752555D01*
X165093970Y-74718484D01*
X164961373Y-74609760D01*
X164961367Y-74609756D01*
X164957245Y-74606376D01*
X164952609Y-74603737D01*
X164952606Y-74603735D01*
X164761529Y-74494968D01*
X164756886Y-74492325D01*
X164540175Y-74413663D01*
X164534926Y-74412714D01*
X164534923Y-74412713D01*
X164317392Y-74373377D01*
X164317385Y-74373376D01*
X164313308Y-74372639D01*
X164295586Y-74371803D01*
X164290644Y-74371570D01*
X164290637Y-74371570D01*
X164289156Y-74371500D01*
X163877110Y-74371500D01*
X163810191Y-74377178D01*
X163710591Y-74385629D01*
X163710587Y-74385630D01*
X163705280Y-74386080D01*
X163700125Y-74387418D01*
X163700119Y-74387419D01*
X163487297Y-74442657D01*
X163487293Y-74442658D01*
X163482128Y-74443999D01*
X163477262Y-74446191D01*
X163477259Y-74446192D01*
X163368980Y-74494968D01*
X163271925Y-74538688D01*
X163080681Y-74667441D01*
X162913865Y-74826576D01*
X162776246Y-75011542D01*
X162671760Y-75217051D01*
X162670178Y-75222145D01*
X162670177Y-75222148D01*
X162608115Y-75422020D01*
X162603393Y-75437227D01*
X162602692Y-75442516D01*
X162587304Y-75558623D01*
X162573102Y-75665774D01*
X162581751Y-75896158D01*
X162629093Y-76121791D01*
X162713776Y-76336221D01*
X162833377Y-76533317D01*
X162836874Y-76537347D01*
X162923438Y-76637103D01*
X162984477Y-76707445D01*
X162988608Y-76710832D01*
X163158627Y-76850240D01*
X163158633Y-76850244D01*
X163162755Y-76853624D01*
X163194250Y-76871552D01*
X163243555Y-76922632D01*
X163257417Y-76992262D01*
X163231434Y-77058333D01*
X163202284Y-77085573D01*
X163080681Y-77167441D01*
X162913865Y-77326576D01*
X162776246Y-77511542D01*
X162773830Y-77516293D01*
X162773828Y-77516297D01*
X162738534Y-77585716D01*
X162671760Y-77717051D01*
X162670178Y-77722145D01*
X162670177Y-77722148D01*
X162608115Y-77922020D01*
X162603393Y-77937227D01*
X162602692Y-77942516D01*
X162574034Y-78158743D01*
X162573102Y-78165774D01*
X162581751Y-78396158D01*
X162629093Y-78621791D01*
X162713776Y-78836221D01*
X162833377Y-79033317D01*
X162836874Y-79037347D01*
X162923438Y-79137103D01*
X162984477Y-79207445D01*
X162988608Y-79210832D01*
X163158627Y-79350240D01*
X163158633Y-79350244D01*
X163162755Y-79353624D01*
X163194250Y-79371552D01*
X163243555Y-79422632D01*
X163257417Y-79492262D01*
X163231434Y-79558333D01*
X163202284Y-79585573D01*
X163080681Y-79667441D01*
X162913865Y-79826576D01*
X162776246Y-80011542D01*
X162773830Y-80016293D01*
X162773828Y-80016297D01*
X162754515Y-80054284D01*
X162671760Y-80217051D01*
X162670178Y-80222145D01*
X162670177Y-80222148D01*
X162630278Y-80350643D01*
X162603393Y-80437227D01*
X162602692Y-80442516D01*
X162587304Y-80558623D01*
X162573102Y-80665774D01*
X162573302Y-80671103D01*
X162573302Y-80671105D01*
X162575850Y-80738973D01*
X162581751Y-80896158D01*
X162629093Y-81121791D01*
X162631051Y-81126750D01*
X162631052Y-81126752D01*
X162635255Y-81137393D01*
X162713776Y-81336221D01*
X162833377Y-81533317D01*
X162836874Y-81537347D01*
X162923438Y-81637103D01*
X162984477Y-81707445D01*
X162988608Y-81710832D01*
X163158627Y-81850240D01*
X163158633Y-81850244D01*
X163162755Y-81853624D01*
X163194250Y-81871552D01*
X163243555Y-81922632D01*
X163257417Y-81992262D01*
X163231434Y-82058333D01*
X163202284Y-82085573D01*
X163080681Y-82167441D01*
X163076824Y-82171120D01*
X163076822Y-82171122D01*
X163042043Y-82204300D01*
X162913865Y-82326576D01*
X162776246Y-82511542D01*
X162671760Y-82717051D01*
X162670178Y-82722145D01*
X162670177Y-82722148D01*
X162621924Y-82877547D01*
X162603393Y-82937227D01*
X162602692Y-82942516D01*
X162574437Y-83155705D01*
X162573102Y-83165774D01*
X157943179Y-83165774D01*
X156870452Y-82093047D01*
X156862912Y-82084761D01*
X156858800Y-82078282D01*
X156809148Y-82031656D01*
X156806307Y-82028902D01*
X156786570Y-82009165D01*
X156783373Y-82006685D01*
X156774351Y-81998980D01*
X156747900Y-81974141D01*
X156742121Y-81968714D01*
X156735175Y-81964895D01*
X156735172Y-81964893D01*
X156724366Y-81958952D01*
X156707847Y-81948101D01*
X156707383Y-81947741D01*
X156691841Y-81935686D01*
X156684572Y-81932541D01*
X156684568Y-81932538D01*
X156651263Y-81918126D01*
X156640613Y-81912909D01*
X156601860Y-81891605D01*
X156582237Y-81886567D01*
X156563534Y-81880163D01*
X156552220Y-81875267D01*
X156552219Y-81875267D01*
X156544945Y-81872119D01*
X156537122Y-81870880D01*
X156537112Y-81870877D01*
X156501276Y-81865201D01*
X156489656Y-81862795D01*
X156454511Y-81853772D01*
X156454510Y-81853772D01*
X156446830Y-81851800D01*
X156426576Y-81851800D01*
X156406865Y-81850249D01*
X156406809Y-81850240D01*
X156386857Y-81847080D01*
X156378965Y-81847826D01*
X156342839Y-81851241D01*
X156330981Y-81851800D01*
X148197088Y-81851800D01*
X148128967Y-81831798D01*
X148082474Y-81778142D01*
X148072370Y-81707868D01*
X148075381Y-81693189D01*
X148102119Y-81593402D01*
X148102119Y-81593400D01*
X148103543Y-81588087D01*
X148123498Y-81360000D01*
X148103543Y-81131913D01*
X148100831Y-81121791D01*
X148045707Y-80916067D01*
X148045706Y-80916065D01*
X148044284Y-80910757D01*
X148039910Y-80901377D01*
X147949849Y-80708238D01*
X147949846Y-80708233D01*
X147947523Y-80703251D01*
X147853640Y-80569173D01*
X147819357Y-80520211D01*
X147819355Y-80520208D01*
X147816198Y-80515700D01*
X147654300Y-80353802D01*
X147649792Y-80350645D01*
X147649789Y-80350643D01*
X147571611Y-80295902D01*
X147466749Y-80222477D01*
X147461767Y-80220154D01*
X147461762Y-80220151D01*
X147427543Y-80204195D01*
X147374258Y-80157278D01*
X147354797Y-80089001D01*
X147375339Y-80021041D01*
X147427543Y-79975805D01*
X147461762Y-79959849D01*
X147461767Y-79959846D01*
X147466749Y-79957523D01*
X147647651Y-79830854D01*
X147649789Y-79829357D01*
X147649792Y-79829355D01*
X147654300Y-79826198D01*
X147816198Y-79664300D01*
X147854388Y-79609760D01*
X147905077Y-79537368D01*
X147947523Y-79476749D01*
X147949846Y-79471767D01*
X147949849Y-79471762D01*
X148041961Y-79274225D01*
X148041961Y-79274224D01*
X148044284Y-79269243D01*
X148061924Y-79203412D01*
X148102119Y-79053402D01*
X148102119Y-79053400D01*
X148103543Y-79048087D01*
X148123498Y-78820000D01*
X148103543Y-78591913D01*
X148044284Y-78370757D01*
X148011062Y-78299511D01*
X147949849Y-78168238D01*
X147949846Y-78168233D01*
X147947523Y-78163251D01*
X147816198Y-77975700D01*
X147654300Y-77813802D01*
X147649792Y-77810645D01*
X147649789Y-77810643D01*
X147523405Y-77722148D01*
X147466749Y-77682477D01*
X147461767Y-77680154D01*
X147461762Y-77680151D01*
X147264225Y-77588039D01*
X147264224Y-77588039D01*
X147259243Y-77585716D01*
X147253935Y-77584294D01*
X147253933Y-77584293D01*
X147043402Y-77527881D01*
X147043400Y-77527881D01*
X147038087Y-77526457D01*
X146810000Y-77506502D01*
X146581913Y-77526457D01*
X146576600Y-77527881D01*
X146576598Y-77527881D01*
X146366067Y-77584293D01*
X146366065Y-77584294D01*
X146360757Y-77585716D01*
X146355776Y-77588039D01*
X146355775Y-77588039D01*
X146158238Y-77680151D01*
X146158233Y-77680154D01*
X146153251Y-77682477D01*
X146096595Y-77722148D01*
X145970211Y-77810643D01*
X145970208Y-77810645D01*
X145965700Y-77813802D01*
X145803802Y-77975700D01*
X145672477Y-78163251D01*
X145670154Y-78168233D01*
X145670151Y-78168238D01*
X145608938Y-78299511D01*
X145575716Y-78370757D01*
X145516457Y-78591913D01*
X145496502Y-78820000D01*
X145516457Y-79048087D01*
X145517881Y-79053400D01*
X145517881Y-79053402D01*
X145558077Y-79203412D01*
X145575716Y-79269243D01*
X145578039Y-79274224D01*
X145578039Y-79274225D01*
X145670151Y-79471762D01*
X145670154Y-79471767D01*
X145672477Y-79476749D01*
X145714923Y-79537368D01*
X145765613Y-79609760D01*
X145803802Y-79664300D01*
X145965700Y-79826198D01*
X145970208Y-79829355D01*
X145970211Y-79829357D01*
X145972349Y-79830854D01*
X146153251Y-79957523D01*
X146158233Y-79959846D01*
X146158238Y-79959849D01*
X146192457Y-79975805D01*
X146245742Y-80022722D01*
X146265203Y-80090999D01*
X146244661Y-80158959D01*
X146192457Y-80204195D01*
X146158238Y-80220151D01*
X146158233Y-80220154D01*
X146153251Y-80222477D01*
X146048389Y-80295902D01*
X145970211Y-80350643D01*
X145970208Y-80350645D01*
X145965700Y-80353802D01*
X145803802Y-80515700D01*
X145800645Y-80520208D01*
X145800643Y-80520211D01*
X145766360Y-80569173D01*
X145672477Y-80703251D01*
X145670154Y-80708233D01*
X145670151Y-80708238D01*
X145580090Y-80901377D01*
X145575716Y-80910757D01*
X145574294Y-80916065D01*
X145574293Y-80916067D01*
X145519169Y-81121791D01*
X145516457Y-81131913D01*
X145496502Y-81360000D01*
X145516457Y-81588087D01*
X145517881Y-81593400D01*
X145517881Y-81593402D01*
X145544619Y-81693189D01*
X145542929Y-81764165D01*
X145503135Y-81822961D01*
X145437871Y-81850909D01*
X145422912Y-81851800D01*
X134135195Y-81851800D01*
X134067074Y-81831798D01*
X134046099Y-81814895D01*
X133198947Y-80967742D01*
X133191413Y-80959463D01*
X133187300Y-80952982D01*
X133137648Y-80906356D01*
X133134807Y-80903602D01*
X133115070Y-80883865D01*
X133111873Y-80881385D01*
X133102851Y-80873680D01*
X133076400Y-80848841D01*
X133070621Y-80843414D01*
X133063675Y-80839595D01*
X133063672Y-80839593D01*
X133052866Y-80833652D01*
X133036347Y-80822801D01*
X133035883Y-80822441D01*
X133020341Y-80810386D01*
X133013072Y-80807241D01*
X133013068Y-80807238D01*
X132979763Y-80792826D01*
X132969113Y-80787609D01*
X132930360Y-80766305D01*
X132910737Y-80761267D01*
X132892034Y-80754863D01*
X132880720Y-80749967D01*
X132880719Y-80749967D01*
X132873445Y-80746819D01*
X132865622Y-80745580D01*
X132865612Y-80745577D01*
X132829776Y-80739901D01*
X132818156Y-80737495D01*
X132783011Y-80728472D01*
X132783010Y-80728472D01*
X132775330Y-80726500D01*
X132772777Y-80726500D01*
X132709892Y-80699075D01*
X132687545Y-80674720D01*
X132677581Y-80660489D01*
X132613640Y-80569173D01*
X132579357Y-80520211D01*
X132579355Y-80520208D01*
X132576198Y-80515700D01*
X132414300Y-80353802D01*
X132409792Y-80350645D01*
X132409789Y-80350643D01*
X132331611Y-80295902D01*
X132226749Y-80222477D01*
X132221767Y-80220154D01*
X132221762Y-80220151D01*
X132187543Y-80204195D01*
X132134258Y-80157278D01*
X132114797Y-80089001D01*
X132135339Y-80021041D01*
X132187543Y-79975805D01*
X132221762Y-79959849D01*
X132221767Y-79959846D01*
X132226749Y-79957523D01*
X132407651Y-79830854D01*
X132409789Y-79829357D01*
X132409792Y-79829355D01*
X132414300Y-79826198D01*
X132576198Y-79664300D01*
X132614388Y-79609760D01*
X132665077Y-79537368D01*
X132707523Y-79476749D01*
X132709846Y-79471767D01*
X132709849Y-79471762D01*
X132801961Y-79274225D01*
X132801961Y-79274224D01*
X132804284Y-79269243D01*
X132821924Y-79203412D01*
X132862119Y-79053402D01*
X132862119Y-79053400D01*
X132863543Y-79048087D01*
X132883498Y-78820000D01*
X132863543Y-78591913D01*
X132804284Y-78370757D01*
X132771062Y-78299511D01*
X132709849Y-78168238D01*
X132709846Y-78168233D01*
X132707523Y-78163251D01*
X132576198Y-77975700D01*
X132414300Y-77813802D01*
X132409792Y-77810645D01*
X132409789Y-77810643D01*
X132283405Y-77722148D01*
X132226749Y-77682477D01*
X132221767Y-77680154D01*
X132221762Y-77680151D01*
X132024225Y-77588039D01*
X132024224Y-77588039D01*
X132019243Y-77585716D01*
X132013935Y-77584294D01*
X132013933Y-77584293D01*
X131803402Y-77527881D01*
X131803400Y-77527881D01*
X131798087Y-77526457D01*
X131570000Y-77506502D01*
X131341913Y-77526457D01*
X131336600Y-77527881D01*
X131336598Y-77527881D01*
X131126067Y-77584293D01*
X131126065Y-77584294D01*
X131120757Y-77585716D01*
X131115776Y-77588039D01*
X131115775Y-77588039D01*
X130918238Y-77680151D01*
X130918233Y-77680154D01*
X130913251Y-77682477D01*
X130856595Y-77722148D01*
X130730211Y-77810643D01*
X130730208Y-77810645D01*
X130725700Y-77813802D01*
X130563802Y-77975700D01*
X130432477Y-78163251D01*
X130430154Y-78168233D01*
X130430151Y-78168238D01*
X130368938Y-78299511D01*
X130335716Y-78370757D01*
X130276457Y-78591913D01*
X130256502Y-78820000D01*
X130276457Y-79048087D01*
X130277881Y-79053400D01*
X130277881Y-79053402D01*
X130318077Y-79203412D01*
X130335716Y-79269243D01*
X130338039Y-79274224D01*
X130338039Y-79274225D01*
X130430151Y-79471762D01*
X130430154Y-79471767D01*
X130432477Y-79476749D01*
X130474923Y-79537368D01*
X130525613Y-79609760D01*
X130563802Y-79664300D01*
X130725700Y-79826198D01*
X130730208Y-79829355D01*
X130730211Y-79829357D01*
X130732349Y-79830854D01*
X130913251Y-79957523D01*
X130918233Y-79959846D01*
X130918238Y-79959849D01*
X130952457Y-79975805D01*
X131005742Y-80022722D01*
X131025203Y-80090999D01*
X131004661Y-80158959D01*
X130952457Y-80204195D01*
X130918238Y-80220151D01*
X130918233Y-80220154D01*
X130913251Y-80222477D01*
X130808389Y-80295902D01*
X130730211Y-80350643D01*
X130730208Y-80350645D01*
X130725700Y-80353802D01*
X130563802Y-80515700D01*
X130560645Y-80520208D01*
X130560643Y-80520211D01*
X130526360Y-80569173D01*
X130432477Y-80703251D01*
X130430154Y-80708233D01*
X130430151Y-80708238D01*
X130340090Y-80901377D01*
X130335716Y-80910757D01*
X130334294Y-80916065D01*
X130334293Y-80916067D01*
X130279169Y-81121791D01*
X130276457Y-81131913D01*
X130256502Y-81360000D01*
X130276457Y-81588087D01*
X130277881Y-81593400D01*
X130277881Y-81593402D01*
X130331246Y-81792559D01*
X130335716Y-81809243D01*
X130338039Y-81814224D01*
X130338039Y-81814225D01*
X130430151Y-82011762D01*
X130430154Y-82011767D01*
X130432477Y-82016749D01*
X130480668Y-82085573D01*
X130536004Y-82164600D01*
X130563802Y-82204300D01*
X130725700Y-82366198D01*
X130730208Y-82369355D01*
X130730211Y-82369357D01*
X130806326Y-82422653D01*
X130913251Y-82497523D01*
X130918233Y-82499846D01*
X130918238Y-82499849D01*
X130952457Y-82515805D01*
X131005742Y-82562722D01*
X131025203Y-82630999D01*
X131004661Y-82698959D01*
X130952457Y-82744195D01*
X130918238Y-82760151D01*
X130918233Y-82760154D01*
X130913251Y-82762477D01*
X130812180Y-82833248D01*
X130730211Y-82890643D01*
X130730208Y-82890645D01*
X130725700Y-82893802D01*
X130563802Y-83055700D01*
X130560645Y-83060208D01*
X130560643Y-83060211D01*
X130519619Y-83118800D01*
X130432477Y-83243251D01*
X130430154Y-83248233D01*
X130430151Y-83248238D01*
X130361176Y-83396158D01*
X130335716Y-83450757D01*
X130276457Y-83671913D01*
X130256502Y-83900000D01*
X130276457Y-84128087D01*
X130277881Y-84133400D01*
X130277881Y-84133402D01*
X130305552Y-84236669D01*
X130335716Y-84349243D01*
X130338039Y-84354224D01*
X130338039Y-84354225D01*
X130430151Y-84551762D01*
X130430154Y-84551767D01*
X130432477Y-84556749D01*
X130563802Y-84744300D01*
X130725700Y-84906198D01*
X130730208Y-84909355D01*
X130730211Y-84909357D01*
X130808389Y-84964098D01*
X130913251Y-85037523D01*
X130918233Y-85039846D01*
X130918238Y-85039849D01*
X130952457Y-85055805D01*
X131005742Y-85102722D01*
X131025203Y-85170999D01*
X131004661Y-85238959D01*
X130952457Y-85284195D01*
X130918238Y-85300151D01*
X130918233Y-85300154D01*
X130913251Y-85302477D01*
X130808389Y-85375902D01*
X130730211Y-85430643D01*
X130730208Y-85430645D01*
X130725700Y-85433802D01*
X130563802Y-85595700D01*
X130432477Y-85783251D01*
X130430154Y-85788233D01*
X130430151Y-85788238D01*
X130338039Y-85985775D01*
X130335716Y-85990757D01*
X130276457Y-86211913D01*
X130256502Y-86440000D01*
X130276457Y-86668087D01*
X130335716Y-86889243D01*
X130338039Y-86894224D01*
X130338039Y-86894225D01*
X130430151Y-87091762D01*
X130430154Y-87091767D01*
X130432477Y-87096749D01*
X130435634Y-87101257D01*
X130548418Y-87262329D01*
X130571106Y-87329603D01*
X130553821Y-87398463D01*
X130534301Y-87423695D01*
X130283711Y-87674284D01*
X130052442Y-87905553D01*
X130044163Y-87913087D01*
X130037682Y-87917200D01*
X129991057Y-87966851D01*
X129988302Y-87969693D01*
X129968565Y-87989430D01*
X129966085Y-87992627D01*
X129958382Y-88001647D01*
X129928114Y-88033879D01*
X129924295Y-88040825D01*
X129924293Y-88040828D01*
X129918352Y-88051634D01*
X129907501Y-88068153D01*
X129895086Y-88084159D01*
X129891941Y-88091428D01*
X129891938Y-88091432D01*
X129877526Y-88124737D01*
X129872309Y-88135387D01*
X129864914Y-88148839D01*
X129814571Y-88198897D01*
X129745154Y-88213791D01*
X129678705Y-88188791D01*
X129636320Y-88131835D01*
X129628500Y-88088138D01*
X129628500Y-72174500D01*
X129648502Y-72106379D01*
X129702158Y-72059886D01*
X129754500Y-72048500D01*
X172145500Y-72048500D01*
X172213621Y-72068502D01*
G37*
%TD.AperFunction*%
M02*
