%TF.GenerationSoftware,KiCad,Pcbnew,(6.0.7)*%
%TF.CreationDate,2023-03-11T00:51:03-05:00*%
%TF.ProjectId,GNERAL,474e4552-414c-42e6-9b69-6361645f7063,rev?*%
%TF.SameCoordinates,Original*%
%TF.FileFunction,AssemblyDrawing,Top*%
%FSLAX46Y46*%
G04 Gerber Fmt 4.6, Leading zero omitted, Abs format (unit mm)*
G04 Created by KiCad (PCBNEW (6.0.7)) date 2023-03-11 00:51:03*
%MOMM*%
%LPD*%
G01*
G04 APERTURE LIST*
%ADD10C,0.150000*%
%ADD11C,0.080000*%
%ADD12C,0.100000*%
G04 APERTURE END LIST*
D10*
%TO.C,R5*%
X153611904Y-93767619D02*
X153659523Y-93720000D01*
X153754761Y-93672380D01*
X153992857Y-93672380D01*
X154088095Y-93720000D01*
X154135714Y-93767619D01*
X154183333Y-93862857D01*
X154183333Y-93958095D01*
X154135714Y-94100952D01*
X153564285Y-94672380D01*
X154183333Y-94672380D01*
X154564285Y-93767619D02*
X154611904Y-93720000D01*
X154707142Y-93672380D01*
X154945238Y-93672380D01*
X155040476Y-93720000D01*
X155088095Y-93767619D01*
X155135714Y-93862857D01*
X155135714Y-93958095D01*
X155088095Y-94100952D01*
X154516666Y-94672380D01*
X155135714Y-94672380D01*
X155754761Y-93672380D02*
X155850000Y-93672380D01*
X155945238Y-93720000D01*
X155992857Y-93767619D01*
X156040476Y-93862857D01*
X156088095Y-94053333D01*
X156088095Y-94291428D01*
X156040476Y-94481904D01*
X155992857Y-94577142D01*
X155945238Y-94624761D01*
X155850000Y-94672380D01*
X155754761Y-94672380D01*
X155659523Y-94624761D01*
X155611904Y-94577142D01*
X155564285Y-94481904D01*
X155516666Y-94291428D01*
X155516666Y-94053333D01*
X155564285Y-93862857D01*
X155611904Y-93767619D01*
X155659523Y-93720000D01*
X155754761Y-93672380D01*
D11*
X154766666Y-92796190D02*
X154600000Y-92558095D01*
X154480952Y-92796190D02*
X154480952Y-92296190D01*
X154671428Y-92296190D01*
X154719047Y-92320000D01*
X154742857Y-92343809D01*
X154766666Y-92391428D01*
X154766666Y-92462857D01*
X154742857Y-92510476D01*
X154719047Y-92534285D01*
X154671428Y-92558095D01*
X154480952Y-92558095D01*
X155219047Y-92296190D02*
X154980952Y-92296190D01*
X154957142Y-92534285D01*
X154980952Y-92510476D01*
X155028571Y-92486666D01*
X155147619Y-92486666D01*
X155195238Y-92510476D01*
X155219047Y-92534285D01*
X155242857Y-92581904D01*
X155242857Y-92700952D01*
X155219047Y-92748571D01*
X155195238Y-92772380D01*
X155147619Y-92796190D01*
X155028571Y-92796190D01*
X154980952Y-92772380D01*
X154957142Y-92748571D01*
D10*
%TO.C,A1*%
X138086666Y-102068095D02*
X138086666Y-101591904D01*
X138372380Y-102163333D02*
X137372380Y-101830000D01*
X138372380Y-101496666D01*
X138372380Y-101163333D02*
X137705714Y-101163333D01*
X137896190Y-101163333D02*
X137800952Y-101115714D01*
X137753333Y-101068095D01*
X137705714Y-100972857D01*
X137705714Y-100877619D01*
X138372380Y-100115714D02*
X137372380Y-100115714D01*
X138324761Y-100115714D02*
X138372380Y-100210952D01*
X138372380Y-100401428D01*
X138324761Y-100496666D01*
X138277142Y-100544285D01*
X138181904Y-100591904D01*
X137896190Y-100591904D01*
X137800952Y-100544285D01*
X137753333Y-100496666D01*
X137705714Y-100401428D01*
X137705714Y-100210952D01*
X137753333Y-100115714D01*
X137705714Y-99210952D02*
X138372380Y-99210952D01*
X137705714Y-99639523D02*
X138229523Y-99639523D01*
X138324761Y-99591904D01*
X138372380Y-99496666D01*
X138372380Y-99353809D01*
X138324761Y-99258571D01*
X138277142Y-99210952D01*
X138372380Y-98734761D02*
X137705714Y-98734761D01*
X137372380Y-98734761D02*
X137420000Y-98782380D01*
X137467619Y-98734761D01*
X137420000Y-98687142D01*
X137372380Y-98734761D01*
X137467619Y-98734761D01*
X137705714Y-98258571D02*
X138372380Y-98258571D01*
X137800952Y-98258571D02*
X137753333Y-98210952D01*
X137705714Y-98115714D01*
X137705714Y-97972857D01*
X137753333Y-97877619D01*
X137848571Y-97830000D01*
X138372380Y-97830000D01*
X138372380Y-97210952D02*
X138324761Y-97306190D01*
X138277142Y-97353809D01*
X138181904Y-97401428D01*
X137896190Y-97401428D01*
X137800952Y-97353809D01*
X137753333Y-97306190D01*
X137705714Y-97210952D01*
X137705714Y-97068095D01*
X137753333Y-96972857D01*
X137800952Y-96925238D01*
X137896190Y-96877619D01*
X138181904Y-96877619D01*
X138277142Y-96925238D01*
X138324761Y-96972857D01*
X138372380Y-97068095D01*
X138372380Y-97210952D01*
X138467619Y-96687142D02*
X138467619Y-95925238D01*
X138372380Y-95687142D02*
X137372380Y-95687142D01*
X138372380Y-95115714D01*
X137372380Y-95115714D01*
X138372380Y-94210952D02*
X137848571Y-94210952D01*
X137753333Y-94258571D01*
X137705714Y-94353809D01*
X137705714Y-94544285D01*
X137753333Y-94639523D01*
X138324761Y-94210952D02*
X138372380Y-94306190D01*
X138372380Y-94544285D01*
X138324761Y-94639523D01*
X138229523Y-94687142D01*
X138134285Y-94687142D01*
X138039047Y-94639523D01*
X137991428Y-94544285D01*
X137991428Y-94306190D01*
X137943809Y-94210952D01*
X137705714Y-93734761D02*
X138372380Y-93734761D01*
X137800952Y-93734761D02*
X137753333Y-93687142D01*
X137705714Y-93591904D01*
X137705714Y-93449047D01*
X137753333Y-93353809D01*
X137848571Y-93306190D01*
X138372380Y-93306190D01*
X138372380Y-92687142D02*
X138324761Y-92782380D01*
X138277142Y-92830000D01*
X138181904Y-92877619D01*
X137896190Y-92877619D01*
X137800952Y-92830000D01*
X137753333Y-92782380D01*
X137705714Y-92687142D01*
X137705714Y-92544285D01*
X137753333Y-92449047D01*
X137800952Y-92401428D01*
X137896190Y-92353809D01*
X138181904Y-92353809D01*
X138277142Y-92401428D01*
X138324761Y-92449047D01*
X138372380Y-92544285D01*
X138372380Y-92687142D01*
X138467619Y-92163333D02*
X138467619Y-91401428D01*
X137705714Y-91258571D02*
X138372380Y-91020476D01*
X137705714Y-90782380D01*
X137467619Y-90449047D02*
X137420000Y-90401428D01*
X137372380Y-90306190D01*
X137372380Y-90068095D01*
X137420000Y-89972857D01*
X137467619Y-89925238D01*
X137562857Y-89877619D01*
X137658095Y-89877619D01*
X137800952Y-89925238D01*
X138372380Y-90496666D01*
X138372380Y-89877619D01*
X138277142Y-89449047D02*
X138324761Y-89401428D01*
X138372380Y-89449047D01*
X138324761Y-89496666D01*
X138277142Y-89449047D01*
X138372380Y-89449047D01*
X138372380Y-89068095D02*
X137705714Y-88544285D01*
X137705714Y-89068095D02*
X138372380Y-88544285D01*
X140626666Y-96044285D02*
X140626666Y-95568095D01*
X140912380Y-96139523D02*
X139912380Y-95806190D01*
X140912380Y-95472857D01*
X140912380Y-94615714D02*
X140912380Y-95187142D01*
X140912380Y-94901428D02*
X139912380Y-94901428D01*
X140055238Y-94996666D01*
X140150476Y-95091904D01*
X140198095Y-95187142D01*
%TO.C,R4*%
X153931904Y-98567619D02*
X153979523Y-98520000D01*
X154074761Y-98472380D01*
X154312857Y-98472380D01*
X154408095Y-98520000D01*
X154455714Y-98567619D01*
X154503333Y-98662857D01*
X154503333Y-98758095D01*
X154455714Y-98900952D01*
X153884285Y-99472380D01*
X154503333Y-99472380D01*
X154884285Y-98567619D02*
X154931904Y-98520000D01*
X155027142Y-98472380D01*
X155265238Y-98472380D01*
X155360476Y-98520000D01*
X155408095Y-98567619D01*
X155455714Y-98662857D01*
X155455714Y-98758095D01*
X155408095Y-98900952D01*
X154836666Y-99472380D01*
X155455714Y-99472380D01*
X156074761Y-98472380D02*
X156170000Y-98472380D01*
X156265238Y-98520000D01*
X156312857Y-98567619D01*
X156360476Y-98662857D01*
X156408095Y-98853333D01*
X156408095Y-99091428D01*
X156360476Y-99281904D01*
X156312857Y-99377142D01*
X156265238Y-99424761D01*
X156170000Y-99472380D01*
X156074761Y-99472380D01*
X155979523Y-99424761D01*
X155931904Y-99377142D01*
X155884285Y-99281904D01*
X155836666Y-99091428D01*
X155836666Y-98853333D01*
X155884285Y-98662857D01*
X155931904Y-98567619D01*
X155979523Y-98520000D01*
X156074761Y-98472380D01*
D11*
X154876666Y-97486190D02*
X154710000Y-97248095D01*
X154590952Y-97486190D02*
X154590952Y-96986190D01*
X154781428Y-96986190D01*
X154829047Y-97010000D01*
X154852857Y-97033809D01*
X154876666Y-97081428D01*
X154876666Y-97152857D01*
X154852857Y-97200476D01*
X154829047Y-97224285D01*
X154781428Y-97248095D01*
X154590952Y-97248095D01*
X155305238Y-97152857D02*
X155305238Y-97486190D01*
X155186190Y-96962380D02*
X155067142Y-97319523D01*
X155376666Y-97319523D01*
D10*
%TO.C,R1*%
X153471904Y-89347619D02*
X153519523Y-89300000D01*
X153614761Y-89252380D01*
X153852857Y-89252380D01*
X153948095Y-89300000D01*
X153995714Y-89347619D01*
X154043333Y-89442857D01*
X154043333Y-89538095D01*
X153995714Y-89680952D01*
X153424285Y-90252380D01*
X154043333Y-90252380D01*
X154424285Y-89347619D02*
X154471904Y-89300000D01*
X154567142Y-89252380D01*
X154805238Y-89252380D01*
X154900476Y-89300000D01*
X154948095Y-89347619D01*
X154995714Y-89442857D01*
X154995714Y-89538095D01*
X154948095Y-89680952D01*
X154376666Y-90252380D01*
X154995714Y-90252380D01*
X155614761Y-89252380D02*
X155710000Y-89252380D01*
X155805238Y-89300000D01*
X155852857Y-89347619D01*
X155900476Y-89442857D01*
X155948095Y-89633333D01*
X155948095Y-89871428D01*
X155900476Y-90061904D01*
X155852857Y-90157142D01*
X155805238Y-90204761D01*
X155710000Y-90252380D01*
X155614761Y-90252380D01*
X155519523Y-90204761D01*
X155471904Y-90157142D01*
X155424285Y-90061904D01*
X155376666Y-89871428D01*
X155376666Y-89633333D01*
X155424285Y-89442857D01*
X155471904Y-89347619D01*
X155519523Y-89300000D01*
X155614761Y-89252380D01*
D11*
X154626666Y-88376190D02*
X154460000Y-88138095D01*
X154340952Y-88376190D02*
X154340952Y-87876190D01*
X154531428Y-87876190D01*
X154579047Y-87900000D01*
X154602857Y-87923809D01*
X154626666Y-87971428D01*
X154626666Y-88042857D01*
X154602857Y-88090476D01*
X154579047Y-88114285D01*
X154531428Y-88138095D01*
X154340952Y-88138095D01*
X155102857Y-88376190D02*
X154817142Y-88376190D01*
X154960000Y-88376190D02*
X154960000Y-87876190D01*
X154912380Y-87947619D01*
X154864761Y-87995238D01*
X154817142Y-88019047D01*
D10*
%TO.C,J1*%
X150257142Y-118275714D02*
X150304761Y-118323333D01*
X150352380Y-118466190D01*
X150352380Y-118561428D01*
X150304761Y-118704285D01*
X150209523Y-118799523D01*
X150114285Y-118847142D01*
X149923809Y-118894761D01*
X149780952Y-118894761D01*
X149590476Y-118847142D01*
X149495238Y-118799523D01*
X149400000Y-118704285D01*
X149352380Y-118561428D01*
X149352380Y-118466190D01*
X149400000Y-118323333D01*
X149447619Y-118275714D01*
X150352380Y-117704285D02*
X150304761Y-117799523D01*
X150257142Y-117847142D01*
X150161904Y-117894761D01*
X149876190Y-117894761D01*
X149780952Y-117847142D01*
X149733333Y-117799523D01*
X149685714Y-117704285D01*
X149685714Y-117561428D01*
X149733333Y-117466190D01*
X149780952Y-117418571D01*
X149876190Y-117370952D01*
X150161904Y-117370952D01*
X150257142Y-117418571D01*
X150304761Y-117466190D01*
X150352380Y-117561428D01*
X150352380Y-117704285D01*
X149685714Y-116942380D02*
X150352380Y-116942380D01*
X149780952Y-116942380D02*
X149733333Y-116894761D01*
X149685714Y-116799523D01*
X149685714Y-116656666D01*
X149733333Y-116561428D01*
X149828571Y-116513809D01*
X150352380Y-116513809D01*
X149685714Y-116037619D02*
X150352380Y-116037619D01*
X149780952Y-116037619D02*
X149733333Y-115990000D01*
X149685714Y-115894761D01*
X149685714Y-115751904D01*
X149733333Y-115656666D01*
X149828571Y-115609047D01*
X150352380Y-115609047D01*
X150447619Y-115370952D02*
X150447619Y-114609047D01*
X149352380Y-114180476D02*
X149352380Y-114085238D01*
X149400000Y-113990000D01*
X149447619Y-113942380D01*
X149542857Y-113894761D01*
X149733333Y-113847142D01*
X149971428Y-113847142D01*
X150161904Y-113894761D01*
X150257142Y-113942380D01*
X150304761Y-113990000D01*
X150352380Y-114085238D01*
X150352380Y-114180476D01*
X150304761Y-114275714D01*
X150257142Y-114323333D01*
X150161904Y-114370952D01*
X149971428Y-114418571D01*
X149733333Y-114418571D01*
X149542857Y-114370952D01*
X149447619Y-114323333D01*
X149400000Y-114275714D01*
X149352380Y-114180476D01*
X150352380Y-112894761D02*
X150352380Y-113466190D01*
X150352380Y-113180476D02*
X149352380Y-113180476D01*
X149495238Y-113275714D01*
X149590476Y-113370952D01*
X149638095Y-113466190D01*
X150352380Y-112561428D02*
X149685714Y-112037619D01*
X149685714Y-112561428D02*
X150352380Y-112037619D01*
X149352380Y-111466190D02*
X149352380Y-111370952D01*
X149400000Y-111275714D01*
X149447619Y-111228095D01*
X149542857Y-111180476D01*
X149733333Y-111132857D01*
X149971428Y-111132857D01*
X150161904Y-111180476D01*
X150257142Y-111228095D01*
X150304761Y-111275714D01*
X150352380Y-111370952D01*
X150352380Y-111466190D01*
X150304761Y-111561428D01*
X150257142Y-111609047D01*
X150161904Y-111656666D01*
X149971428Y-111704285D01*
X149733333Y-111704285D01*
X149542857Y-111656666D01*
X149447619Y-111609047D01*
X149400000Y-111561428D01*
X149352380Y-111466190D01*
X149780952Y-110561428D02*
X149733333Y-110656666D01*
X149685714Y-110704285D01*
X149590476Y-110751904D01*
X149542857Y-110751904D01*
X149447619Y-110704285D01*
X149400000Y-110656666D01*
X149352380Y-110561428D01*
X149352380Y-110370952D01*
X149400000Y-110275714D01*
X149447619Y-110228095D01*
X149542857Y-110180476D01*
X149590476Y-110180476D01*
X149685714Y-110228095D01*
X149733333Y-110275714D01*
X149780952Y-110370952D01*
X149780952Y-110561428D01*
X149828571Y-110656666D01*
X149876190Y-110704285D01*
X149971428Y-110751904D01*
X150161904Y-110751904D01*
X150257142Y-110704285D01*
X150304761Y-110656666D01*
X150352380Y-110561428D01*
X150352380Y-110370952D01*
X150304761Y-110275714D01*
X150257142Y-110228095D01*
X150161904Y-110180476D01*
X149971428Y-110180476D01*
X149876190Y-110228095D01*
X149828571Y-110275714D01*
X149780952Y-110370952D01*
X150447619Y-109990000D02*
X150447619Y-109228095D01*
X149828571Y-108656666D02*
X149828571Y-108990000D01*
X150352380Y-108990000D02*
X149352380Y-108990000D01*
X149352380Y-108513809D01*
X150304761Y-107751904D02*
X150352380Y-107847142D01*
X150352380Y-108037619D01*
X150304761Y-108132857D01*
X150209523Y-108180476D01*
X149828571Y-108180476D01*
X149733333Y-108132857D01*
X149685714Y-108037619D01*
X149685714Y-107847142D01*
X149733333Y-107751904D01*
X149828571Y-107704285D01*
X149923809Y-107704285D01*
X150019047Y-108180476D01*
X150352380Y-107275714D02*
X149685714Y-107275714D01*
X149780952Y-107275714D02*
X149733333Y-107228095D01*
X149685714Y-107132857D01*
X149685714Y-106990000D01*
X149733333Y-106894761D01*
X149828571Y-106847142D01*
X150352380Y-106847142D01*
X149828571Y-106847142D02*
X149733333Y-106799523D01*
X149685714Y-106704285D01*
X149685714Y-106561428D01*
X149733333Y-106466190D01*
X149828571Y-106418571D01*
X150352380Y-106418571D01*
X150352380Y-105513809D02*
X149828571Y-105513809D01*
X149733333Y-105561428D01*
X149685714Y-105656666D01*
X149685714Y-105847142D01*
X149733333Y-105942380D01*
X150304761Y-105513809D02*
X150352380Y-105609047D01*
X150352380Y-105847142D01*
X150304761Y-105942380D01*
X150209523Y-105990000D01*
X150114285Y-105990000D01*
X150019047Y-105942380D01*
X149971428Y-105847142D01*
X149971428Y-105609047D01*
X149923809Y-105513809D01*
X150352380Y-104894761D02*
X150304761Y-104990000D01*
X150209523Y-105037619D01*
X149352380Y-105037619D01*
X150304761Y-104132857D02*
X150352380Y-104228095D01*
X150352380Y-104418571D01*
X150304761Y-104513809D01*
X150209523Y-104561428D01*
X149828571Y-104561428D01*
X149733333Y-104513809D01*
X149685714Y-104418571D01*
X149685714Y-104228095D01*
X149733333Y-104132857D01*
X149828571Y-104085238D01*
X149923809Y-104085238D01*
X150019047Y-104561428D01*
X161226666Y-110942380D02*
X161226666Y-111656666D01*
X161179047Y-111799523D01*
X161083809Y-111894761D01*
X160940952Y-111942380D01*
X160845714Y-111942380D01*
X162226666Y-111942380D02*
X161655238Y-111942380D01*
X161940952Y-111942380D02*
X161940952Y-110942380D01*
X161845714Y-111085238D01*
X161750476Y-111180476D01*
X161655238Y-111228095D01*
%TO.C,R2*%
X153871904Y-104407619D02*
X153919523Y-104360000D01*
X154014761Y-104312380D01*
X154252857Y-104312380D01*
X154348095Y-104360000D01*
X154395714Y-104407619D01*
X154443333Y-104502857D01*
X154443333Y-104598095D01*
X154395714Y-104740952D01*
X153824285Y-105312380D01*
X154443333Y-105312380D01*
X154824285Y-104407619D02*
X154871904Y-104360000D01*
X154967142Y-104312380D01*
X155205238Y-104312380D01*
X155300476Y-104360000D01*
X155348095Y-104407619D01*
X155395714Y-104502857D01*
X155395714Y-104598095D01*
X155348095Y-104740952D01*
X154776666Y-105312380D01*
X155395714Y-105312380D01*
X156014761Y-104312380D02*
X156110000Y-104312380D01*
X156205238Y-104360000D01*
X156252857Y-104407619D01*
X156300476Y-104502857D01*
X156348095Y-104693333D01*
X156348095Y-104931428D01*
X156300476Y-105121904D01*
X156252857Y-105217142D01*
X156205238Y-105264761D01*
X156110000Y-105312380D01*
X156014761Y-105312380D01*
X155919523Y-105264761D01*
X155871904Y-105217142D01*
X155824285Y-105121904D01*
X155776666Y-104931428D01*
X155776666Y-104693333D01*
X155824285Y-104502857D01*
X155871904Y-104407619D01*
X155919523Y-104360000D01*
X156014761Y-104312380D01*
D11*
X155026666Y-106736190D02*
X154860000Y-106498095D01*
X154740952Y-106736190D02*
X154740952Y-106236190D01*
X154931428Y-106236190D01*
X154979047Y-106260000D01*
X155002857Y-106283809D01*
X155026666Y-106331428D01*
X155026666Y-106402857D01*
X155002857Y-106450476D01*
X154979047Y-106474285D01*
X154931428Y-106498095D01*
X154740952Y-106498095D01*
X155217142Y-106283809D02*
X155240952Y-106260000D01*
X155288571Y-106236190D01*
X155407619Y-106236190D01*
X155455238Y-106260000D01*
X155479047Y-106283809D01*
X155502857Y-106331428D01*
X155502857Y-106379047D01*
X155479047Y-106450476D01*
X155193333Y-106736190D01*
X155502857Y-106736190D01*
D10*
%TO.C,VDD1*%
X169057142Y-86253333D02*
X169104761Y-86300952D01*
X169152380Y-86443809D01*
X169152380Y-86539047D01*
X169104761Y-86681904D01*
X169009523Y-86777142D01*
X168914285Y-86824761D01*
X168723809Y-86872380D01*
X168580952Y-86872380D01*
X168390476Y-86824761D01*
X168295238Y-86777142D01*
X168200000Y-86681904D01*
X168152380Y-86539047D01*
X168152380Y-86443809D01*
X168200000Y-86300952D01*
X168247619Y-86253333D01*
X169152380Y-85681904D02*
X169104761Y-85777142D01*
X169057142Y-85824761D01*
X168961904Y-85872380D01*
X168676190Y-85872380D01*
X168580952Y-85824761D01*
X168533333Y-85777142D01*
X168485714Y-85681904D01*
X168485714Y-85539047D01*
X168533333Y-85443809D01*
X168580952Y-85396190D01*
X168676190Y-85348571D01*
X168961904Y-85348571D01*
X169057142Y-85396190D01*
X169104761Y-85443809D01*
X169152380Y-85539047D01*
X169152380Y-85681904D01*
X168485714Y-84920000D02*
X169152380Y-84920000D01*
X168580952Y-84920000D02*
X168533333Y-84872380D01*
X168485714Y-84777142D01*
X168485714Y-84634285D01*
X168533333Y-84539047D01*
X168628571Y-84491428D01*
X169152380Y-84491428D01*
X168485714Y-84015238D02*
X169152380Y-84015238D01*
X168580952Y-84015238D02*
X168533333Y-83967619D01*
X168485714Y-83872380D01*
X168485714Y-83729523D01*
X168533333Y-83634285D01*
X168628571Y-83586666D01*
X169152380Y-83586666D01*
X169247619Y-83348571D02*
X169247619Y-82586666D01*
X168152380Y-82158095D02*
X168152380Y-82062857D01*
X168200000Y-81967619D01*
X168247619Y-81920000D01*
X168342857Y-81872380D01*
X168533333Y-81824761D01*
X168771428Y-81824761D01*
X168961904Y-81872380D01*
X169057142Y-81920000D01*
X169104761Y-81967619D01*
X169152380Y-82062857D01*
X169152380Y-82158095D01*
X169104761Y-82253333D01*
X169057142Y-82300952D01*
X168961904Y-82348571D01*
X168771428Y-82396190D01*
X168533333Y-82396190D01*
X168342857Y-82348571D01*
X168247619Y-82300952D01*
X168200000Y-82253333D01*
X168152380Y-82158095D01*
X169152380Y-80872380D02*
X169152380Y-81443809D01*
X169152380Y-81158095D02*
X168152380Y-81158095D01*
X168295238Y-81253333D01*
X168390476Y-81348571D01*
X168438095Y-81443809D01*
X169152380Y-80539047D02*
X168485714Y-80015238D01*
X168485714Y-80539047D02*
X169152380Y-80015238D01*
X168152380Y-79443809D02*
X168152380Y-79348571D01*
X168200000Y-79253333D01*
X168247619Y-79205714D01*
X168342857Y-79158095D01*
X168533333Y-79110476D01*
X168771428Y-79110476D01*
X168961904Y-79158095D01*
X169057142Y-79205714D01*
X169104761Y-79253333D01*
X169152380Y-79348571D01*
X169152380Y-79443809D01*
X169104761Y-79539047D01*
X169057142Y-79586666D01*
X168961904Y-79634285D01*
X168771428Y-79681904D01*
X168533333Y-79681904D01*
X168342857Y-79634285D01*
X168247619Y-79586666D01*
X168200000Y-79539047D01*
X168152380Y-79443809D01*
X168152380Y-78205714D02*
X168152380Y-78681904D01*
X168628571Y-78729523D01*
X168580952Y-78681904D01*
X168533333Y-78586666D01*
X168533333Y-78348571D01*
X168580952Y-78253333D01*
X168628571Y-78205714D01*
X168723809Y-78158095D01*
X168961904Y-78158095D01*
X169057142Y-78205714D01*
X169104761Y-78253333D01*
X169152380Y-78348571D01*
X169152380Y-78586666D01*
X169104761Y-78681904D01*
X169057142Y-78729523D01*
X169247619Y-77967619D02*
X169247619Y-77205714D01*
X169152380Y-76967619D02*
X168152380Y-76967619D01*
X168866666Y-76634285D01*
X168152380Y-76300952D01*
X169152380Y-76300952D01*
X169152380Y-75396190D02*
X168628571Y-75396190D01*
X168533333Y-75443809D01*
X168485714Y-75539047D01*
X168485714Y-75729523D01*
X168533333Y-75824761D01*
X169104761Y-75396190D02*
X169152380Y-75491428D01*
X169152380Y-75729523D01*
X169104761Y-75824761D01*
X169009523Y-75872380D01*
X168914285Y-75872380D01*
X168819047Y-75824761D01*
X168771428Y-75729523D01*
X168771428Y-75491428D01*
X168723809Y-75396190D01*
X169152380Y-74777142D02*
X169104761Y-74872380D01*
X169009523Y-74920000D01*
X168152380Y-74920000D01*
X169104761Y-74015238D02*
X169152380Y-74110476D01*
X169152380Y-74300952D01*
X169104761Y-74396190D01*
X169009523Y-74443809D01*
X168628571Y-74443809D01*
X168533333Y-74396190D01*
X168485714Y-74300952D01*
X168485714Y-74110476D01*
X168533333Y-74015238D01*
X168628571Y-73967619D01*
X168723809Y-73967619D01*
X168819047Y-74443809D01*
X165362380Y-82539523D02*
X166362380Y-82206190D01*
X165362380Y-81872857D01*
X166362380Y-81539523D02*
X165362380Y-81539523D01*
X165362380Y-81301428D01*
X165410000Y-81158571D01*
X165505238Y-81063333D01*
X165600476Y-81015714D01*
X165790952Y-80968095D01*
X165933809Y-80968095D01*
X166124285Y-81015714D01*
X166219523Y-81063333D01*
X166314761Y-81158571D01*
X166362380Y-81301428D01*
X166362380Y-81539523D01*
X166362380Y-80539523D02*
X165362380Y-80539523D01*
X165362380Y-80301428D01*
X165410000Y-80158571D01*
X165505238Y-80063333D01*
X165600476Y-80015714D01*
X165790952Y-79968095D01*
X165933809Y-79968095D01*
X166124285Y-80015714D01*
X166219523Y-80063333D01*
X166314761Y-80158571D01*
X166362380Y-80301428D01*
X166362380Y-80539523D01*
X166362380Y-79015714D02*
X166362380Y-79587142D01*
X166362380Y-79301428D02*
X165362380Y-79301428D01*
X165505238Y-79396666D01*
X165600476Y-79491904D01*
X165648095Y-79587142D01*
%TO.C,R3*%
X153721904Y-103047619D02*
X153769523Y-103000000D01*
X153864761Y-102952380D01*
X154102857Y-102952380D01*
X154198095Y-103000000D01*
X154245714Y-103047619D01*
X154293333Y-103142857D01*
X154293333Y-103238095D01*
X154245714Y-103380952D01*
X153674285Y-103952380D01*
X154293333Y-103952380D01*
X154674285Y-103047619D02*
X154721904Y-103000000D01*
X154817142Y-102952380D01*
X155055238Y-102952380D01*
X155150476Y-103000000D01*
X155198095Y-103047619D01*
X155245714Y-103142857D01*
X155245714Y-103238095D01*
X155198095Y-103380952D01*
X154626666Y-103952380D01*
X155245714Y-103952380D01*
X155864761Y-102952380D02*
X155960000Y-102952380D01*
X156055238Y-103000000D01*
X156102857Y-103047619D01*
X156150476Y-103142857D01*
X156198095Y-103333333D01*
X156198095Y-103571428D01*
X156150476Y-103761904D01*
X156102857Y-103857142D01*
X156055238Y-103904761D01*
X155960000Y-103952380D01*
X155864761Y-103952380D01*
X155769523Y-103904761D01*
X155721904Y-103857142D01*
X155674285Y-103761904D01*
X155626666Y-103571428D01*
X155626666Y-103333333D01*
X155674285Y-103142857D01*
X155721904Y-103047619D01*
X155769523Y-103000000D01*
X155864761Y-102952380D01*
D11*
X154876666Y-102076190D02*
X154710000Y-101838095D01*
X154590952Y-102076190D02*
X154590952Y-101576190D01*
X154781428Y-101576190D01*
X154829047Y-101600000D01*
X154852857Y-101623809D01*
X154876666Y-101671428D01*
X154876666Y-101742857D01*
X154852857Y-101790476D01*
X154829047Y-101814285D01*
X154781428Y-101838095D01*
X154590952Y-101838095D01*
X155043333Y-101576190D02*
X155352857Y-101576190D01*
X155186190Y-101766666D01*
X155257619Y-101766666D01*
X155305238Y-101790476D01*
X155329047Y-101814285D01*
X155352857Y-101861904D01*
X155352857Y-101980952D01*
X155329047Y-102028571D01*
X155305238Y-102052380D01*
X155257619Y-102076190D01*
X155114761Y-102076190D01*
X155067142Y-102052380D01*
X155043333Y-102028571D01*
D10*
%TO.C,Data1*%
X169197142Y-104663333D02*
X169244761Y-104710952D01*
X169292380Y-104853809D01*
X169292380Y-104949047D01*
X169244761Y-105091904D01*
X169149523Y-105187142D01*
X169054285Y-105234761D01*
X168863809Y-105282380D01*
X168720952Y-105282380D01*
X168530476Y-105234761D01*
X168435238Y-105187142D01*
X168340000Y-105091904D01*
X168292380Y-104949047D01*
X168292380Y-104853809D01*
X168340000Y-104710952D01*
X168387619Y-104663333D01*
X169292380Y-104091904D02*
X169244761Y-104187142D01*
X169197142Y-104234761D01*
X169101904Y-104282380D01*
X168816190Y-104282380D01*
X168720952Y-104234761D01*
X168673333Y-104187142D01*
X168625714Y-104091904D01*
X168625714Y-103949047D01*
X168673333Y-103853809D01*
X168720952Y-103806190D01*
X168816190Y-103758571D01*
X169101904Y-103758571D01*
X169197142Y-103806190D01*
X169244761Y-103853809D01*
X169292380Y-103949047D01*
X169292380Y-104091904D01*
X168625714Y-103330000D02*
X169292380Y-103330000D01*
X168720952Y-103330000D02*
X168673333Y-103282380D01*
X168625714Y-103187142D01*
X168625714Y-103044285D01*
X168673333Y-102949047D01*
X168768571Y-102901428D01*
X169292380Y-102901428D01*
X168625714Y-102425238D02*
X169292380Y-102425238D01*
X168720952Y-102425238D02*
X168673333Y-102377619D01*
X168625714Y-102282380D01*
X168625714Y-102139523D01*
X168673333Y-102044285D01*
X168768571Y-101996666D01*
X169292380Y-101996666D01*
X169387619Y-101758571D02*
X169387619Y-100996666D01*
X168292380Y-100568095D02*
X168292380Y-100472857D01*
X168340000Y-100377619D01*
X168387619Y-100330000D01*
X168482857Y-100282380D01*
X168673333Y-100234761D01*
X168911428Y-100234761D01*
X169101904Y-100282380D01*
X169197142Y-100330000D01*
X169244761Y-100377619D01*
X169292380Y-100472857D01*
X169292380Y-100568095D01*
X169244761Y-100663333D01*
X169197142Y-100710952D01*
X169101904Y-100758571D01*
X168911428Y-100806190D01*
X168673333Y-100806190D01*
X168482857Y-100758571D01*
X168387619Y-100710952D01*
X168340000Y-100663333D01*
X168292380Y-100568095D01*
X169292380Y-99282380D02*
X169292380Y-99853809D01*
X169292380Y-99568095D02*
X168292380Y-99568095D01*
X168435238Y-99663333D01*
X168530476Y-99758571D01*
X168578095Y-99853809D01*
X169292380Y-98949047D02*
X168625714Y-98425238D01*
X168625714Y-98949047D02*
X169292380Y-98425238D01*
X168292380Y-97853809D02*
X168292380Y-97758571D01*
X168340000Y-97663333D01*
X168387619Y-97615714D01*
X168482857Y-97568095D01*
X168673333Y-97520476D01*
X168911428Y-97520476D01*
X169101904Y-97568095D01*
X169197142Y-97615714D01*
X169244761Y-97663333D01*
X169292380Y-97758571D01*
X169292380Y-97853809D01*
X169244761Y-97949047D01*
X169197142Y-97996666D01*
X169101904Y-98044285D01*
X168911428Y-98091904D01*
X168673333Y-98091904D01*
X168482857Y-98044285D01*
X168387619Y-97996666D01*
X168340000Y-97949047D01*
X168292380Y-97853809D01*
X168292380Y-96615714D02*
X168292380Y-97091904D01*
X168768571Y-97139523D01*
X168720952Y-97091904D01*
X168673333Y-96996666D01*
X168673333Y-96758571D01*
X168720952Y-96663333D01*
X168768571Y-96615714D01*
X168863809Y-96568095D01*
X169101904Y-96568095D01*
X169197142Y-96615714D01*
X169244761Y-96663333D01*
X169292380Y-96758571D01*
X169292380Y-96996666D01*
X169244761Y-97091904D01*
X169197142Y-97139523D01*
X169387619Y-96377619D02*
X169387619Y-95615714D01*
X169292380Y-95377619D02*
X168292380Y-95377619D01*
X169006666Y-95044285D01*
X168292380Y-94710952D01*
X169292380Y-94710952D01*
X169292380Y-93806190D02*
X168768571Y-93806190D01*
X168673333Y-93853809D01*
X168625714Y-93949047D01*
X168625714Y-94139523D01*
X168673333Y-94234761D01*
X169244761Y-93806190D02*
X169292380Y-93901428D01*
X169292380Y-94139523D01*
X169244761Y-94234761D01*
X169149523Y-94282380D01*
X169054285Y-94282380D01*
X168959047Y-94234761D01*
X168911428Y-94139523D01*
X168911428Y-93901428D01*
X168863809Y-93806190D01*
X169292380Y-93187142D02*
X169244761Y-93282380D01*
X169149523Y-93330000D01*
X168292380Y-93330000D01*
X169244761Y-92425238D02*
X169292380Y-92520476D01*
X169292380Y-92710952D01*
X169244761Y-92806190D01*
X169149523Y-92853809D01*
X168768571Y-92853809D01*
X168673333Y-92806190D01*
X168625714Y-92710952D01*
X168625714Y-92520476D01*
X168673333Y-92425238D01*
X168768571Y-92377619D01*
X168863809Y-92377619D01*
X168959047Y-92853809D01*
X166492380Y-99028571D02*
X165492380Y-99028571D01*
X165492380Y-98790476D01*
X165540000Y-98647619D01*
X165635238Y-98552380D01*
X165730476Y-98504761D01*
X165920952Y-98457142D01*
X166063809Y-98457142D01*
X166254285Y-98504761D01*
X166349523Y-98552380D01*
X166444761Y-98647619D01*
X166492380Y-98790476D01*
X166492380Y-99028571D01*
X166492380Y-97600000D02*
X165968571Y-97600000D01*
X165873333Y-97647619D01*
X165825714Y-97742857D01*
X165825714Y-97933333D01*
X165873333Y-98028571D01*
X166444761Y-97600000D02*
X166492380Y-97695238D01*
X166492380Y-97933333D01*
X166444761Y-98028571D01*
X166349523Y-98076190D01*
X166254285Y-98076190D01*
X166159047Y-98028571D01*
X166111428Y-97933333D01*
X166111428Y-97695238D01*
X166063809Y-97600000D01*
X165825714Y-97266666D02*
X165825714Y-96885714D01*
X165492380Y-97123809D02*
X166349523Y-97123809D01*
X166444761Y-97076190D01*
X166492380Y-96980952D01*
X166492380Y-96885714D01*
X166492380Y-96123809D02*
X165968571Y-96123809D01*
X165873333Y-96171428D01*
X165825714Y-96266666D01*
X165825714Y-96457142D01*
X165873333Y-96552380D01*
X166444761Y-96123809D02*
X166492380Y-96219047D01*
X166492380Y-96457142D01*
X166444761Y-96552380D01*
X166349523Y-96600000D01*
X166254285Y-96600000D01*
X166159047Y-96552380D01*
X166111428Y-96457142D01*
X166111428Y-96219047D01*
X166063809Y-96123809D01*
X166492380Y-95123809D02*
X166492380Y-95695238D01*
X166492380Y-95409523D02*
X165492380Y-95409523D01*
X165635238Y-95504761D01*
X165730476Y-95600000D01*
X165778095Y-95695238D01*
D12*
%TO.C,R5*%
X155850000Y-91945000D02*
X155850000Y-93195000D01*
X153850000Y-91945000D02*
X155850000Y-91945000D01*
X155850000Y-93195000D02*
X153850000Y-93195000D01*
X153850000Y-93195000D02*
X153850000Y-91945000D01*
%TO.C,A1*%
X135380000Y-72470000D02*
X143000000Y-72470000D01*
X148080000Y-116920000D02*
X146810000Y-118190000D01*
X135380000Y-82630000D02*
X135380000Y-72470000D01*
X130300000Y-75010000D02*
X148080000Y-75010000D01*
X148080000Y-75010000D02*
X148080000Y-116920000D01*
X130300000Y-118190000D02*
X130300000Y-75010000D01*
X146810000Y-118190000D02*
X130300000Y-118190000D01*
X143000000Y-82630000D02*
X135380000Y-82630000D01*
X143000000Y-72470000D02*
X143000000Y-82630000D01*
%TO.C,R4*%
X153960000Y-97885000D02*
X153960000Y-96635000D01*
X155960000Y-96635000D02*
X155960000Y-97885000D01*
X155960000Y-97885000D02*
X153960000Y-97885000D01*
X153960000Y-96635000D02*
X155960000Y-96635000D01*
%TO.C,R1*%
X155710000Y-87525000D02*
X155710000Y-88775000D01*
X155710000Y-88775000D02*
X153710000Y-88775000D01*
X153710000Y-88775000D02*
X153710000Y-87525000D01*
X153710000Y-87525000D02*
X155710000Y-87525000D01*
%TO.C,J1*%
X151400000Y-112760000D02*
X151400000Y-110220000D01*
X171720000Y-112125000D02*
X171085000Y-112760000D01*
X171720000Y-110220000D02*
X171720000Y-112125000D01*
X151400000Y-110220000D02*
X171720000Y-110220000D01*
X171085000Y-112760000D02*
X151400000Y-112760000D01*
%TO.C,R2*%
X156110000Y-107135000D02*
X154110000Y-107135000D01*
X154110000Y-107135000D02*
X154110000Y-105885000D01*
X154110000Y-105885000D02*
X156110000Y-105885000D01*
X156110000Y-105885000D02*
X156110000Y-107135000D01*
%TO.C,VDD1*%
X163660000Y-85730000D02*
X164660000Y-85105000D01*
X171660000Y-80730000D02*
X171660000Y-73280000D01*
X164660000Y-86980000D02*
X164660000Y-80730000D01*
X164660000Y-74480000D02*
X164660000Y-80730000D01*
X171660000Y-88180000D02*
X160160000Y-88180000D01*
X160160000Y-88180000D02*
X160160000Y-86980000D01*
X171660000Y-73280000D02*
X160160000Y-73280000D01*
X164660000Y-86355000D02*
X163660000Y-85730000D01*
X160160000Y-86980000D02*
X164660000Y-86980000D01*
X160160000Y-73280000D02*
X160160000Y-74480000D01*
X171660000Y-80730000D02*
X171660000Y-88180000D01*
X160160000Y-74480000D02*
X164660000Y-74480000D01*
%TO.C,R3*%
X155960000Y-101225000D02*
X155960000Y-102475000D01*
X155960000Y-102475000D02*
X153960000Y-102475000D01*
X153960000Y-102475000D02*
X153960000Y-101225000D01*
X153960000Y-101225000D02*
X155960000Y-101225000D01*
%TO.C,Data1*%
X160290000Y-104550000D02*
X160290000Y-103350000D01*
X171790000Y-97100000D02*
X171790000Y-104550000D01*
X160290000Y-90850000D02*
X164790000Y-90850000D01*
X164790000Y-102725000D02*
X163790000Y-102100000D01*
X164790000Y-103350000D02*
X164790000Y-97100000D01*
X171790000Y-89650000D02*
X160290000Y-89650000D01*
X164790000Y-90850000D02*
X164790000Y-97100000D01*
X160290000Y-89650000D02*
X160290000Y-90850000D01*
X163790000Y-102100000D02*
X164790000Y-101475000D01*
X160290000Y-103350000D02*
X164790000Y-103350000D01*
X171790000Y-104550000D02*
X160290000Y-104550000D01*
X171790000Y-97100000D02*
X171790000Y-89650000D01*
%TD*%
M02*
