%TF.GenerationSoftware,KiCad,Pcbnew,(6.0.7)*%
%TF.CreationDate,2023-03-11T00:51:03-05:00*%
%TF.ProjectId,GNERAL,474e4552-414c-42e6-9b69-6361645f7063,rev?*%
%TF.SameCoordinates,Original*%
%TF.FileFunction,Other,User*%
%FSLAX46Y46*%
G04 Gerber Fmt 4.6, Leading zero omitted, Abs format (unit mm)*
G04 Created by KiCad (PCBNEW (6.0.7)) date 2023-03-11 00:51:03*
%MOMM*%
%LPD*%
G01*
G04 APERTURE LIST*
%ADD10C,0.050000*%
G04 APERTURE END LIST*
D10*
%TO.C,R5*%
X153000000Y-93520000D02*
X153000000Y-91620000D01*
X153000000Y-91620000D02*
X156700000Y-91620000D01*
X156700000Y-93520000D02*
X153000000Y-93520000D01*
X156700000Y-91620000D02*
X156700000Y-93520000D01*
%TO.C,A1*%
X130060000Y-72220000D02*
X148340000Y-72220000D01*
X148340000Y-118440000D02*
X130060000Y-118440000D01*
X148340000Y-118440000D02*
X148340000Y-72220000D01*
X130060000Y-72220000D02*
X130060000Y-118440000D01*
%TO.C,R4*%
X156810000Y-96310000D02*
X156810000Y-98210000D01*
X153110000Y-98210000D02*
X153110000Y-96310000D01*
X153110000Y-96310000D02*
X156810000Y-96310000D01*
X156810000Y-98210000D02*
X153110000Y-98210000D01*
%TO.C,R1*%
X152860000Y-89100000D02*
X152860000Y-87200000D01*
X152860000Y-87200000D02*
X156560000Y-87200000D01*
X156560000Y-87200000D02*
X156560000Y-89100000D01*
X156560000Y-89100000D02*
X152860000Y-89100000D01*
%TO.C,J1*%
X172250000Y-109690000D02*
X172250000Y-113240000D01*
X150900000Y-109690000D02*
X172250000Y-109690000D01*
X150900000Y-113240000D02*
X150900000Y-109690000D01*
X172250000Y-113240000D02*
X150900000Y-113240000D01*
%TO.C,R2*%
X153260000Y-105560000D02*
X156960000Y-105560000D01*
X153260000Y-107460000D02*
X153260000Y-105560000D01*
X156960000Y-107460000D02*
X153260000Y-107460000D01*
X156960000Y-105560000D02*
X156960000Y-107460000D01*
%TO.C,VDD1*%
X159660000Y-72780000D02*
X159660000Y-88680000D01*
X172160000Y-88680000D02*
X172160000Y-72780000D01*
X159660000Y-88680000D02*
X172160000Y-88680000D01*
X172160000Y-72780000D02*
X159660000Y-72780000D01*
%TO.C,R3*%
X153110000Y-102800000D02*
X153110000Y-100900000D01*
X156810000Y-100900000D02*
X156810000Y-102800000D01*
X156810000Y-102800000D02*
X153110000Y-102800000D01*
X153110000Y-100900000D02*
X156810000Y-100900000D01*
%TO.C,Data1*%
X159790000Y-105050000D02*
X172290000Y-105050000D01*
X159790000Y-89150000D02*
X159790000Y-105050000D01*
X172290000Y-105050000D02*
X172290000Y-89150000D01*
X172290000Y-89150000D02*
X159790000Y-89150000D01*
%TD*%
M02*
