M48
; DRILL file {KiCad (6.0.7)} date Sat Mar 11 00:51:16 2023
; FORMAT={-:-/ absolute / inch / decimal}
; #@! TF.CreationDate,2023-03-11T00:51:16-05:00
; #@! TF.GenerationSoftware,Kicad,Pcbnew,(6.0.7)
; #@! TF.FileFunction,Plated,1,2,PTH
FMAT,2
INCH
; #@! TA.AperFunction,Plated,PTH,ComponentDrill
T1C0.0374
; #@! TA.AperFunction,Plated,PTH,ComponentDrill
T2C0.0394
%
G90
G05
T1
X6.4591Y-2.9815
X6.4591Y-3.0799
X6.4591Y-3.1783
X6.4591Y-3.2768
X6.4591Y-3.3752
X6.4642Y-3.626
X6.4642Y-3.7244
X6.4642Y-3.8228
X6.4642Y-3.9213
X6.4642Y-4.0197
T2
X5.1799Y-3.1031
X5.1799Y-3.2031
X5.1799Y-3.3031
X5.1799Y-3.4031
X5.1799Y-3.5031
X5.1799Y-3.6031
X5.1799Y-3.7031
X5.1799Y-3.8031
X5.1799Y-3.9031
X5.1799Y-4.0031
X5.1799Y-4.1031
X5.1799Y-4.2031
X5.1799Y-4.3031
X5.1799Y-4.4031
X5.1799Y-4.5031
X5.7799Y-3.1031
X5.7799Y-3.2031
X5.7799Y-3.3031
X5.7799Y-3.4031
X5.7799Y-3.5031
X5.7799Y-3.6031
X5.7799Y-3.7031
X5.7799Y-3.8031
X5.7799Y-3.9031
X5.7799Y-4.0031
X5.7799Y-4.1031
X5.7799Y-4.2031
X5.7799Y-4.3031
X5.7799Y-4.4031
X5.7799Y-4.5031
X6.0106Y-4.3894
X6.1106Y-4.3894
X6.2106Y-4.3894
X6.3106Y-4.3894
X6.4106Y-4.3894
X6.5106Y-4.3894
X6.6106Y-4.3894
X6.7106Y-4.3894
T0
M30
