%TF.GenerationSoftware,KiCad,Pcbnew,(6.0.7)*%
%TF.CreationDate,2023-03-11T00:51:03-05:00*%
%TF.ProjectId,GNERAL,474e4552-414c-42e6-9b69-6361645f7063,rev?*%
%TF.SameCoordinates,Original*%
%TF.FileFunction,Legend,Top*%
%TF.FilePolarity,Positive*%
%FSLAX46Y46*%
G04 Gerber Fmt 4.6, Leading zero omitted, Abs format (unit mm)*
G04 Created by KiCad (PCBNEW (6.0.7)) date 2023-03-11 00:51:03*
%MOMM*%
%LPD*%
G01*
G04 APERTURE LIST*
%ADD10C,0.300000*%
%ADD11C,0.150000*%
%ADD12C,0.120000*%
G04 APERTURE END LIST*
D10*
%TO.C,KL*%
X151274000Y-75059428D02*
X151274000Y-73535428D01*
X152144857Y-75059428D02*
X151491714Y-74188571D01*
X152144857Y-73535428D02*
X151274000Y-74406285D01*
X153523714Y-75059428D02*
X152798000Y-75059428D01*
X152798000Y-73535428D01*
D11*
%TO.C,R5*%
X154683333Y-91372380D02*
X154350000Y-90896190D01*
X154111904Y-91372380D02*
X154111904Y-90372380D01*
X154492857Y-90372380D01*
X154588095Y-90420000D01*
X154635714Y-90467619D01*
X154683333Y-90562857D01*
X154683333Y-90705714D01*
X154635714Y-90800952D01*
X154588095Y-90848571D01*
X154492857Y-90896190D01*
X154111904Y-90896190D01*
X155588095Y-90372380D02*
X155111904Y-90372380D01*
X155064285Y-90848571D01*
X155111904Y-90800952D01*
X155207142Y-90753333D01*
X155445238Y-90753333D01*
X155540476Y-90800952D01*
X155588095Y-90848571D01*
X155635714Y-90943809D01*
X155635714Y-91181904D01*
X155588095Y-91277142D01*
X155540476Y-91324761D01*
X155445238Y-91372380D01*
X155207142Y-91372380D01*
X155111904Y-91324761D01*
X155064285Y-91277142D01*
%TO.C,A1*%
X138475714Y-119626666D02*
X138951904Y-119626666D01*
X138380476Y-119912380D02*
X138713809Y-118912380D01*
X139047142Y-119912380D01*
X139904285Y-119912380D02*
X139332857Y-119912380D01*
X139618571Y-119912380D02*
X139618571Y-118912380D01*
X139523333Y-119055238D01*
X139428095Y-119150476D01*
X139332857Y-119198095D01*
%TO.C,R4*%
X154793333Y-96062380D02*
X154460000Y-95586190D01*
X154221904Y-96062380D02*
X154221904Y-95062380D01*
X154602857Y-95062380D01*
X154698095Y-95110000D01*
X154745714Y-95157619D01*
X154793333Y-95252857D01*
X154793333Y-95395714D01*
X154745714Y-95490952D01*
X154698095Y-95538571D01*
X154602857Y-95586190D01*
X154221904Y-95586190D01*
X155650476Y-95395714D02*
X155650476Y-96062380D01*
X155412380Y-95014761D02*
X155174285Y-95729047D01*
X155793333Y-95729047D01*
%TO.C,R1*%
X151393333Y-88422380D02*
X151060000Y-87946190D01*
X150821904Y-88422380D02*
X150821904Y-87422380D01*
X151202857Y-87422380D01*
X151298095Y-87470000D01*
X151345714Y-87517619D01*
X151393333Y-87612857D01*
X151393333Y-87755714D01*
X151345714Y-87850952D01*
X151298095Y-87898571D01*
X151202857Y-87946190D01*
X150821904Y-87946190D01*
X152345714Y-88422380D02*
X151774285Y-88422380D01*
X152060000Y-88422380D02*
X152060000Y-87422380D01*
X151964761Y-87565238D01*
X151869523Y-87660476D01*
X151774285Y-87708095D01*
%TO.C,J1*%
X168912380Y-114843333D02*
X169626666Y-114843333D01*
X169769523Y-114890952D01*
X169864761Y-114986190D01*
X169912380Y-115129047D01*
X169912380Y-115224285D01*
X169912380Y-113843333D02*
X169912380Y-114414761D01*
X169912380Y-114129047D02*
X168912380Y-114129047D01*
X169055238Y-114224285D01*
X169150476Y-114319523D01*
X169198095Y-114414761D01*
%TO.C,R2*%
X154943333Y-108612380D02*
X154610000Y-108136190D01*
X154371904Y-108612380D02*
X154371904Y-107612380D01*
X154752857Y-107612380D01*
X154848095Y-107660000D01*
X154895714Y-107707619D01*
X154943333Y-107802857D01*
X154943333Y-107945714D01*
X154895714Y-108040952D01*
X154848095Y-108088571D01*
X154752857Y-108136190D01*
X154371904Y-108136190D01*
X155324285Y-107707619D02*
X155371904Y-107660000D01*
X155467142Y-107612380D01*
X155705238Y-107612380D01*
X155800476Y-107660000D01*
X155848095Y-107707619D01*
X155895714Y-107802857D01*
X155895714Y-107898095D01*
X155848095Y-108040952D01*
X155276666Y-108612380D01*
X155895714Y-108612380D01*
%TO.C,VDD1*%
X160672380Y-82369523D02*
X161672380Y-82036190D01*
X160672380Y-81702857D01*
X161672380Y-81369523D02*
X160672380Y-81369523D01*
X160672380Y-81131428D01*
X160720000Y-80988571D01*
X160815238Y-80893333D01*
X160910476Y-80845714D01*
X161100952Y-80798095D01*
X161243809Y-80798095D01*
X161434285Y-80845714D01*
X161529523Y-80893333D01*
X161624761Y-80988571D01*
X161672380Y-81131428D01*
X161672380Y-81369523D01*
X161672380Y-80369523D02*
X160672380Y-80369523D01*
X160672380Y-80131428D01*
X160720000Y-79988571D01*
X160815238Y-79893333D01*
X160910476Y-79845714D01*
X161100952Y-79798095D01*
X161243809Y-79798095D01*
X161434285Y-79845714D01*
X161529523Y-79893333D01*
X161624761Y-79988571D01*
X161672380Y-80131428D01*
X161672380Y-80369523D01*
X161672380Y-78845714D02*
X161672380Y-79417142D01*
X161672380Y-79131428D02*
X160672380Y-79131428D01*
X160815238Y-79226666D01*
X160910476Y-79321904D01*
X160958095Y-79417142D01*
%TO.C,R3*%
X154793333Y-100652380D02*
X154460000Y-100176190D01*
X154221904Y-100652380D02*
X154221904Y-99652380D01*
X154602857Y-99652380D01*
X154698095Y-99700000D01*
X154745714Y-99747619D01*
X154793333Y-99842857D01*
X154793333Y-99985714D01*
X154745714Y-100080952D01*
X154698095Y-100128571D01*
X154602857Y-100176190D01*
X154221904Y-100176190D01*
X155126666Y-99652380D02*
X155745714Y-99652380D01*
X155412380Y-100033333D01*
X155555238Y-100033333D01*
X155650476Y-100080952D01*
X155698095Y-100128571D01*
X155745714Y-100223809D01*
X155745714Y-100461904D01*
X155698095Y-100557142D01*
X155650476Y-100604761D01*
X155555238Y-100652380D01*
X155269523Y-100652380D01*
X155174285Y-100604761D01*
X155126666Y-100557142D01*
%TO.C,Data1*%
X159542380Y-99028571D02*
X158542380Y-99028571D01*
X158542380Y-98790476D01*
X158590000Y-98647619D01*
X158685238Y-98552380D01*
X158780476Y-98504761D01*
X158970952Y-98457142D01*
X159113809Y-98457142D01*
X159304285Y-98504761D01*
X159399523Y-98552380D01*
X159494761Y-98647619D01*
X159542380Y-98790476D01*
X159542380Y-99028571D01*
X159542380Y-97600000D02*
X159018571Y-97600000D01*
X158923333Y-97647619D01*
X158875714Y-97742857D01*
X158875714Y-97933333D01*
X158923333Y-98028571D01*
X159494761Y-97600000D02*
X159542380Y-97695238D01*
X159542380Y-97933333D01*
X159494761Y-98028571D01*
X159399523Y-98076190D01*
X159304285Y-98076190D01*
X159209047Y-98028571D01*
X159161428Y-97933333D01*
X159161428Y-97695238D01*
X159113809Y-97600000D01*
X158875714Y-97266666D02*
X158875714Y-96885714D01*
X158542380Y-97123809D02*
X159399523Y-97123809D01*
X159494761Y-97076190D01*
X159542380Y-96980952D01*
X159542380Y-96885714D01*
X159542380Y-96123809D02*
X159018571Y-96123809D01*
X158923333Y-96171428D01*
X158875714Y-96266666D01*
X158875714Y-96457142D01*
X158923333Y-96552380D01*
X159494761Y-96123809D02*
X159542380Y-96219047D01*
X159542380Y-96457142D01*
X159494761Y-96552380D01*
X159399523Y-96600000D01*
X159304285Y-96600000D01*
X159209047Y-96552380D01*
X159161428Y-96457142D01*
X159161428Y-96219047D01*
X159113809Y-96123809D01*
X159542380Y-95123809D02*
X159542380Y-95695238D01*
X159542380Y-95409523D02*
X158542380Y-95409523D01*
X158685238Y-95504761D01*
X158780476Y-95600000D01*
X158828095Y-95695238D01*
%TO.C,KL*%
G36*
X152561967Y-85611426D02*
G01*
X152616513Y-85629939D01*
X152669890Y-85649840D01*
X152699229Y-85650698D01*
X152719596Y-85632514D01*
X152721508Y-85629939D01*
X152747989Y-85601482D01*
X152764175Y-85606731D01*
X152772112Y-85649048D01*
X152773904Y-85715942D01*
X152769224Y-85793921D01*
X152755206Y-85829473D01*
X152731888Y-85822573D01*
X152699304Y-85773197D01*
X152697294Y-85769346D01*
X152647371Y-85703265D01*
X152580465Y-85653942D01*
X152507431Y-85625385D01*
X152439121Y-85621603D01*
X152386390Y-85646602D01*
X152380953Y-85652525D01*
X152362281Y-85685671D01*
X152367083Y-85717283D01*
X152399301Y-85750791D01*
X152462877Y-85789626D01*
X152561754Y-85837217D01*
X152625568Y-85865326D01*
X152716827Y-85913794D01*
X152772032Y-85966322D01*
X152783231Y-85984783D01*
X152814004Y-86080650D01*
X152807213Y-86166726D01*
X152768410Y-86238947D01*
X152703144Y-86293248D01*
X152616967Y-86325564D01*
X152515429Y-86331829D01*
X152404082Y-86307979D01*
X152363954Y-86291826D01*
X152291144Y-86264599D01*
X152248357Y-86264262D01*
X152231107Y-86291235D01*
X152230240Y-86304383D01*
X152218081Y-86332489D01*
X152208493Y-86335719D01*
X152197724Y-86315372D01*
X152190156Y-86259824D01*
X152186819Y-86177310D01*
X152186747Y-86161746D01*
X152188747Y-86080956D01*
X152194063Y-86020117D01*
X152201667Y-85989521D01*
X152204125Y-85987774D01*
X152222048Y-86006119D01*
X152244304Y-86051466D01*
X152248993Y-86063796D01*
X152289665Y-86141205D01*
X152349671Y-86215666D01*
X152416963Y-86274435D01*
X152476055Y-86303971D01*
X152555517Y-86311977D01*
X152613263Y-86293950D01*
X152641727Y-86252931D01*
X152643425Y-86236733D01*
X152638899Y-86209753D01*
X152620679Y-86185249D01*
X152581801Y-86158135D01*
X152515303Y-86123322D01*
X152438285Y-86086857D01*
X152345431Y-86042828D01*
X152284290Y-86009923D01*
X152246751Y-85981782D01*
X152224704Y-85952046D01*
X152210038Y-85914356D01*
X152207441Y-85905852D01*
X152197420Y-85809891D01*
X152223603Y-85726912D01*
X152279569Y-85661246D01*
X152358899Y-85617223D01*
X152455172Y-85599173D01*
X152561967Y-85611426D01*
G37*
G36*
X153735888Y-85601359D02*
G01*
X153803510Y-85604808D01*
X153840375Y-85609718D01*
X153840224Y-85615581D01*
X153839486Y-85615794D01*
X153785120Y-85630916D01*
X153785120Y-86301138D01*
X153839486Y-86316261D01*
X153841020Y-86322148D01*
X153805321Y-86327099D01*
X153738650Y-86330606D01*
X153647267Y-86332160D01*
X153643767Y-86332173D01*
X153531818Y-86331227D01*
X153462435Y-86327493D01*
X153434774Y-86320893D01*
X153442611Y-86313295D01*
X153467703Y-86299360D01*
X153482384Y-86275796D01*
X153489392Y-86232329D01*
X153491470Y-86158683D01*
X153491541Y-86129827D01*
X153491541Y-85966027D01*
X153295822Y-85966027D01*
X153295822Y-86129827D01*
X153296972Y-86214289D01*
X153302248Y-86265554D01*
X153314391Y-86293898D01*
X153336141Y-86309595D01*
X153344752Y-86313295D01*
X153350639Y-86322302D01*
X153315493Y-86328379D01*
X153238472Y-86331602D01*
X153143596Y-86332173D01*
X153051476Y-86330695D01*
X152983853Y-86327247D01*
X152946988Y-86322336D01*
X152947139Y-86316473D01*
X152947877Y-86316261D01*
X153002243Y-86301138D01*
X153002243Y-85630916D01*
X152947877Y-85615794D01*
X152946344Y-85609907D01*
X152982042Y-85604955D01*
X153048713Y-85601448D01*
X153140096Y-85599894D01*
X153143596Y-85599882D01*
X153251745Y-85600918D01*
X153322133Y-85604704D01*
X153352719Y-85611063D01*
X153347624Y-85617697D01*
X153311220Y-85645941D01*
X153291930Y-85698453D01*
X153288036Y-85782081D01*
X153291596Y-85840984D01*
X153300202Y-85944281D01*
X153491541Y-85944281D01*
X153491541Y-85791354D01*
X153490198Y-85710111D01*
X153484143Y-85661620D01*
X153470341Y-85635169D01*
X153445756Y-85620051D01*
X153442611Y-85618760D01*
X153436725Y-85609752D01*
X153471870Y-85603676D01*
X153548891Y-85600452D01*
X153643767Y-85599882D01*
X153735888Y-85601359D01*
G37*
G36*
X154466095Y-85604987D02*
G01*
X154559504Y-85629795D01*
X154618766Y-85648857D01*
X154651886Y-85651351D01*
X154673115Y-85636826D01*
X154681619Y-85625946D01*
X154701797Y-85602440D01*
X154715406Y-85602050D01*
X154724903Y-85630348D01*
X154732747Y-85692907D01*
X154738074Y-85753998D01*
X154742789Y-85835014D01*
X154739765Y-85880860D01*
X154728071Y-85899324D01*
X154720569Y-85900788D01*
X154695678Y-85881976D01*
X154676980Y-85836684D01*
X154676859Y-85836136D01*
X154645598Y-85762322D01*
X154591894Y-85697495D01*
X154525805Y-85648669D01*
X154457389Y-85622855D01*
X154396703Y-85627065D01*
X154385222Y-85632818D01*
X154330643Y-85685891D01*
X154295842Y-85768607D01*
X154279735Y-85884741D01*
X154279451Y-86000927D01*
X154290998Y-86138006D01*
X154313966Y-86234392D01*
X154348964Y-86291519D01*
X154396602Y-86310822D01*
X154410823Y-86309868D01*
X154451665Y-86284871D01*
X154475526Y-86232732D01*
X154482713Y-86166218D01*
X154473536Y-86098096D01*
X154448302Y-86041132D01*
X154407320Y-86008093D01*
X154403507Y-86006904D01*
X154402965Y-86001308D01*
X154439643Y-85996682D01*
X154507275Y-85993472D01*
X154599589Y-85992125D01*
X154611490Y-85992109D01*
X154706087Y-85993233D01*
X154776572Y-85996301D01*
X154816728Y-86000861D01*
X154820339Y-86006460D01*
X154818082Y-86007163D01*
X154789713Y-86018234D01*
X154772767Y-86038753D01*
X154763611Y-86078997D01*
X154758611Y-86149241D01*
X154757327Y-86178968D01*
X154752845Y-86255229D01*
X154746949Y-86310989D01*
X154740829Y-86335409D01*
X154740136Y-86335719D01*
X154717156Y-86324057D01*
X154674959Y-86295466D01*
X154667895Y-86290295D01*
X154606455Y-86244870D01*
X154517416Y-86290295D01*
X154405781Y-86326661D01*
X154285723Y-86331913D01*
X154175753Y-86305249D01*
X154175480Y-86305130D01*
X154083430Y-86243140D01*
X154013063Y-86152949D01*
X153970085Y-86046269D01*
X153960203Y-85934806D01*
X153969201Y-85881880D01*
X154020085Y-85769392D01*
X154101486Y-85682781D01*
X154207136Y-85624724D01*
X154330763Y-85597900D01*
X154466095Y-85604987D01*
G37*
G36*
X155055295Y-85938844D02*
G01*
X155099882Y-85813200D01*
X155133200Y-85722789D01*
X155158406Y-85661814D01*
X155178661Y-85624478D01*
X155197123Y-85604984D01*
X155216951Y-85597536D01*
X155241303Y-85596336D01*
X155241926Y-85596335D01*
X155278471Y-85599770D01*
X155304457Y-85616179D01*
X155327795Y-85654719D01*
X155356396Y-85724550D01*
X155359334Y-85732252D01*
X155423353Y-85899899D01*
X155473972Y-86031066D01*
X155512931Y-86130044D01*
X155541970Y-86201127D01*
X155562827Y-86248608D01*
X155577242Y-86276779D01*
X155583997Y-86286789D01*
X155622020Y-86306026D01*
X155681265Y-86313137D01*
X155740909Y-86307129D01*
X155770098Y-86295673D01*
X155781381Y-86276857D01*
X155788777Y-86233884D01*
X155792613Y-86161577D01*
X155793220Y-86054759D01*
X155791845Y-85953687D01*
X155785805Y-85629333D01*
X155720565Y-85615407D01*
X155716290Y-85610373D01*
X155749743Y-85606206D01*
X155815162Y-85603267D01*
X155906785Y-85601914D01*
X155938031Y-85601870D01*
X156037406Y-85602688D01*
X156113366Y-85604659D01*
X156159785Y-85607513D01*
X156170540Y-85610977D01*
X156166370Y-85612012D01*
X156117851Y-85625820D01*
X156094092Y-85638922D01*
X156087380Y-85665633D01*
X156080790Y-85727819D01*
X156074909Y-85817468D01*
X156070327Y-85926563D01*
X156068725Y-85985026D01*
X156061269Y-86313972D01*
X156128420Y-86313972D01*
X156188121Y-86295821D01*
X156257378Y-86247182D01*
X156326927Y-86176773D01*
X156387501Y-86093316D01*
X156413165Y-86046002D01*
X156441257Y-85998767D01*
X156465789Y-85977078D01*
X156472082Y-85977679D01*
X156481697Y-86003957D01*
X156488892Y-86062352D01*
X156492411Y-86141506D01*
X156492569Y-86163030D01*
X156492569Y-86335719D01*
X155823861Y-86333196D01*
X155660795Y-86332254D01*
X155514848Y-86330777D01*
X155390826Y-86328865D01*
X155293533Y-86326617D01*
X155227773Y-86324133D01*
X155198350Y-86321514D01*
X155198647Y-86320212D01*
X155247054Y-86301352D01*
X155265587Y-86268792D01*
X155258440Y-86211847D01*
X155251246Y-86186168D01*
X155231632Y-86129982D01*
X155207533Y-86104121D01*
X155163413Y-86096846D01*
X155132611Y-86096507D01*
X155074072Y-86099162D01*
X155043708Y-86114876D01*
X155026223Y-86155266D01*
X155018915Y-86182879D01*
X155008453Y-86250638D01*
X155024092Y-86291010D01*
X155071545Y-86315028D01*
X155089915Y-86319983D01*
X155090609Y-86324970D01*
X155054930Y-86329048D01*
X154989995Y-86331562D01*
X154959435Y-86331969D01*
X154875452Y-86332126D01*
X154830197Y-86330248D01*
X154818918Y-86325158D01*
X154836856Y-86315677D01*
X154859901Y-86307308D01*
X154887868Y-86296082D01*
X154910704Y-86280288D01*
X154931734Y-86253663D01*
X154954279Y-86209940D01*
X154981662Y-86142854D01*
X155013703Y-86055669D01*
X155057295Y-86055669D01*
X155076417Y-86068302D01*
X155123420Y-86074600D01*
X155133232Y-86074760D01*
X155209169Y-86074760D01*
X155173188Y-85982337D01*
X155150433Y-85925445D01*
X155134511Y-85888489D01*
X155131145Y-85882127D01*
X155120396Y-85894370D01*
X155101339Y-85932768D01*
X155080275Y-85982510D01*
X155063508Y-86028787D01*
X155057295Y-86055669D01*
X155013703Y-86055669D01*
X155017205Y-86046140D01*
X155055295Y-85938844D01*
G37*
G36*
X156934488Y-85611042D02*
G01*
X156982095Y-85627649D01*
X157037700Y-85648630D01*
X157068496Y-85650946D01*
X157088817Y-85634894D01*
X157092570Y-85629939D01*
X157119051Y-85601482D01*
X157135236Y-85606731D01*
X157143174Y-85649048D01*
X157144966Y-85715942D01*
X157140707Y-85793428D01*
X157127277Y-85828845D01*
X157103694Y-85822839D01*
X157068976Y-85776056D01*
X157064646Y-85768806D01*
X157017245Y-85709602D01*
X156958059Y-85660388D01*
X156957553Y-85660073D01*
X156883607Y-85627000D01*
X156817845Y-85618876D01*
X156766863Y-85631445D01*
X156737259Y-85660454D01*
X156735629Y-85701647D01*
X156768570Y-85750770D01*
X156789080Y-85768730D01*
X156835261Y-85799835D01*
X156869294Y-85813942D01*
X156870630Y-85814014D01*
X156928110Y-85827786D01*
X157001001Y-85862147D01*
X157073941Y-85907841D01*
X157131569Y-85955609D01*
X157154424Y-85985038D01*
X157185144Y-86080810D01*
X157178302Y-86166810D01*
X157139456Y-86238974D01*
X157074162Y-86293237D01*
X156987976Y-86325535D01*
X156886455Y-86331805D01*
X156775154Y-86307981D01*
X156735016Y-86291826D01*
X156662205Y-86264599D01*
X156619419Y-86264262D01*
X156602169Y-86291235D01*
X156601302Y-86304383D01*
X156589143Y-86332489D01*
X156579555Y-86335719D01*
X156568786Y-86315372D01*
X156561218Y-86259824D01*
X156557881Y-86177310D01*
X156557808Y-86161746D01*
X156559686Y-86080967D01*
X156564675Y-86020153D01*
X156571811Y-85989589D01*
X156574118Y-85987851D01*
X156591477Y-86005915D01*
X156619633Y-86052606D01*
X156644795Y-86102021D01*
X156698862Y-86188146D01*
X156766054Y-86255398D01*
X156838514Y-86299696D01*
X156908390Y-86316957D01*
X156967827Y-86303100D01*
X156991874Y-86282396D01*
X157010655Y-86243637D01*
X156998689Y-86205062D01*
X156952890Y-86163474D01*
X156870174Y-86115680D01*
X156796987Y-86080611D01*
X156698064Y-86032842D01*
X156633190Y-85994421D01*
X156595280Y-85960560D01*
X156579699Y-85933785D01*
X156559322Y-85844683D01*
X156575437Y-85767681D01*
X156629232Y-85691733D01*
X156716980Y-85625820D01*
X156820704Y-85598565D01*
X156934488Y-85611042D01*
G37*
G36*
X157857437Y-85629939D02*
G01*
X157910814Y-85649840D01*
X157940154Y-85650698D01*
X157960521Y-85632514D01*
X157962433Y-85629939D01*
X157987198Y-85602686D01*
X158002961Y-85605330D01*
X158011519Y-85641940D01*
X158014669Y-85716588D01*
X158014829Y-85748562D01*
X158012492Y-85823590D01*
X158006342Y-85877958D01*
X157997671Y-85900667D01*
X157996959Y-85900788D01*
X157978763Y-85882656D01*
X157951237Y-85836100D01*
X157931573Y-85795651D01*
X157877647Y-85704994D01*
X157817796Y-85654166D01*
X157755373Y-85644017D01*
X157693734Y-85675395D01*
X157651339Y-85724745D01*
X157616157Y-85804091D01*
X157600344Y-85900548D01*
X157602195Y-86003994D01*
X157620005Y-86104313D01*
X157652071Y-86191386D01*
X157696689Y-86255093D01*
X157745520Y-86283929D01*
X157823688Y-86282994D01*
X157893846Y-86241354D01*
X157951961Y-86161615D01*
X157959900Y-86145437D01*
X157990693Y-86088728D01*
X158015965Y-86057895D01*
X158030501Y-86056403D01*
X158029083Y-86087717D01*
X158025375Y-86101943D01*
X157976077Y-86201181D01*
X157897540Y-86274888D01*
X157797546Y-86320367D01*
X157683873Y-86334919D01*
X157564302Y-86315849D01*
X157492258Y-86286789D01*
X157391259Y-86217686D01*
X157327975Y-86129263D01*
X157299495Y-86016733D01*
X157297192Y-85966027D01*
X157313063Y-85842952D01*
X157362618Y-85745825D01*
X157448769Y-85669859D01*
X157492258Y-85645265D01*
X157619370Y-85603857D01*
X157751847Y-85601603D01*
X157857437Y-85629939D01*
G37*
G36*
X153424857Y-76036178D02*
G01*
X153506789Y-75898797D01*
X153626291Y-75774754D01*
X153778818Y-75666519D01*
X153959823Y-75576568D01*
X154164763Y-75507373D01*
X154389092Y-75461407D01*
X154505780Y-75448021D01*
X154592496Y-75442575D01*
X154655830Y-75446633D01*
X154715488Y-75463792D01*
X154791179Y-75497649D01*
X154799359Y-75501594D01*
X154924742Y-75557481D01*
X155020046Y-75587377D01*
X155090416Y-75590808D01*
X155140995Y-75567299D01*
X155176927Y-75516375D01*
X155195870Y-75465000D01*
X155249812Y-75321613D01*
X155318942Y-75212849D01*
X155409755Y-75130716D01*
X155513973Y-75073586D01*
X155598649Y-75044995D01*
X155718332Y-75017057D01*
X155864539Y-74991243D01*
X156028791Y-74969024D01*
X156202608Y-74951869D01*
X156226542Y-74950006D01*
X156428067Y-74934846D01*
X156552741Y-75017280D01*
X156655386Y-75093740D01*
X156772713Y-75194967D01*
X156893809Y-75310567D01*
X157007762Y-75430143D01*
X157099926Y-75538544D01*
X157148124Y-75604261D01*
X157212534Y-75698527D01*
X157287428Y-75812341D01*
X157367075Y-75936701D01*
X157445744Y-76062603D01*
X157517705Y-76181047D01*
X157577229Y-76283030D01*
X157600409Y-76324799D01*
X157632233Y-76380133D01*
X157679879Y-76458860D01*
X157735398Y-76547953D01*
X157764227Y-76593253D01*
X157819782Y-76682346D01*
X157854940Y-76747640D01*
X157874340Y-76800904D01*
X157882623Y-76853903D01*
X157884298Y-76897705D01*
X157898640Y-77013518D01*
X157940046Y-77153394D01*
X157958432Y-77202157D01*
X158005580Y-77320557D01*
X158053406Y-77437913D01*
X158098841Y-77546982D01*
X158138814Y-77640525D01*
X158170256Y-77711299D01*
X158190095Y-77752064D01*
X158194356Y-77758625D01*
X158211828Y-77748584D01*
X158246131Y-77711395D01*
X158282170Y-77665294D01*
X158347680Y-77579469D01*
X158436549Y-77467645D01*
X158544368Y-77335018D01*
X158666723Y-77186782D01*
X158799204Y-77028133D01*
X158937398Y-76864265D01*
X159076895Y-76700372D01*
X159213283Y-76541651D01*
X159342150Y-76393295D01*
X159459085Y-76260500D01*
X159559676Y-76148460D01*
X159639511Y-76062371D01*
X159670621Y-76030324D01*
X159874930Y-75841168D01*
X160075446Y-75689750D01*
X160279000Y-75571633D01*
X160492426Y-75482380D01*
X160537432Y-75467432D01*
X160616742Y-75443523D01*
X160686141Y-75427051D01*
X160757137Y-75416655D01*
X160841241Y-75410974D01*
X160949962Y-75408648D01*
X161037603Y-75408291D01*
X161168453Y-75409036D01*
X161266067Y-75412235D01*
X161340680Y-75419011D01*
X161402528Y-75430483D01*
X161461848Y-75447773D01*
X161491036Y-75457964D01*
X161573037Y-75491077D01*
X161647041Y-75526874D01*
X161690133Y-75552955D01*
X161758079Y-75624338D01*
X161818315Y-75727440D01*
X161864856Y-75850523D01*
X161884781Y-75934849D01*
X161895016Y-76014571D01*
X161891620Y-76081740D01*
X161870638Y-76140219D01*
X161828111Y-76193869D01*
X161760082Y-76246553D01*
X161662594Y-76302132D01*
X161531689Y-76364468D01*
X161374675Y-76432659D01*
X161267400Y-76479515D01*
X161191233Y-76517433D01*
X161136499Y-76552592D01*
X161093524Y-76591169D01*
X161054250Y-76637281D01*
X160994385Y-76723720D01*
X160922732Y-76844208D01*
X160842762Y-76992064D01*
X160757946Y-77160606D01*
X160671755Y-77343155D01*
X160587659Y-77533029D01*
X160582032Y-77546207D01*
X160480629Y-77778408D01*
X160389285Y-77974637D01*
X160305225Y-78140476D01*
X160225673Y-78281511D01*
X160180130Y-78354726D01*
X160119480Y-78449034D01*
X160074201Y-78521808D01*
X160038087Y-78584642D01*
X160004931Y-78649133D01*
X159968527Y-78726876D01*
X159922668Y-78829468D01*
X159906606Y-78865770D01*
X159820670Y-79066156D01*
X159747731Y-79251192D01*
X159681542Y-79437933D01*
X159615860Y-79643433D01*
X159588053Y-79735633D01*
X159510413Y-79996592D01*
X158997954Y-80681609D01*
X158877067Y-80842888D01*
X158757554Y-81001752D01*
X158643492Y-81152823D01*
X158538961Y-81290720D01*
X158448039Y-81410062D01*
X158374805Y-81505468D01*
X158323339Y-81571559D01*
X158322026Y-81573219D01*
X158223650Y-81691934D01*
X158106390Y-81824492D01*
X157978302Y-81962524D01*
X157847440Y-82097661D01*
X157721860Y-82221536D01*
X157609615Y-82325778D01*
X157542045Y-82383600D01*
X157480981Y-82436300D01*
X157430786Y-82488969D01*
X157390659Y-82546160D01*
X157359796Y-82612426D01*
X157337397Y-82692319D01*
X157322659Y-82790392D01*
X157314782Y-82911198D01*
X157312962Y-83059289D01*
X157316399Y-83239219D01*
X157324291Y-83455540D01*
X157330049Y-83587446D01*
X157346882Y-83959807D01*
X157077388Y-84230122D01*
X156972772Y-84332189D01*
X156861979Y-84435410D01*
X156755259Y-84530551D01*
X156662859Y-84608375D01*
X156623048Y-84639556D01*
X156457694Y-84763979D01*
X156322865Y-84864970D01*
X156214261Y-84945152D01*
X156127581Y-85007149D01*
X156058528Y-85053586D01*
X156002800Y-85087086D01*
X155956099Y-85110273D01*
X155914124Y-85125771D01*
X155872576Y-85136204D01*
X155827156Y-85144196D01*
X155785805Y-85150494D01*
X155523742Y-85183988D01*
X155282680Y-85199907D01*
X155044001Y-85198624D01*
X154789088Y-85180516D01*
X154709349Y-85172157D01*
X154339263Y-85111811D01*
X153959135Y-85011781D01*
X153567350Y-84871583D01*
X153266616Y-84740591D01*
X153062979Y-84645431D01*
X153016800Y-84473923D01*
X152982151Y-84332553D01*
X152945050Y-84158941D01*
X152907564Y-83964102D01*
X152871763Y-83759049D01*
X152846732Y-83599529D01*
X153076670Y-83599529D01*
X153085325Y-83659858D01*
X153102802Y-83737003D01*
X153124185Y-83831803D01*
X153150878Y-83951904D01*
X153179069Y-84080079D01*
X153199072Y-84171935D01*
X153228016Y-84305010D01*
X153249927Y-84401598D01*
X153267050Y-84467703D01*
X153281629Y-84509330D01*
X153295909Y-84532483D01*
X153312135Y-84543168D01*
X153332551Y-84547390D01*
X153339753Y-84548284D01*
X153385898Y-84557937D01*
X153458990Y-84577431D01*
X153544702Y-84602895D01*
X153561224Y-84608087D01*
X153643639Y-84633076D01*
X153712169Y-84651753D01*
X153754587Y-84660842D01*
X153759547Y-84661233D01*
X153795170Y-84667548D01*
X153857900Y-84684038D01*
X153927791Y-84705147D01*
X154010699Y-84730088D01*
X154086896Y-84750417D01*
X154131780Y-84760189D01*
X154188891Y-84773014D01*
X154267369Y-84794599D01*
X154328784Y-84813459D01*
X154412425Y-84838564D01*
X154491674Y-84859234D01*
X154534716Y-84868302D01*
X154587690Y-84879306D01*
X154618376Y-84889584D01*
X154619890Y-84890723D01*
X154647641Y-84899690D01*
X154660172Y-84900445D01*
X154676927Y-84891705D01*
X154682728Y-84859690D01*
X154678711Y-84795710D01*
X154676499Y-84775402D01*
X154667767Y-84701043D01*
X154655394Y-84598721D01*
X154641231Y-84483619D01*
X154630826Y-84400274D01*
X154616298Y-84274348D01*
X154602822Y-84139291D01*
X154592318Y-84015193D01*
X154588247Y-83954469D01*
X154581964Y-83865001D01*
X154572615Y-83758003D01*
X154561148Y-83641767D01*
X154560245Y-83633395D01*
X154634864Y-83633395D01*
X154634942Y-83671764D01*
X154649984Y-83987689D01*
X154693120Y-84283684D01*
X154766555Y-84574768D01*
X154768466Y-84581027D01*
X154789099Y-84641109D01*
X154805311Y-84669717D01*
X154817610Y-84664790D01*
X154826506Y-84624266D01*
X154832507Y-84546084D01*
X154836122Y-84428182D01*
X154837661Y-84300754D01*
X154836858Y-84163473D01*
X154833063Y-84016897D01*
X154826892Y-83878705D01*
X154819091Y-83767963D01*
X154804394Y-83605964D01*
X154793359Y-83480493D01*
X154785478Y-83384787D01*
X154780240Y-83312082D01*
X154777135Y-83255614D01*
X154776081Y-83222199D01*
X154842502Y-83222199D01*
X154842533Y-83362198D01*
X154846414Y-83498537D01*
X154854437Y-83624486D01*
X154862278Y-83699715D01*
X154874546Y-83804146D01*
X154885760Y-83910938D01*
X154893633Y-83998216D01*
X154894042Y-84003596D01*
X154900827Y-84072775D01*
X154912689Y-84172329D01*
X154928037Y-84289651D01*
X154945280Y-84412138D01*
X154947706Y-84428650D01*
X154964260Y-84548262D01*
X154978007Y-84661970D01*
X154987664Y-84758102D01*
X154991952Y-84824988D01*
X154992055Y-84832774D01*
X154993836Y-84895460D01*
X154998360Y-84937252D01*
X155001361Y-84945750D01*
X155026351Y-84951210D01*
X155081879Y-84956240D01*
X155142714Y-84959231D01*
X155224973Y-84958388D01*
X155267320Y-84948652D01*
X155274749Y-84937485D01*
X155267420Y-84904075D01*
X155248484Y-84844873D01*
X155229177Y-84791712D01*
X155199686Y-84704817D01*
X155174942Y-84615692D01*
X155165969Y-84574246D01*
X155132319Y-84383725D01*
X155105248Y-84219881D01*
X155082418Y-84066821D01*
X155061489Y-83908653D01*
X155040125Y-83729486D01*
X155034791Y-83682637D01*
X155019711Y-83548535D01*
X155005803Y-83423484D01*
X154994033Y-83316261D01*
X154985366Y-83235647D01*
X154981037Y-83193339D01*
X154968039Y-83067297D01*
X154953843Y-82947755D01*
X154939525Y-82842098D01*
X154932777Y-82799493D01*
X155089564Y-82799493D01*
X155099795Y-82872726D01*
X155100876Y-82878479D01*
X155110169Y-82942014D01*
X155121145Y-83040020D01*
X155133098Y-83163540D01*
X155145320Y-83303618D01*
X155157102Y-83451296D01*
X155167738Y-83597619D01*
X155176519Y-83733629D01*
X155182737Y-83850370D01*
X155185684Y-83938886D01*
X155185823Y-83953401D01*
X155186628Y-84015285D01*
X155189672Y-84068579D01*
X155196567Y-84123446D01*
X155208924Y-84190049D01*
X155228355Y-84278551D01*
X155256472Y-84399113D01*
X155256574Y-84399547D01*
X155287900Y-84513404D01*
X155326781Y-84626241D01*
X155369539Y-84729937D01*
X155412492Y-84816368D01*
X155451961Y-84877411D01*
X155484265Y-84904945D01*
X155485724Y-84905318D01*
X155550865Y-84909243D01*
X155645003Y-84901851D01*
X155755551Y-84884572D01*
X155849811Y-84863979D01*
X156003341Y-84810709D01*
X156162011Y-84729071D01*
X156308571Y-84627984D01*
X156312751Y-84624622D01*
X156362915Y-84578550D01*
X156422153Y-84516065D01*
X156482981Y-84446194D01*
X156537912Y-84377964D01*
X156579458Y-84320400D01*
X156600134Y-84282529D01*
X156601168Y-84276883D01*
X156591834Y-84246671D01*
X156569456Y-84198382D01*
X156568414Y-84196375D01*
X156552039Y-84161084D01*
X156539010Y-84121325D01*
X156528758Y-84071358D01*
X156520716Y-84005444D01*
X156514315Y-83917842D01*
X156508985Y-83802813D01*
X156504159Y-83654616D01*
X156500286Y-83508664D01*
X156494680Y-83327624D01*
X156487536Y-83185912D01*
X156485937Y-83167691D01*
X156578185Y-83167691D01*
X156579105Y-83287423D01*
X156582150Y-83413384D01*
X156587190Y-83538139D01*
X156594098Y-83654254D01*
X156602744Y-83754293D01*
X156612998Y-83830822D01*
X156614676Y-83839858D01*
X156635028Y-83923729D01*
X156661630Y-84006062D01*
X156690624Y-84077834D01*
X156718151Y-84130020D01*
X156740353Y-84153597D01*
X156748127Y-84151964D01*
X156755371Y-84129131D01*
X156768647Y-84074627D01*
X156785316Y-83999403D01*
X156788421Y-83984753D01*
X156799207Y-83925845D01*
X156806940Y-83862201D01*
X156811791Y-83787184D01*
X156813932Y-83694159D01*
X156813535Y-83576487D01*
X156810772Y-83427532D01*
X156806791Y-83274889D01*
X156806273Y-83258337D01*
X156993438Y-83258337D01*
X156994583Y-83338527D01*
X156999856Y-83458162D01*
X157006918Y-83581394D01*
X157013604Y-83675827D01*
X157020703Y-83751705D01*
X157027273Y-83800128D01*
X157031491Y-83813116D01*
X157034315Y-83792711D01*
X157034868Y-83736733D01*
X157033244Y-83653038D01*
X157029532Y-83549481D01*
X157028027Y-83515754D01*
X157022233Y-83406594D01*
X157015972Y-83313837D01*
X157009901Y-83245731D01*
X157004679Y-83210522D01*
X157003454Y-83207678D01*
X156996402Y-83215439D01*
X156993438Y-83258337D01*
X156806273Y-83258337D01*
X156801176Y-83095413D01*
X156795460Y-82955878D01*
X156789368Y-82852731D01*
X156782628Y-82782418D01*
X156774965Y-82741387D01*
X156766105Y-82726086D01*
X156764505Y-82725788D01*
X156737352Y-82742337D01*
X156698546Y-82784406D01*
X156677415Y-82812774D01*
X156638743Y-82863464D01*
X156607999Y-82894817D01*
X156598344Y-82899760D01*
X156589471Y-82920223D01*
X156583239Y-82976656D01*
X156579520Y-83061624D01*
X156578185Y-83167691D01*
X156485937Y-83167691D01*
X156478185Y-83079374D01*
X156465956Y-83003854D01*
X156450180Y-82955196D01*
X156430187Y-82929246D01*
X156405710Y-82921841D01*
X156370260Y-82927187D01*
X156305178Y-82941091D01*
X156222844Y-82960853D01*
X156198990Y-82966913D01*
X156077885Y-82991449D01*
X155942411Y-83008846D01*
X155839957Y-83015073D01*
X155743082Y-83015132D01*
X155676174Y-83009437D01*
X155625840Y-82995633D01*
X155578687Y-82971364D01*
X155573545Y-82968217D01*
X155509638Y-82920933D01*
X155458183Y-82868973D01*
X155429646Y-82823611D01*
X155426986Y-82810325D01*
X155445470Y-82802828D01*
X155491058Y-82804827D01*
X155548955Y-82814155D01*
X155604364Y-82828643D01*
X155633579Y-82840603D01*
X155677066Y-82850968D01*
X155753169Y-82857026D01*
X155851241Y-82858931D01*
X155960635Y-82856837D01*
X156070703Y-82850897D01*
X156170799Y-82841266D01*
X156231622Y-82831961D01*
X156308706Y-82812603D01*
X156373220Y-82788033D01*
X156415856Y-82762789D01*
X156427305Y-82741406D01*
X156424839Y-82737795D01*
X156400685Y-82734048D01*
X156340745Y-82730399D01*
X156252727Y-82727163D01*
X156144337Y-82724653D01*
X156078481Y-82723692D01*
X155726530Y-82713120D01*
X155406062Y-82689623D01*
X155248490Y-82672089D01*
X155183674Y-82666790D01*
X155145881Y-82674713D01*
X155119543Y-82700273D01*
X155112449Y-82710660D01*
X155093414Y-82750802D01*
X155089564Y-82799493D01*
X154932777Y-82799493D01*
X154926159Y-82757712D01*
X154914819Y-82701985D01*
X154906697Y-82682294D01*
X154889803Y-82702901D01*
X154874995Y-82760232D01*
X154862567Y-82847559D01*
X154852813Y-82958149D01*
X154846027Y-83085273D01*
X154842502Y-83222199D01*
X154776081Y-83222199D01*
X154775653Y-83208618D01*
X154775373Y-83187902D01*
X154772189Y-83129565D01*
X154759371Y-83102756D01*
X154730031Y-83095598D01*
X154721788Y-83095479D01*
X154691324Y-83099766D01*
X154672645Y-83119425D01*
X154659985Y-83164654D01*
X154651111Y-83220522D01*
X154644744Y-83288216D01*
X154639630Y-83387514D01*
X154636195Y-83506534D01*
X154634864Y-83633395D01*
X154560245Y-83633395D01*
X154548506Y-83524591D01*
X154535635Y-83414767D01*
X154523481Y-83320592D01*
X154512989Y-83250360D01*
X154505104Y-83212366D01*
X154503205Y-83208284D01*
X154480088Y-83211033D01*
X154427339Y-83226509D01*
X154355789Y-83251486D01*
X154346317Y-83255020D01*
X154243993Y-83291572D01*
X154132234Y-83328437D01*
X154022401Y-83362183D01*
X153925853Y-83389373D01*
X153853950Y-83406576D01*
X153833525Y-83410036D01*
X153790109Y-83418174D01*
X153718397Y-83434231D01*
X153632165Y-83455086D01*
X153611147Y-83460381D01*
X153503391Y-83484597D01*
X153387236Y-83505827D01*
X153287594Y-83519526D01*
X153286466Y-83519639D01*
X153184924Y-83530109D01*
X153120254Y-83542010D01*
X153086241Y-83562698D01*
X153076670Y-83599529D01*
X152846732Y-83599529D01*
X152839713Y-83554798D01*
X152825649Y-83455735D01*
X152808377Y-83335946D01*
X152805762Y-83321334D01*
X153434765Y-83321334D01*
X153438506Y-83330266D01*
X153479707Y-83330012D01*
X153502415Y-83327209D01*
X153577160Y-83317009D01*
X153666953Y-83305421D01*
X153707248Y-83300432D01*
X153791654Y-83285279D01*
X153892554Y-83260290D01*
X153973644Y-83235581D01*
X154045753Y-83212244D01*
X154098557Y-83197420D01*
X154121861Y-83193932D01*
X154122192Y-83194448D01*
X154140749Y-83192066D01*
X154189630Y-83177015D01*
X154258654Y-83152463D01*
X154265815Y-83149779D01*
X154339570Y-83124580D01*
X154397722Y-83109430D01*
X154428267Y-83107419D01*
X154428915Y-83107756D01*
X154440270Y-83095775D01*
X154447289Y-83051781D01*
X154448391Y-83019184D01*
X154446711Y-82958555D01*
X154437979Y-82931688D01*
X154416654Y-82928879D01*
X154399461Y-82933487D01*
X154343862Y-82959152D01*
X154315453Y-82979120D01*
X154264409Y-83009301D01*
X154235468Y-83018491D01*
X154187704Y-83033774D01*
X154124630Y-83061048D01*
X154107447Y-83069535D01*
X153936127Y-83150825D01*
X153768887Y-83218827D01*
X153617393Y-83269078D01*
X153528736Y-83290950D01*
X153465751Y-83306975D01*
X153434765Y-83321334D01*
X152805762Y-83321334D01*
X152802315Y-83302072D01*
X153382808Y-83302072D01*
X153393682Y-83312945D01*
X153404555Y-83302072D01*
X153393682Y-83291198D01*
X153382808Y-83302072D01*
X152802315Y-83302072D01*
X152793118Y-83250682D01*
X152777454Y-83191202D01*
X152758971Y-83148765D01*
X152735250Y-83114627D01*
X152729459Y-83107790D01*
X152562509Y-82893989D01*
X152398733Y-82643015D01*
X152241203Y-82361189D01*
X152092990Y-82054829D01*
X151957166Y-81730256D01*
X151836800Y-81393791D01*
X151740695Y-81073048D01*
X151702348Y-80932217D01*
X151657958Y-80770242D01*
X151613220Y-80607860D01*
X151576397Y-80475017D01*
X151542898Y-80354359D01*
X151510639Y-80237618D01*
X151482856Y-80136543D01*
X151462785Y-80062883D01*
X151459575Y-80050959D01*
X151447005Y-80004312D01*
X151432078Y-79949401D01*
X151413282Y-79880731D01*
X151389106Y-79792811D01*
X151358041Y-79680147D01*
X151318574Y-79537247D01*
X151269196Y-79358616D01*
X151262202Y-79333322D01*
X151216802Y-79168415D01*
X151430414Y-79168415D01*
X151440553Y-79219676D01*
X151462814Y-79292357D01*
X151492990Y-79387347D01*
X151527461Y-79498739D01*
X151556328Y-79594281D01*
X151586736Y-79693882D01*
X151619286Y-79796337D01*
X151646093Y-79876986D01*
X151670480Y-79951217D01*
X151689283Y-80014895D01*
X151696137Y-80043115D01*
X151705281Y-80081209D01*
X151723485Y-80144834D01*
X151751957Y-80237949D01*
X151791908Y-80364517D01*
X151842356Y-80521703D01*
X151865541Y-80595772D01*
X151882942Y-80655461D01*
X151890154Y-80684803D01*
X151899439Y-80722291D01*
X151919245Y-80790650D01*
X151946349Y-80879484D01*
X151977528Y-80978400D01*
X152009557Y-81077004D01*
X152037532Y-81160034D01*
X152061918Y-81234265D01*
X152080721Y-81297943D01*
X152087575Y-81326163D01*
X152100159Y-81375993D01*
X152125112Y-81460349D01*
X152160407Y-81572718D01*
X152204018Y-81706584D01*
X152232796Y-81792918D01*
X152255011Y-81863843D01*
X152269878Y-81920521D01*
X152273733Y-81944605D01*
X152282413Y-81986343D01*
X152304992Y-82054328D01*
X152336280Y-82135726D01*
X152371088Y-82217706D01*
X152404227Y-82287432D01*
X152430333Y-82331845D01*
X152458406Y-82374592D01*
X152469452Y-82401813D01*
X152481807Y-82431693D01*
X152514933Y-82487513D01*
X152562925Y-82560862D01*
X152619875Y-82643328D01*
X152679879Y-82726502D01*
X152737028Y-82801972D01*
X152785417Y-82861327D01*
X152812462Y-82890262D01*
X152910187Y-82964615D01*
X153030607Y-83030243D01*
X153152995Y-83075873D01*
X153154469Y-83076275D01*
X153228805Y-83086483D01*
X153332948Y-83087809D01*
X153454334Y-83081193D01*
X153580400Y-83067574D01*
X153698582Y-83047889D01*
X153773429Y-83030012D01*
X153862119Y-83001701D01*
X153953475Y-82965181D01*
X154056206Y-82916356D01*
X154179020Y-82851129D01*
X154307038Y-82778965D01*
X154373351Y-82744352D01*
X154452838Y-82707825D01*
X154535353Y-82673385D01*
X154610748Y-82645032D01*
X154668877Y-82626765D01*
X154699593Y-82622584D01*
X154701330Y-82623533D01*
X154698064Y-82647292D01*
X154676793Y-82695216D01*
X154656900Y-82731428D01*
X154625956Y-82797509D01*
X154606417Y-82865031D01*
X154600034Y-82922520D01*
X154608559Y-82958503D01*
X154621256Y-82965000D01*
X154650042Y-82947105D01*
X154690697Y-82900037D01*
X154736041Y-82833723D01*
X154778892Y-82758088D01*
X154794764Y-82725169D01*
X154833841Y-82592284D01*
X154834752Y-82448159D01*
X154797133Y-82290759D01*
X154720617Y-82118051D01*
X154669291Y-82028004D01*
X154593564Y-81903148D01*
X154537487Y-81807979D01*
X154498523Y-81734776D01*
X154474130Y-81675821D01*
X154461769Y-81623394D01*
X154458901Y-81569775D01*
X154462986Y-81507245D01*
X154471483Y-81428085D01*
X154471592Y-81427093D01*
X154492695Y-81254956D01*
X154495840Y-81233792D01*
X154654302Y-81233792D01*
X154657836Y-81268281D01*
X154669923Y-81312439D01*
X154692508Y-81371822D01*
X154727539Y-81451988D01*
X154776962Y-81558493D01*
X154842724Y-81696894D01*
X154866755Y-81747192D01*
X154921757Y-81854978D01*
X154987445Y-81972619D01*
X155056547Y-82087996D01*
X155121792Y-82188990D01*
X155175910Y-82263483D01*
X155178231Y-82266340D01*
X155212988Y-82309539D01*
X155249824Y-82356096D01*
X155273887Y-82381410D01*
X155305415Y-82399366D01*
X155353775Y-82412702D01*
X155428333Y-82424151D01*
X155517386Y-82434241D01*
X155709726Y-82449266D01*
X155930768Y-82457720D01*
X156166222Y-82459609D01*
X156401796Y-82454938D01*
X156623199Y-82443715D01*
X156744422Y-82433728D01*
X156855521Y-82422853D01*
X156940015Y-82412954D01*
X157007829Y-82400822D01*
X157068889Y-82383251D01*
X157133119Y-82357033D01*
X157210444Y-82318960D01*
X157310790Y-82265825D01*
X157381716Y-82227770D01*
X157429070Y-82195918D01*
X157455935Y-82167967D01*
X157486268Y-82141341D01*
X157499428Y-82138178D01*
X157526700Y-82122334D01*
X157577780Y-82078564D01*
X157647969Y-82011786D01*
X157732568Y-81926922D01*
X157826877Y-81828891D01*
X157926197Y-81722615D01*
X158025830Y-81613013D01*
X158121076Y-81505007D01*
X158207236Y-81403517D01*
X158244014Y-81358526D01*
X158396922Y-81168664D01*
X158525072Y-81009701D01*
X158630925Y-80878615D01*
X158716940Y-80772380D01*
X158785578Y-80687974D01*
X158839300Y-80622372D01*
X158880566Y-80572550D01*
X158911837Y-80535485D01*
X158935573Y-80508154D01*
X158940122Y-80503041D01*
X158994542Y-80437611D01*
X159050707Y-80363423D01*
X159064099Y-80344413D01*
X159117928Y-80271298D01*
X159177299Y-80197665D01*
X159191362Y-80181438D01*
X159275281Y-80069384D01*
X159321477Y-79963418D01*
X159328215Y-79933648D01*
X159341717Y-79880929D01*
X159365193Y-79807346D01*
X159383538Y-79755929D01*
X159408317Y-79680929D01*
X159424593Y-79614838D01*
X159428356Y-79583875D01*
X159435089Y-79539143D01*
X159446487Y-79520403D01*
X159459685Y-79496451D01*
X159482457Y-79439300D01*
X159511677Y-79357348D01*
X159544213Y-79258993D01*
X159546212Y-79252724D01*
X159639802Y-78980448D01*
X159739303Y-78731808D01*
X159841810Y-78513557D01*
X159937243Y-78343853D01*
X159995157Y-78249635D01*
X160031746Y-78184707D01*
X160049416Y-78141908D01*
X160050572Y-78114079D01*
X160037619Y-78094058D01*
X160024761Y-78083332D01*
X159976048Y-78057739D01*
X159944837Y-78050965D01*
X159912553Y-78039504D01*
X159906781Y-78027244D01*
X159892478Y-78014990D01*
X159879598Y-78019434D01*
X159871102Y-78018437D01*
X159887986Y-77996796D01*
X159938447Y-77968507D01*
X160002155Y-77958938D01*
X160059561Y-77955732D01*
X160076894Y-77941532D01*
X160057382Y-77909461D01*
X160036304Y-77886157D01*
X159991855Y-77838843D01*
X160120395Y-77813554D01*
X160195365Y-77793802D01*
X160255651Y-77769009D01*
X160281648Y-77750734D01*
X160304040Y-77714156D01*
X160335940Y-77648469D01*
X160371822Y-77565377D01*
X160386652Y-77528356D01*
X160422592Y-77438353D01*
X160455350Y-77362155D01*
X160490561Y-77288186D01*
X160533856Y-77204870D01*
X160590868Y-77100631D01*
X160621886Y-77044911D01*
X160782458Y-76786882D01*
X160965026Y-76545759D01*
X161163595Y-76328073D01*
X161372171Y-76140361D01*
X161584762Y-75989155D01*
X161597439Y-75981431D01*
X161666647Y-75937595D01*
X161704793Y-75905798D01*
X161719275Y-75877764D01*
X161717791Y-75846770D01*
X161697154Y-75801970D01*
X161654441Y-75742379D01*
X161610197Y-75692791D01*
X161513238Y-75594442D01*
X161182997Y-75602050D01*
X160993472Y-75609820D01*
X160835873Y-75625159D01*
X160698931Y-75650572D01*
X160571375Y-75688564D01*
X160441934Y-75741640D01*
X160346368Y-75787990D01*
X160164067Y-75895508D01*
X159972025Y-76035550D01*
X159778084Y-76200861D01*
X159590083Y-76384182D01*
X159415861Y-76578256D01*
X159263260Y-76775827D01*
X159234812Y-76816908D01*
X159186431Y-76911014D01*
X159176951Y-76991727D01*
X159206480Y-77056640D01*
X159223162Y-77072838D01*
X159249765Y-77104917D01*
X159254384Y-77119661D01*
X159268500Y-77144396D01*
X159305814Y-77190641D01*
X159358771Y-77249150D01*
X159368553Y-77259408D01*
X159461097Y-77363742D01*
X159520888Y-77451873D01*
X159551954Y-77530811D01*
X159558836Y-77590538D01*
X159556039Y-77639786D01*
X159539040Y-77656465D01*
X159494926Y-77651480D01*
X159488247Y-77650154D01*
X159415729Y-77621629D01*
X159337474Y-77570326D01*
X159271673Y-77509500D01*
X159245263Y-77473096D01*
X159203176Y-77405575D01*
X159150229Y-77332360D01*
X159093848Y-77262333D01*
X159041457Y-77204372D01*
X159000485Y-77167359D01*
X158982318Y-77158664D01*
X158949275Y-77175176D01*
X158895661Y-77220748D01*
X158826716Y-77289433D01*
X158747683Y-77375287D01*
X158663802Y-77472364D01*
X158580313Y-77574718D01*
X158502460Y-77676403D01*
X158435481Y-77771474D01*
X158416686Y-77800338D01*
X158373998Y-77866283D01*
X158339900Y-77916662D01*
X158321407Y-77941124D01*
X158320948Y-77941541D01*
X158294459Y-77973332D01*
X158259478Y-78026428D01*
X158224535Y-78086283D01*
X158198162Y-78138356D01*
X158188802Y-78166820D01*
X158195916Y-78197876D01*
X158215013Y-78259864D01*
X158242725Y-78343019D01*
X158275683Y-78437579D01*
X158310519Y-78533780D01*
X158343864Y-78621859D01*
X158358672Y-78659178D01*
X158378181Y-78708589D01*
X158406221Y-78781062D01*
X158430292Y-78844024D01*
X158467731Y-78932201D01*
X158513747Y-79025784D01*
X158561783Y-79112766D01*
X158605283Y-79181135D01*
X158632560Y-79214503D01*
X158661204Y-79243970D01*
X158704626Y-79290961D01*
X158721593Y-79309745D01*
X158759273Y-79352881D01*
X158768730Y-79369208D01*
X158751333Y-79363789D01*
X158733813Y-79354933D01*
X158660476Y-79304712D01*
X158575721Y-79227856D01*
X158490117Y-79135257D01*
X158414233Y-79037807D01*
X158388316Y-78998871D01*
X158341732Y-78918871D01*
X158284842Y-78812740D01*
X158224575Y-78694279D01*
X158167863Y-78577290D01*
X158121635Y-78475572D01*
X158103072Y-78430839D01*
X158068215Y-78343137D01*
X158044114Y-78289749D01*
X158025613Y-78264512D01*
X158007551Y-78261265D01*
X157984771Y-78273843D01*
X157976481Y-78279616D01*
X157916481Y-78336895D01*
X157872893Y-78416164D01*
X157843759Y-78523324D01*
X157827124Y-78664278D01*
X157823128Y-78742151D01*
X157818860Y-78847424D01*
X157814303Y-78915000D01*
X157808299Y-78950664D01*
X157799689Y-78960204D01*
X157787315Y-78949406D01*
X157782865Y-78943307D01*
X157746219Y-78901778D01*
X157722588Y-78898631D01*
X157711714Y-78930830D01*
X157713340Y-78995339D01*
X157727208Y-79089120D01*
X157753060Y-79209139D01*
X157790639Y-79352357D01*
X157828359Y-79479620D01*
X157844676Y-79539299D01*
X157845857Y-79561767D01*
X157833906Y-79549785D01*
X157810833Y-79506116D01*
X157778642Y-79433519D01*
X157757996Y-79382807D01*
X157722266Y-79280237D01*
X157686644Y-79156487D01*
X157653951Y-79023951D01*
X157627007Y-78895019D01*
X157608632Y-78782083D01*
X157601648Y-78697535D01*
X157601644Y-78695926D01*
X157601644Y-78619901D01*
X157460975Y-78690675D01*
X157386532Y-78729541D01*
X157324789Y-78764312D01*
X157288728Y-78787666D01*
X157288084Y-78788192D01*
X157246234Y-78813285D01*
X157227227Y-78819138D01*
X157191268Y-78832521D01*
X157137663Y-78860515D01*
X157122850Y-78869259D01*
X157061066Y-78903051D01*
X157006064Y-78927367D01*
X156998227Y-78929980D01*
X156953820Y-78963865D01*
X156936608Y-79003136D01*
X156906768Y-79092627D01*
X156853267Y-79185946D01*
X156770993Y-79291247D01*
X156720908Y-79347221D01*
X156590428Y-79488513D01*
X156447161Y-79495055D01*
X156348322Y-79503925D01*
X156259752Y-79519691D01*
X156190810Y-79539905D01*
X156150854Y-79562119D01*
X156144623Y-79574221D01*
X156128050Y-79593736D01*
X156123065Y-79594281D01*
X156094085Y-79607246D01*
X156042649Y-79641021D01*
X155979164Y-79687927D01*
X155914036Y-79740284D01*
X155859002Y-79789144D01*
X155806307Y-79833490D01*
X155733274Y-79888031D01*
X155656800Y-79940485D01*
X155614016Y-79967194D01*
X155572027Y-79986742D01*
X155493149Y-80018232D01*
X155381780Y-80059945D01*
X155311781Y-80085359D01*
X155201910Y-80144333D01*
X155092055Y-80238415D01*
X154988534Y-80359677D01*
X154897661Y-80500193D01*
X154825753Y-80652036D01*
X154799204Y-80728671D01*
X154777524Y-80795651D01*
X154749991Y-80874994D01*
X154741258Y-80899075D01*
X154717815Y-80967231D01*
X154700835Y-81024525D01*
X154697177Y-81040428D01*
X154686273Y-81089264D01*
X154669432Y-81155551D01*
X154665102Y-81171594D01*
X154657373Y-81203415D01*
X154654302Y-81233792D01*
X154495840Y-81233792D01*
X154517081Y-81090841D01*
X154543372Y-80941962D01*
X154570189Y-80815529D01*
X154596154Y-80718755D01*
X154617632Y-80663020D01*
X154645873Y-80608726D01*
X154687414Y-80529145D01*
X154735350Y-80437502D01*
X154760130Y-80390196D01*
X154819588Y-80267096D01*
X154851992Y-80171814D01*
X154857161Y-80097968D01*
X154834914Y-80039180D01*
X154785070Y-79989067D01*
X154748033Y-79964227D01*
X154702352Y-79938583D01*
X154675990Y-79937049D01*
X154651209Y-79960972D01*
X154642268Y-79972248D01*
X154596707Y-80012743D01*
X154533550Y-80050045D01*
X154520647Y-80055789D01*
X154463409Y-80073937D01*
X154375797Y-80095280D01*
X154270563Y-80117378D01*
X154160458Y-80137788D01*
X154058235Y-80154069D01*
X153976646Y-80163778D01*
X153948219Y-80165394D01*
X153899738Y-80155325D01*
X153822413Y-80126618D01*
X153724519Y-80083304D01*
X153614332Y-80029413D01*
X153500125Y-79968974D01*
X153390175Y-79906020D01*
X153301551Y-79850443D01*
X153096089Y-79691565D01*
X152897054Y-79492044D01*
X152706807Y-79254536D01*
X152527711Y-78981702D01*
X152523744Y-78975035D01*
X152493539Y-78951517D01*
X152430873Y-78933292D01*
X152338898Y-78919645D01*
X152238291Y-78906420D01*
X152135944Y-78890224D01*
X152059978Y-78875779D01*
X151991162Y-78863630D01*
X151933532Y-78863255D01*
X151868717Y-78876170D01*
X151798389Y-78897400D01*
X151646225Y-78954390D01*
X151534009Y-79014406D01*
X151463264Y-79076579D01*
X151449533Y-79096965D01*
X151433712Y-79131989D01*
X151430414Y-79168415D01*
X151216802Y-79168415D01*
X151212015Y-79151027D01*
X151156465Y-78947902D01*
X151099277Y-78737663D01*
X151044177Y-78534027D01*
X150994890Y-78350710D01*
X150970703Y-78260106D01*
X150934885Y-78125464D01*
X151145944Y-78125464D01*
X151155617Y-78215429D01*
X151181358Y-78318315D01*
X151186383Y-78334999D01*
X151211737Y-78414722D01*
X151233943Y-78478750D01*
X151248818Y-78515137D01*
X151250392Y-78517825D01*
X151265014Y-78547447D01*
X151290241Y-78606044D01*
X151321099Y-78681988D01*
X151327116Y-78697234D01*
X151389038Y-78854897D01*
X151478004Y-78854122D01*
X151552216Y-78848190D01*
X151641480Y-78833958D01*
X151686576Y-78824163D01*
X151774306Y-78800535D01*
X151876659Y-78769821D01*
X151947534Y-78746717D01*
X152062857Y-78715120D01*
X152172624Y-78704972D01*
X152235677Y-78706712D01*
X152309140Y-78709967D01*
X152361789Y-78710631D01*
X152382455Y-78708566D01*
X152382466Y-78708489D01*
X152372041Y-78683489D01*
X152345261Y-78633205D01*
X152308863Y-78569207D01*
X152269587Y-78503065D01*
X152234171Y-78446350D01*
X152209356Y-78410632D01*
X152208085Y-78409092D01*
X152175917Y-78363879D01*
X152136698Y-78299357D01*
X152119230Y-78267740D01*
X152087294Y-78209653D01*
X152063166Y-78169200D01*
X152055765Y-78159007D01*
X152035550Y-78132784D01*
X152007355Y-78089718D01*
X151981770Y-78046814D01*
X151969386Y-78021075D01*
X151969281Y-78020159D01*
X151983357Y-78029747D01*
X152020900Y-78063865D01*
X152074888Y-78116029D01*
X152098021Y-78139000D01*
X152160017Y-78198158D01*
X152212393Y-78242981D01*
X152246360Y-78266116D01*
X152251975Y-78267740D01*
X152266739Y-78250079D01*
X152262319Y-78201721D01*
X152241334Y-78129599D01*
X152206404Y-78040648D01*
X152160150Y-77941803D01*
X152105192Y-77839999D01*
X152065937Y-77775357D01*
X152019937Y-77700987D01*
X151977979Y-77629352D01*
X151957992Y-77592792D01*
X151921406Y-77522043D01*
X151988837Y-77535529D01*
X152035015Y-77539430D01*
X152056131Y-77530688D01*
X152056267Y-77529471D01*
X152052026Y-77500630D01*
X152041458Y-77446200D01*
X152027799Y-77381308D01*
X152014285Y-77321085D01*
X152004152Y-77280658D01*
X152001314Y-77272516D01*
X151980992Y-77278134D01*
X151933016Y-77303615D01*
X151865470Y-77344030D01*
X151786434Y-77394449D01*
X151703991Y-77449941D01*
X151662027Y-77479473D01*
X151518985Y-77582120D01*
X151407465Y-77662689D01*
X151323474Y-77724211D01*
X151263022Y-77769714D01*
X151222114Y-77802230D01*
X151196759Y-77824787D01*
X151182963Y-77840414D01*
X151179782Y-77845414D01*
X151169021Y-77882323D01*
X151158078Y-77948142D01*
X151149619Y-78025498D01*
X151145944Y-78125464D01*
X150934885Y-78125464D01*
X150890573Y-77958895D01*
X150662113Y-77705569D01*
X150477726Y-77500044D01*
X150295196Y-77294557D01*
X150144793Y-77123606D01*
X150472998Y-77123606D01*
X150507829Y-77225555D01*
X150584933Y-77334667D01*
X150602707Y-77354667D01*
X150638155Y-77390122D01*
X150694822Y-77443105D01*
X150765692Y-77507448D01*
X150843748Y-77576981D01*
X150921973Y-77645534D01*
X150993351Y-77706939D01*
X151050865Y-77755025D01*
X151087497Y-77783622D01*
X151096526Y-77788860D01*
X151114771Y-77774872D01*
X151153226Y-77738398D01*
X151186329Y-77705004D01*
X151245415Y-77640425D01*
X151313084Y-77561148D01*
X151359292Y-77503848D01*
X151448782Y-77395521D01*
X151543062Y-77292336D01*
X151633655Y-77202883D01*
X151712086Y-77135749D01*
X151745978Y-77112059D01*
X151791587Y-77080318D01*
X151804601Y-77056388D01*
X151791286Y-77028551D01*
X151790917Y-77028043D01*
X151776408Y-77008820D01*
X152121507Y-77008820D01*
X152122865Y-77058689D01*
X152128088Y-77109298D01*
X152138903Y-77168432D01*
X152157035Y-77243875D01*
X152184212Y-77343412D01*
X152222157Y-77474828D01*
X152233066Y-77512004D01*
X152255980Y-77591895D01*
X152274363Y-77659555D01*
X152284135Y-77699879D01*
X152295896Y-77745462D01*
X152319443Y-77824473D01*
X152352367Y-77929230D01*
X152392261Y-78052050D01*
X152429854Y-78164911D01*
X152454106Y-78238614D01*
X152473186Y-78299661D01*
X152481189Y-78328010D01*
X152492130Y-78363787D01*
X152514236Y-78429621D01*
X152543824Y-78514687D01*
X152564259Y-78572192D01*
X152636664Y-78768399D01*
X152701490Y-78929378D01*
X152762386Y-79061917D01*
X152823002Y-79172808D01*
X152886989Y-79268839D01*
X152957995Y-79356800D01*
X153024271Y-79427926D01*
X153101282Y-79499765D01*
X153193106Y-79575261D01*
X153290451Y-79647826D01*
X153384027Y-79710870D01*
X153464542Y-79757806D01*
X153522706Y-79782047D01*
X153524161Y-79782389D01*
X153555464Y-79792659D01*
X153612177Y-79813650D01*
X153654641Y-79830083D01*
X153741343Y-79861929D01*
X153795967Y-79873849D01*
X153825763Y-79864488D01*
X153837983Y-79832489D01*
X153838287Y-79826801D01*
X153996987Y-79826801D01*
X154001037Y-79845936D01*
X154013939Y-79877683D01*
X154040146Y-79893365D01*
X154092228Y-79898446D01*
X154122556Y-79898733D01*
X154194568Y-79893614D01*
X154255231Y-79873597D01*
X154323919Y-79831689D01*
X154340138Y-79820199D01*
X154428375Y-79750015D01*
X154469553Y-79702013D01*
X154905069Y-79702013D01*
X154914188Y-79780671D01*
X154945415Y-79833067D01*
X155004556Y-79863432D01*
X155097415Y-79875997D01*
X155145147Y-79876986D01*
X155256025Y-79871131D01*
X155341802Y-79851420D01*
X155389796Y-79830864D01*
X155462023Y-79792049D01*
X155537349Y-79747702D01*
X155606202Y-79703975D01*
X155659013Y-79667022D01*
X155686211Y-79642995D01*
X155687945Y-79639175D01*
X155674657Y-79617505D01*
X155639746Y-79572933D01*
X155590640Y-79514923D01*
X155588399Y-79512358D01*
X155517091Y-79440336D01*
X155455210Y-79404821D01*
X155392097Y-79403740D01*
X155317095Y-79435021D01*
X155285634Y-79453495D01*
X155226715Y-79485783D01*
X155179034Y-79505048D01*
X155166028Y-79507395D01*
X155129324Y-79516334D01*
X155068946Y-79539046D01*
X155019238Y-79560873D01*
X154954892Y-79592643D01*
X154920812Y-79618879D01*
X154907403Y-79651442D01*
X154905069Y-79702013D01*
X154469553Y-79702013D01*
X154477311Y-79692969D01*
X154488015Y-79646019D01*
X154461558Y-79606121D01*
X154423929Y-79582003D01*
X154372524Y-79560079D01*
X154331700Y-79561603D01*
X154288013Y-79580095D01*
X154226224Y-79609552D01*
X154149494Y-79645160D01*
X154117759Y-79659624D01*
X154039398Y-79706053D01*
X154000487Y-79759630D01*
X153996987Y-79826801D01*
X153838287Y-79826801D01*
X153839964Y-79795437D01*
X153861899Y-79671862D01*
X153924109Y-79552254D01*
X154023380Y-79441173D01*
X154156497Y-79343181D01*
X154160248Y-79340928D01*
X154213753Y-79304255D01*
X154247018Y-79272406D01*
X154252467Y-79260579D01*
X154240043Y-79220095D01*
X154208899Y-79159381D01*
X154167602Y-79092073D01*
X154124715Y-79031813D01*
X154088805Y-78992240D01*
X154080124Y-78986139D01*
X154035608Y-78966268D01*
X154016808Y-78973095D01*
X154013459Y-78999974D01*
X153997731Y-79047229D01*
X153960909Y-79091494D01*
X153918537Y-79115146D01*
X153911241Y-79115856D01*
X153876777Y-79130216D01*
X153831618Y-79165461D01*
X153824607Y-79172252D01*
X153765587Y-79217191D01*
X153693438Y-79254711D01*
X153681508Y-79259238D01*
X153588137Y-79280366D01*
X153474353Y-79289164D01*
X153356926Y-79285860D01*
X153252630Y-79270685D01*
X153195182Y-79252581D01*
X153110976Y-79215333D01*
X153263202Y-79202053D01*
X153416117Y-79174890D01*
X153541116Y-79130568D01*
X153609190Y-79100297D01*
X153661699Y-79079249D01*
X153685242Y-79072363D01*
X153713010Y-79057512D01*
X153730754Y-79039743D01*
X153767013Y-79012147D01*
X153786338Y-79007123D01*
X153819265Y-78996269D01*
X153874751Y-78968213D01*
X153923317Y-78939696D01*
X154031785Y-78872269D01*
X153991818Y-78779031D01*
X153966588Y-78715021D01*
X153933737Y-78624275D01*
X153895992Y-78515165D01*
X153856078Y-78396063D01*
X153816721Y-78275341D01*
X153780647Y-78161370D01*
X153750582Y-78062523D01*
X153729251Y-77987172D01*
X153719380Y-77943688D01*
X153719140Y-77941541D01*
X153711654Y-77904260D01*
X153695199Y-77840540D01*
X153677505Y-77778442D01*
X153654792Y-77696892D01*
X153636444Y-77622200D01*
X153628547Y-77582722D01*
X153617660Y-77528929D01*
X153598909Y-77450190D01*
X153576320Y-77363400D01*
X153575948Y-77362034D01*
X153552992Y-77271620D01*
X153533881Y-77185403D01*
X153522970Y-77123469D01*
X153513151Y-77062978D01*
X153496558Y-76976372D01*
X153476342Y-76879882D01*
X153470810Y-76854860D01*
X153447559Y-76747159D01*
X153424540Y-76634229D01*
X153406281Y-76538367D01*
X153404439Y-76528014D01*
X153379585Y-76386661D01*
X153267027Y-76338325D01*
X153090097Y-76281625D01*
X152907536Y-76258207D01*
X152728415Y-76267676D01*
X152561802Y-76309636D01*
X152430138Y-76374791D01*
X152355428Y-76427851D01*
X152287453Y-76484181D01*
X152248095Y-76523682D01*
X152206387Y-76594421D01*
X152169628Y-76695654D01*
X152141204Y-76814412D01*
X152124498Y-76937724D01*
X152121507Y-77008820D01*
X151776408Y-77008820D01*
X151767515Y-76997037D01*
X151723238Y-76939352D01*
X151663960Y-76862608D01*
X151595553Y-76774422D01*
X151579046Y-76753194D01*
X151499661Y-76650799D01*
X151418693Y-76545759D01*
X151345549Y-76450313D01*
X151289638Y-76376700D01*
X151288950Y-76375788D01*
X151234503Y-76305766D01*
X151186005Y-76247399D01*
X151152305Y-76211241D01*
X151147674Y-76207252D01*
X151089379Y-76182108D01*
X151027479Y-76185133D01*
X150973483Y-76210697D01*
X150938905Y-76253172D01*
X150935253Y-76306929D01*
X150936333Y-76310592D01*
X150936568Y-76380104D01*
X150900931Y-76472808D01*
X150829772Y-76587824D01*
X150822033Y-76598690D01*
X150769694Y-76661890D01*
X150726318Y-76696295D01*
X150696851Y-76699331D01*
X150686233Y-76669366D01*
X150697198Y-76640415D01*
X150706514Y-76636746D01*
X150727124Y-76618997D01*
X150744471Y-76580979D01*
X150749558Y-76545535D01*
X150745853Y-76536892D01*
X150729962Y-76548634D01*
X150696872Y-76588482D01*
X150653319Y-76648226D01*
X150646984Y-76657398D01*
X150557705Y-76787495D01*
X150627405Y-76775907D01*
X150697106Y-76764318D01*
X150623363Y-76829719D01*
X150530643Y-76928789D01*
X150480562Y-77025718D01*
X150472998Y-77123606D01*
X150144793Y-77123606D01*
X150117549Y-77092640D01*
X149947810Y-76897823D01*
X149789004Y-76713636D01*
X149644155Y-76543610D01*
X149516290Y-76391276D01*
X149408434Y-76260165D01*
X149323611Y-76153806D01*
X149264847Y-76075731D01*
X149261210Y-76070597D01*
X149107017Y-75814251D01*
X148986862Y-75533049D01*
X148902143Y-75230882D01*
X148857819Y-74948822D01*
X148853903Y-74907456D01*
X148993218Y-74907456D01*
X149004863Y-75027782D01*
X149034565Y-75167735D01*
X149041553Y-75195055D01*
X149098671Y-75373444D01*
X149176125Y-75541105D01*
X149278756Y-75706017D01*
X149411407Y-75876159D01*
X149544327Y-76023434D01*
X149620530Y-76102208D01*
X149675520Y-76153922D01*
X149716911Y-76184087D01*
X149752314Y-76198214D01*
X149789343Y-76201812D01*
X149790751Y-76201815D01*
X149886011Y-76185229D01*
X149989215Y-76140748D01*
X150083624Y-76076288D01*
X150112120Y-76049834D01*
X150157362Y-76009267D01*
X150193151Y-75986617D01*
X150200045Y-75984953D01*
X150229267Y-75967029D01*
X150236381Y-75954436D01*
X150260640Y-75923025D01*
X150306014Y-75883395D01*
X150317321Y-75875061D01*
X150386782Y-75825600D01*
X150371985Y-75877792D01*
X150346196Y-75923294D01*
X150294622Y-75985019D01*
X150226764Y-76053755D01*
X150152119Y-76120296D01*
X150080189Y-76175430D01*
X150038079Y-76201492D01*
X149958188Y-76245571D01*
X149911555Y-76279274D01*
X149892732Y-76312065D01*
X149896274Y-76353407D01*
X149916631Y-76412496D01*
X149999094Y-76590889D01*
X150097153Y-76734029D01*
X150099076Y-76736287D01*
X150141383Y-76780730D01*
X150196476Y-76832244D01*
X150253989Y-76881950D01*
X150303557Y-76920970D01*
X150334813Y-76940425D01*
X150338297Y-76941198D01*
X150354813Y-76923869D01*
X150382085Y-76880397D01*
X150393146Y-76860286D01*
X150430796Y-76799877D01*
X150489766Y-76717167D01*
X150562289Y-76622188D01*
X150640599Y-76524974D01*
X150716928Y-76435560D01*
X150751347Y-76397534D01*
X150807174Y-76325673D01*
X150859083Y-76238863D01*
X150899980Y-76151171D01*
X150922769Y-76076666D01*
X150925233Y-76052784D01*
X150910128Y-76008544D01*
X150869864Y-75945806D01*
X150812415Y-75874248D01*
X150745751Y-75803550D01*
X150677847Y-75743391D01*
X150658398Y-75728827D01*
X150578374Y-75689402D01*
X150502390Y-75683211D01*
X150441110Y-75710912D01*
X150436627Y-75715144D01*
X150412903Y-75735747D01*
X150408136Y-75724432D01*
X150415125Y-75687961D01*
X150432705Y-75617998D01*
X150449131Y-75561587D01*
X150457751Y-75515047D01*
X150445406Y-75473302D01*
X150408289Y-75420234D01*
X150371269Y-75368859D01*
X150319991Y-75291822D01*
X150262207Y-75200972D01*
X150222478Y-75136233D01*
X150111503Y-74954641D01*
X150017619Y-74806872D01*
X149937231Y-74688488D01*
X149866747Y-74595050D01*
X149802573Y-74522121D01*
X149741116Y-74465263D01*
X149678782Y-74420039D01*
X149611978Y-74382010D01*
X149611595Y-74381814D01*
X149517018Y-74345791D01*
X149425015Y-74340028D01*
X149324166Y-74365269D01*
X149232852Y-74406532D01*
X149147342Y-74452886D01*
X149092249Y-74492822D01*
X149058216Y-74537517D01*
X149035886Y-74598147D01*
X149021614Y-74658811D01*
X148999009Y-74790038D01*
X148993218Y-74907456D01*
X148853903Y-74907456D01*
X148846844Y-74832896D01*
X148841935Y-74748561D01*
X148843375Y-74684303D01*
X148851447Y-74628606D01*
X148866434Y-74569954D01*
X148867184Y-74567374D01*
X148924925Y-74442986D01*
X149015475Y-74338987D01*
X149131536Y-74258942D01*
X149265811Y-74206414D01*
X149411001Y-74184968D01*
X149559809Y-74198165D01*
X149601669Y-74208711D01*
X149659431Y-74227528D01*
X149702930Y-74249973D01*
X149741948Y-74284476D01*
X149786262Y-74339465D01*
X149838083Y-74412465D01*
X149943647Y-74559199D01*
X150058928Y-74708993D01*
X150187541Y-74866004D01*
X150333104Y-75034390D01*
X150499230Y-75218308D01*
X150689537Y-75421913D01*
X150907640Y-75649363D01*
X150968939Y-75712500D01*
X151201374Y-75952269D01*
X151403206Y-76162374D01*
X151574348Y-76342720D01*
X151714712Y-76493212D01*
X151824211Y-76613756D01*
X151902756Y-76704256D01*
X151950261Y-76764618D01*
X151965657Y-76790568D01*
X151983107Y-76812968D01*
X152000526Y-76799791D01*
X152011565Y-76758491D01*
X152012774Y-76735226D01*
X152027861Y-76643763D01*
X152068808Y-76536793D01*
X152129142Y-76427902D01*
X152202392Y-76330674D01*
X152208936Y-76323460D01*
X152337822Y-76214864D01*
X152490558Y-76141540D01*
X152664880Y-76103981D01*
X152858520Y-76102681D01*
X153065153Y-76137133D01*
X153181751Y-76163364D01*
X153265206Y-76174090D01*
X153323821Y-76166979D01*
X153365904Y-76139701D01*
X153384790Y-76111935D01*
X153556240Y-76111935D01*
X153588451Y-76314538D01*
X153604629Y-76422964D01*
X153619325Y-76533145D01*
X153630004Y-76625735D01*
X153632084Y-76647620D01*
X153643760Y-76747298D01*
X153664672Y-76886688D01*
X153694367Y-77063102D01*
X153732395Y-77273852D01*
X153774349Y-77495736D01*
X153793258Y-77595502D01*
X153809857Y-77685920D01*
X153821802Y-77754087D01*
X153825688Y-77778442D01*
X153841743Y-77862403D01*
X153868538Y-77974480D01*
X153902546Y-78101700D01*
X153940244Y-78231092D01*
X153978107Y-78349684D01*
X153991138Y-78387346D01*
X154076684Y-78601439D01*
X154176497Y-78795851D01*
X154300340Y-78990332D01*
X154354838Y-79064921D01*
X154421592Y-79149823D01*
X154494817Y-79238438D01*
X154568730Y-79324167D01*
X154637549Y-79400411D01*
X154695490Y-79460570D01*
X154736771Y-79498044D01*
X154753361Y-79507294D01*
X154774089Y-79489458D01*
X154784691Y-79466232D01*
X154815913Y-79423058D01*
X154878413Y-79373325D01*
X154961685Y-79322539D01*
X155055221Y-79276204D01*
X155148513Y-79239826D01*
X155231054Y-79218911D01*
X155262288Y-79216002D01*
X155325988Y-79222240D01*
X155401408Y-79245127D01*
X155495308Y-79287458D01*
X155614443Y-79352026D01*
X155671635Y-79385271D01*
X155727831Y-79416111D01*
X155765347Y-79432295D01*
X155774932Y-79431993D01*
X155765875Y-79408571D01*
X155740856Y-79353044D01*
X155703098Y-79272339D01*
X155655825Y-79173382D01*
X155622706Y-79104983D01*
X155570828Y-78996340D01*
X155558113Y-78968596D01*
X155756550Y-78968596D01*
X155765298Y-79013107D01*
X155795027Y-79081807D01*
X155831020Y-79160789D01*
X155865952Y-79241819D01*
X155871324Y-79254867D01*
X155905778Y-79339511D01*
X156074131Y-79327773D01*
X156170686Y-79316888D01*
X156263787Y-79299495D01*
X156333705Y-79279301D01*
X156335186Y-79278711D01*
X156430894Y-79222337D01*
X156490452Y-79147940D01*
X156511717Y-79061043D01*
X156492548Y-78967170D01*
X156471733Y-78926679D01*
X156427060Y-78871273D01*
X156370175Y-78837717D01*
X156295117Y-78825474D01*
X156195928Y-78834008D01*
X156066647Y-78862783D01*
X155992397Y-78883556D01*
X155914223Y-78905483D01*
X155843839Y-78923632D01*
X155812988Y-78930642D01*
X155772093Y-78944084D01*
X155756550Y-78968596D01*
X155558113Y-78968596D01*
X155526544Y-78899712D01*
X155493133Y-78822568D01*
X155473876Y-78772381D01*
X155470480Y-78758292D01*
X155461371Y-78728525D01*
X155453102Y-78724418D01*
X155435155Y-78706078D01*
X155412929Y-78660774D01*
X155408382Y-78648806D01*
X155381041Y-78573194D01*
X155300413Y-78624092D01*
X155108695Y-78728336D01*
X154913151Y-78803341D01*
X154723272Y-78845980D01*
X154599696Y-78854897D01*
X154535249Y-78847702D01*
X154494066Y-78820372D01*
X154477795Y-78798675D01*
X154460051Y-78768546D01*
X154456271Y-78745892D01*
X154471961Y-78727511D01*
X154512625Y-78710201D01*
X154583770Y-78690760D01*
X154690902Y-78665986D01*
X154715392Y-78660498D01*
X154912732Y-78612933D01*
X155069373Y-78567696D01*
X155184494Y-78525062D01*
X155257272Y-78485306D01*
X155268949Y-78475669D01*
X155317504Y-78430600D01*
X155252604Y-78241028D01*
X155215635Y-78130376D01*
X155184799Y-78029855D01*
X155159501Y-77934041D01*
X155139147Y-77837512D01*
X155123140Y-77734843D01*
X155110886Y-77620613D01*
X155101790Y-77489399D01*
X155095257Y-77335778D01*
X155090692Y-77154326D01*
X155087500Y-76939621D01*
X155085335Y-76716665D01*
X155083442Y-76496799D01*
X155081621Y-76316208D01*
X155079632Y-76170674D01*
X155077233Y-76055980D01*
X155074185Y-75967909D01*
X155070247Y-75902244D01*
X155065178Y-75854768D01*
X155058738Y-75821262D01*
X155050686Y-75797511D01*
X155040783Y-75779296D01*
X155031091Y-75765506D01*
X154986675Y-75716748D01*
X155287554Y-75716748D01*
X155288368Y-75848844D01*
X155288394Y-75852176D01*
X155290324Y-75972400D01*
X155294287Y-76115969D01*
X155299989Y-76277608D01*
X155307141Y-76452043D01*
X155315452Y-76633999D01*
X155324629Y-76818203D01*
X155334383Y-76999379D01*
X155344421Y-77172254D01*
X155354453Y-77331552D01*
X155364187Y-77472000D01*
X155373333Y-77588322D01*
X155381599Y-77675246D01*
X155388694Y-77727495D01*
X155392627Y-77740458D01*
X155437921Y-77760815D01*
X155518963Y-77771639D01*
X155629125Y-77773188D01*
X155761777Y-77765723D01*
X155910293Y-77749504D01*
X156068042Y-77724791D01*
X156139187Y-77711188D01*
X156191838Y-77703819D01*
X156205367Y-77711359D01*
X156179479Y-77734517D01*
X156113877Y-77774004D01*
X156112760Y-77774629D01*
X155935866Y-77855888D01*
X155746531Y-77912158D01*
X155584649Y-77936309D01*
X155499458Y-77944310D01*
X155450174Y-77955063D01*
X155429214Y-77970713D01*
X155426986Y-77980913D01*
X155431093Y-78014778D01*
X155444602Y-78066788D01*
X155469294Y-78142374D01*
X155506952Y-78246971D01*
X155559356Y-78386011D01*
X155562853Y-78395161D01*
X155598151Y-78489044D01*
X155627289Y-78569512D01*
X155646852Y-78626942D01*
X155653345Y-78650054D01*
X155669632Y-78689753D01*
X155705009Y-78692558D01*
X155731980Y-78680635D01*
X155797675Y-78653403D01*
X155889767Y-78624779D01*
X155991730Y-78598930D01*
X156087036Y-78580020D01*
X156159160Y-78572216D01*
X156162180Y-78572192D01*
X156236251Y-78586680D01*
X156313501Y-78632024D01*
X156397161Y-78711043D01*
X156490461Y-78826556D01*
X156549420Y-78910141D01*
X156610047Y-78997820D01*
X156651732Y-79048770D01*
X156679835Y-79062330D01*
X156699716Y-79037843D01*
X156716734Y-78974648D01*
X156733411Y-78887517D01*
X156750548Y-78798380D01*
X156769252Y-78706745D01*
X156774788Y-78680925D01*
X156798525Y-78547121D01*
X156814168Y-78422591D01*
X157091427Y-78422591D01*
X157100273Y-78435601D01*
X157136338Y-78440793D01*
X157203682Y-78441712D01*
X157329168Y-78441712D01*
X157248019Y-78398219D01*
X157192778Y-78371092D01*
X157152858Y-78355901D01*
X157145810Y-78354726D01*
X157120066Y-78371696D01*
X157101473Y-78398219D01*
X157091427Y-78422591D01*
X156814168Y-78422591D01*
X156820608Y-78371321D01*
X156840934Y-78154995D01*
X156859400Y-77899612D01*
X156875905Y-77606642D01*
X156880471Y-77502573D01*
X157058635Y-77502573D01*
X157067530Y-77582841D01*
X157085261Y-77622592D01*
X157103898Y-77642301D01*
X157127649Y-77645681D01*
X157168326Y-77631241D01*
X157222054Y-77605329D01*
X157286774Y-77565749D01*
X157368607Y-77505333D01*
X157454183Y-77434268D01*
X157493789Y-77398309D01*
X157588119Y-77313734D01*
X157655427Y-77262967D01*
X157696101Y-77246051D01*
X157710530Y-77263025D01*
X157699104Y-77313931D01*
X157662210Y-77398810D01*
X157654134Y-77415216D01*
X157619495Y-77475727D01*
X157577209Y-77526920D01*
X157517422Y-77578569D01*
X157430281Y-77640450D01*
X157420358Y-77647125D01*
X157335916Y-77705199D01*
X157258537Y-77760975D01*
X157200041Y-77805827D01*
X157181971Y-77821096D01*
X157120503Y-77895170D01*
X157078649Y-77982595D01*
X157059609Y-78071291D01*
X157066586Y-78149176D01*
X157085163Y-78186450D01*
X157112690Y-78207438D01*
X157162055Y-78222525D01*
X157238524Y-78232360D01*
X157347368Y-78237596D01*
X157493853Y-78238884D01*
X157508665Y-78238831D01*
X157607873Y-78237085D01*
X157676751Y-78231102D01*
X157728433Y-78218191D01*
X157776053Y-78195657D01*
X157805635Y-78177962D01*
X157872833Y-78133622D01*
X157910560Y-78097140D01*
X157927267Y-78055076D01*
X157931404Y-77993989D01*
X157931467Y-77977819D01*
X157924771Y-77891929D01*
X157906629Y-77780808D01*
X157879959Y-77656011D01*
X157847681Y-77529092D01*
X157812713Y-77411608D01*
X157777973Y-77315111D01*
X157748907Y-77255098D01*
X157734194Y-77223530D01*
X157710387Y-77164705D01*
X157686933Y-77102872D01*
X157659623Y-77031835D01*
X157636351Y-76976612D01*
X157623873Y-76952072D01*
X157609405Y-76919441D01*
X157590201Y-76861214D01*
X157580446Y-76827029D01*
X157559828Y-76767639D01*
X157538272Y-76730849D01*
X157528141Y-76724860D01*
X157505918Y-76741622D01*
X157463955Y-76786291D01*
X157408464Y-76851874D01*
X157351558Y-76923689D01*
X157288213Y-77005323D01*
X157232494Y-77075961D01*
X157190950Y-77127376D01*
X157171483Y-77150013D01*
X157125713Y-77217080D01*
X157090080Y-77306794D01*
X157066936Y-77406258D01*
X157058635Y-77502573D01*
X156880471Y-77502573D01*
X156890345Y-77277555D01*
X156902618Y-76913819D01*
X156905749Y-76802385D01*
X156911117Y-76613697D01*
X156916737Y-76435733D01*
X156922395Y-76273891D01*
X156927881Y-76133565D01*
X156932983Y-76020152D01*
X156937488Y-75939048D01*
X156941185Y-75895648D01*
X156941409Y-75894151D01*
X156952626Y-75841745D01*
X156966672Y-75825506D01*
X156986286Y-75835791D01*
X157036852Y-75896054D01*
X157075570Y-75985300D01*
X157103814Y-76108006D01*
X157122955Y-76268644D01*
X157124321Y-76285667D01*
X157132188Y-76390752D01*
X157138646Y-76483703D01*
X157142975Y-76553698D01*
X157144451Y-76587817D01*
X157152567Y-76628874D01*
X157172343Y-76631075D01*
X157198847Y-76595766D01*
X157210973Y-76569655D01*
X157237571Y-76515204D01*
X157262913Y-76477547D01*
X157263215Y-76477232D01*
X157289367Y-76442936D01*
X157324073Y-76389075D01*
X157333556Y-76373118D01*
X157379447Y-76294335D01*
X157314029Y-76177398D01*
X157269909Y-76098356D01*
X157226849Y-76020930D01*
X157204945Y-75981382D01*
X157164518Y-75919117D01*
X157109108Y-75846758D01*
X157075346Y-75807409D01*
X157021319Y-75745573D01*
X156974647Y-75688443D01*
X156954312Y-75661079D01*
X156923948Y-75626982D01*
X156867983Y-75573212D01*
X156794661Y-75507415D01*
X156719894Y-75443614D01*
X156603164Y-75348695D01*
X156500775Y-75271723D01*
X156395675Y-75200543D01*
X156270810Y-75123003D01*
X156265770Y-75119963D01*
X156230782Y-75106659D01*
X156181010Y-75102808D01*
X156110701Y-75109128D01*
X156014100Y-75126341D01*
X155885454Y-75155169D01*
X155781150Y-75180669D01*
X155644936Y-75217000D01*
X155543415Y-75250747D01*
X155468330Y-75286174D01*
X155411424Y-75327544D01*
X155364440Y-75379121D01*
X155344943Y-75405915D01*
X155323121Y-75438591D01*
X155307494Y-75468727D01*
X155297092Y-75503965D01*
X155290948Y-75551952D01*
X155288091Y-75620332D01*
X155287554Y-75716748D01*
X154986675Y-75716748D01*
X154981925Y-75711534D01*
X154918918Y-75657364D01*
X154903951Y-75646503D01*
X154850853Y-75615078D01*
X154795953Y-75598151D01*
X154722660Y-75591733D01*
X154674078Y-75591218D01*
X154595944Y-75592043D01*
X154533336Y-75595380D01*
X154473814Y-75603179D01*
X154404933Y-75617392D01*
X154314252Y-75639968D01*
X154241798Y-75658974D01*
X154067677Y-75711768D01*
X153927155Y-75771388D01*
X153810349Y-75843639D01*
X153707376Y-75934325D01*
X153635821Y-76014817D01*
X153556240Y-76111935D01*
X153384790Y-76111935D01*
X153399761Y-76089925D01*
X153424857Y-76036178D01*
G37*
D12*
%TO.C,R5*%
X154622936Y-93305000D02*
X155077064Y-93305000D01*
X154622936Y-91835000D02*
X155077064Y-91835000D01*
%TO.C,A1*%
X132840000Y-115650000D02*
X132840000Y-77550000D01*
X145540000Y-113110000D02*
X148210000Y-113110000D01*
X145540000Y-77550000D02*
X148210000Y-77550000D01*
X130170000Y-74880000D02*
X130170000Y-118320000D01*
X132840000Y-115650000D02*
X130170000Y-115650000D01*
X148210000Y-74880000D02*
X130170000Y-74880000D01*
X145540000Y-113110000D02*
X145540000Y-115650000D01*
X145540000Y-115650000D02*
X148210000Y-115650000D01*
X145540000Y-113110000D02*
X145540000Y-77550000D01*
X148210000Y-113110000D02*
X148210000Y-74880000D01*
X132840000Y-77550000D02*
X130170000Y-77550000D01*
X130170000Y-118320000D02*
X148210000Y-118320000D01*
X148210000Y-118320000D02*
X148210000Y-115650000D01*
%TO.C,R4*%
X154732936Y-96525000D02*
X155187064Y-96525000D01*
X154732936Y-97995000D02*
X155187064Y-97995000D01*
%TO.C,R1*%
X154482936Y-87415000D02*
X154937064Y-87415000D01*
X154482936Y-88885000D02*
X154937064Y-88885000D01*
%TO.C,J1*%
X171780000Y-112820000D02*
X170450000Y-112820000D01*
X171780000Y-111490000D02*
X171780000Y-112820000D01*
X169180000Y-110160000D02*
X169180000Y-112820000D01*
X169180000Y-112820000D02*
X151340000Y-112820000D01*
X169180000Y-110160000D02*
X151340000Y-110160000D01*
X151340000Y-110160000D02*
X151340000Y-112820000D01*
%TO.C,R2*%
X155337064Y-105775000D02*
X154882936Y-105775000D01*
X155337064Y-107245000D02*
X154882936Y-107245000D01*
%TO.C,VDD1*%
X171770000Y-80730000D02*
X171770000Y-88290000D01*
X171770000Y-88290000D02*
X160050000Y-88290000D01*
X165660000Y-83480000D02*
X171160000Y-83480000D01*
X161960000Y-85430000D02*
X162560000Y-85730000D01*
X160050000Y-88290000D02*
X160050000Y-86870000D01*
X160050000Y-86870000D02*
X164550000Y-86870000D01*
X171160000Y-85480000D02*
X165660000Y-85480000D01*
X171160000Y-77980000D02*
X165660000Y-77980000D01*
X171160000Y-85980000D02*
X171160000Y-85480000D01*
X165660000Y-75980000D02*
X171160000Y-75980000D01*
X165660000Y-85480000D02*
X165660000Y-85980000D01*
X160050000Y-73170000D02*
X160050000Y-74590000D01*
X165660000Y-80980000D02*
X171160000Y-80980000D01*
X160050000Y-74590000D02*
X164550000Y-74590000D01*
X165660000Y-85980000D02*
X171160000Y-85980000D01*
X171160000Y-82980000D02*
X165660000Y-82980000D01*
X171160000Y-80480000D02*
X165660000Y-80480000D01*
X165660000Y-82980000D02*
X165660000Y-83480000D01*
X171160000Y-78480000D02*
X171160000Y-77980000D01*
X165660000Y-77980000D02*
X165660000Y-78480000D01*
X165660000Y-80480000D02*
X165660000Y-80980000D01*
X171770000Y-73170000D02*
X160050000Y-73170000D01*
X171770000Y-80730000D02*
X171770000Y-73170000D01*
X161960000Y-86030000D02*
X161960000Y-85430000D01*
X171160000Y-83480000D02*
X171160000Y-82980000D01*
X165660000Y-78480000D02*
X171160000Y-78480000D01*
X171160000Y-75980000D02*
X171160000Y-75480000D01*
X171160000Y-75480000D02*
X165660000Y-75480000D01*
X171160000Y-80980000D02*
X171160000Y-80480000D01*
X165660000Y-75480000D02*
X165660000Y-75980000D01*
X162560000Y-85730000D02*
X161960000Y-86030000D01*
%TO.C,R3*%
X154732936Y-102585000D02*
X155187064Y-102585000D01*
X154732936Y-101115000D02*
X155187064Y-101115000D01*
%TO.C,Data1*%
X165790000Y-94850000D02*
X171290000Y-94850000D01*
X165790000Y-99350000D02*
X165790000Y-99850000D01*
X160180000Y-90960000D02*
X164680000Y-90960000D01*
X171290000Y-101850000D02*
X165790000Y-101850000D01*
X165790000Y-101850000D02*
X165790000Y-102350000D01*
X171290000Y-97350000D02*
X171290000Y-96850000D01*
X162090000Y-101800000D02*
X162690000Y-102100000D01*
X165790000Y-96850000D02*
X165790000Y-97350000D01*
X162090000Y-102400000D02*
X162090000Y-101800000D01*
X165790000Y-99850000D02*
X171290000Y-99850000D01*
X165790000Y-91850000D02*
X165790000Y-92350000D01*
X171900000Y-97100000D02*
X171900000Y-104660000D01*
X171290000Y-96850000D02*
X165790000Y-96850000D01*
X171290000Y-92350000D02*
X171290000Y-91850000D01*
X171290000Y-99350000D02*
X165790000Y-99350000D01*
X171900000Y-97100000D02*
X171900000Y-89540000D01*
X165790000Y-97350000D02*
X171290000Y-97350000D01*
X171900000Y-89540000D02*
X160180000Y-89540000D01*
X171290000Y-99850000D02*
X171290000Y-99350000D01*
X171290000Y-94850000D02*
X171290000Y-94350000D01*
X171290000Y-102350000D02*
X171290000Y-101850000D01*
X165790000Y-102350000D02*
X171290000Y-102350000D01*
X171290000Y-94350000D02*
X165790000Y-94350000D01*
X160180000Y-103240000D02*
X164680000Y-103240000D01*
X171290000Y-91850000D02*
X165790000Y-91850000D01*
X165790000Y-92350000D02*
X171290000Y-92350000D01*
X165790000Y-94350000D02*
X165790000Y-94850000D01*
X162690000Y-102100000D02*
X162090000Y-102400000D01*
X160180000Y-89540000D02*
X160180000Y-90960000D01*
X171900000Y-104660000D02*
X160180000Y-104660000D01*
X160180000Y-104660000D02*
X160180000Y-103240000D01*
%TD*%
M02*
